{
.appVersion = "3306";
.formatVersion = 3;
DisplayStrings = (
"Whereas disregard and contempt for human rights have resulted

No one shall be held in slavery or servitude; slavery and the slave trade shall be prohibited in all their forms.

Everyone has the right to an effective remedy by the competent national tribunals for acts violating the fundamental rights granted him by the constitution or by law.

No one shall be subjected to arbitrary arrest, detention or exile. Everyone is entitled in full equality to a fair and public hearing by an independent and impartial tribunal, in the determination of his rights and obligations and of any criminal charge against him. No one shall be subjected to arbitrary interference with his privacy, family, home or correspondence, nor to attacks upon his honour and reputation. Everyone has the right to the protection of the law against such interference or attacks.

Everyone has the right to freedom of thought, conscience and religion; this right includes freedom to change his religion or belief, and freedom, either alone or in community with others and in public or private, to manifest his religion or belief in teaching, practice, worship and observance. Everyone has the right to freedom of opinion and expression; this right includes freedom to hold opinions without interference and to seek, receive and impart information and ideas through any media and regardless of frontiers. Everyone has the right to rest and leisure, including reasonable limitation of working hours and periodic holidays with pay."
);
axes = (
{
name = Weight;
tag = wght;
}
);
classes = (
{
automatic = 1;

glyphs = (
{
glyphname = A;
kernLeft = A;
kernRight = A;
layers = (
{
anchors = (
{
name = ogo;
pos = (488,0);
},
{
name = top;
pos = (383,700);
}
);
layerId = m01;
shapes = (
{
closed = 1;
nodes = (
(248,0,l),
(248,19,l),
(137,56,l),
(148,33,l),
(232,258,l),
(208,241,l),
(511,241,l),
(487,258,l),
(570,33,l),
(581,56,l),
(473,20,l),
(473,0,l),
(757,0,l),
(757,19,l),
(646,56,l),
(672,33,l),
(428,720,l),
(333,700,l),
(93,33,l),
(116,56,l),
(8,20,l),
(8,0,l)
);
},
{
closed = 1;
nodes = (
(366,643,l),
(354,643,l),
(484,264,l),
(496,281,l),
(223,281,l),
(235,264,l)
);
}
);
width = 765;
},
{
anchors = (
{
name = top;
pos = (398,671);
}
);
associatedMasterId = m01;
layerId = "77F1F182-FFCF-4508-A517-31895B1E2DC0";
name = "1. Jan. 24, 22:37";
shapes = (
{
closed = 1;
nodes = (
(683,50,l),
(442,720,l),
(343,700,l),
(584,50,l)
);
},
{
closed = 1;
nodes = (
(248,0,l),
(248,19,l),
(154,50,l),
(99,50,l),
(8,20,l),
(8,0,l)
);
},
{
closed = 1;
nodes = (
(154,50,l),
(398,700,l),
(343,700,l),
(99,50,l)
);
},
{
closed = 1;
nodes = (
(540,241,l),
(540,281,l),
(194,281,l),
(194,241,l)
);
},
{
closed = 1;
nodes = (
(777,0,l),
(777,19,l),
(683,50,l),
(584,50,l),
(493,20,l),
(493,0,l)
);
}
);
width = 785;
},
{
anchors = (
{
name = ogo;
pos = (453,0);
},
{
name = top;
pos = (364,700);
}
);
background = {
shapes = (
{
closed = 1;
nodes = (
(187,0,l),
(187,20,l),
(94,50,l),
(94,648,l),
(187,680,l),
(187,700,l),
(-183,700,l),
(-183,680,l),
(-90,650,l),
(-90,50,l),
(-183,20,l),
(-183,0,l)
);
}
);
};
hints = (
{
horizontal = 1;
place = (0,16);
type = Stem;
},
{
horizontal = 1;
place = (238,46);
type = Stem;
},
{
horizontal = 1;
place = (715,-20);
target = down;
type = TopGhost;
},
{
place = (-35,855);
type = Stem;
}
);
layerId = "E0989092-07D5-4BE4-A82B-4E03160A36DB";
shapes = (
{
closed = 1;
nodes = (
(207,0,l),
(207,20,l),
(94,57,l),
(95,48,l),
(168,240,l),
(163,238,l),
(420,238,l),
(417,240,l),
(489,48,l),
(490,51,l),
(395,20,l),
(395,0,l),
(765,0,l),
(765,20,l),
(683,47,l),
(686,44,l),
(459,715,l),
(268,700,l),
(42,48,l),
(45,51,l),
(-50,20,l),
(-50,0,l)
);
},
{
closed = 1;
nodes = (
(301,648,l),
(285,648,l),
(403,276,l),
(404,278,l),
(179,278,l),
(182,276,l)
);
}
);
width = 715;
}
);
unicode = 65;
},
{
glyphname = AE;
kernLeft = A;
kernRight = E;
layers = (
{
layerId = m01;
shapes = (
{
closed = 1;
nodes = (
(890,0,l),
(925,197,l),
(906,204,l),
(817,34,l),
(843,50,l),
(561,50,l),
(579,32,l),
(579,359,l),
(561,341,l),
(733,341,l),
(708,359,l),
(746,245,l),
(765,245,l),
(765,475,l),
(745,475,l),
(708,363,l),
(733,381,l),
(561,381,l),
(579,363,l),
(579,668,l),
(561,650,l),
(848,650,l),
(825,667,l),
(866,520,l),
(887,520,l),
(887,700,l),
(484,700,l),
(484,698,l),
(91,34,l),
(116,56,l),
(8,20,l),
(8,0,l),
(248,0,l),
(248,19,l),
(137,56,l),
(146,34,l),
(247,227,l),
(221,211,l),
(502,211,l),
(484,229,l),
(484,0,l)
);
},
{
closed = 1;
nodes = (
(492,614,l),
(484,616,l),
(484,233,l),
(502,251,l),
(242,251,l),
(252,235,l)
);
}
);
width = 933;
},
{
associatedMasterId = m01;
layerId = "65F6BFA4-FC38-41E6-9ED1-2CEBC3AB3BF6";
name = "2. Jan. 24, 00:57";
shapes = (
{
closed = 1;
nodes = (
(894,0,l),
(929,197,l),
(910,204,l),
(829,50,l),
(543,50,l),
(543,341,l),
(719,341,l),
(719,339,l),
(750,245,l),
(769,245,l),
(769,475,l),
(749,475,l),
(719,384,l),
(719,381,l),
(543,381,l),
(543,650,l),
(834,650,l),
(870,520,l),
(891,520,l),
(891,700,l),
(448,700,l),
(448,0,l)
);
},
{
closed = 1;
nodes = (
(252,0,l),
(252,19,l),
(158,50,l),
(103,50,l),
(12,20,l),
(12,0,l)
);
},
{
closed = 1;
nodes = (
(514,211,l),
(514,251,l),
(218,251,l),
(218,211,l)
);
},
{
closed = 1;
nodes = (
(158,50,l),
(502,700,l),
(449,700,l),
(103,50,l)
);
}
);
width = 941;
},
{
hints = (
{
horizontal = 1;
place = (-3,56);
type = Stem;
},
{
horizontal = 1;
place = (208,46);
type = Stem;
},
{
horizontal = 1;
place = (338,46);
type = Stem;
},
{
horizontal = 1;
place = (647,56);
type = Stem;
},
{
place = (498,165);
type = Stem;
},
{
place = (754,85);
type = Stem;
},
{
place = (787,52);
type = Stem;
},
{
place = (786,53);
type = Stem;
},
{
place = (922,56);
type = Stem;
},
{
horizontal = 1;
place = (517,186);
type = Stem;
},
{
horizontal = 1;
place = (0,16);
type = Stem;
}
);
layerId = "E0989092-07D5-4BE4-A82B-4E03160A36DB";
shapes = (
{
closed = 1;
nodes = (
(917,-3,l),
(952,190,l),
(923,224,l),
(833,51,l),
(836,53,l),
(598,53,l),
(600,51,l),
(600,340,l),
(598,338,l),
(714,338,l),
(711,340,l),
(745,242,l),
(777,242,l),
(777,478,l),
(744,478,l),
(711,382,l),
(714,384,l),
(598,384,l),
(600,382,l),
(600,649,l),
(598,647,l),
(836,647,l),
(833,649,l),
(870,517,l),
(916,517,l),
(916,703,l),
(416,703,l),
(416,690,l),
(42,45,l),
(45,48,l),
(-50,17,l),
(-50,0,l),
(188,0,l),
(188,16,l),
(97,47,l),
(98,44,l),
(199,210,l),
(196,208,l),
(418,208,l),
(416,210,l),
(416,-3,l)
);
},
{
closed = 1;
nodes = (
(417,594,l),
(416,594,l),
(416,252,l),
(418,254,l),
(226,254,l),
(227,252,l)
);
}
);
width = 937;
}
);
metricLeft = A;
metricRight = E;
unicode = 198;
},
{
glyphname = B;
layers = (
{
anchors = (
{
name = top;
pos = (280,700);
}
);
layerId = m01;
shapes = (
{
closed = 1;
nodes = (
(298,0,ls),
(469,0,o),
(576,79,o),
(576,205,cs),
(576,291,o),
(515,352,o),
(414,372,c),
(416,363,l),
(490,396,o),
(536,459,o),
(536,537,cs),
(536,632,o),
(450,700,o),
(328,700,cs),
(8,700,l),
(8,680,l),
(116,644,l),
(99,668,l),
(99,32,l),
(116,56,l),
(8,20,l),
(8,0,l)
);
},
{
closed = 1;
nodes = (
(194,359,l),
(176,341,l),
(298,341,ls),
(401,341,o),
(466,278,o),
(466,177,cs),
(466,99,o),
(413,50,o),
(328,50,cs),
(176,50,l),
(194,32,l)
);
},
{
closed = 1;
nodes = (
(194,668,l),
(176,650,l),
(298,650,ls),
(373,650,o),
(426,590,o),
(426,505,cs),
(426,432,o),
(385,381,o),
(328,381,cs),
(176,381,l),
(194,363,l)
);
}
);
width = 621;
},
{
anchors = (
{
name = top;
pos = (306,700);
}
);
associatedMasterId = m01;
layerId = "4784B320-B7C0-473D-AF98-435A13D7944F";
name = "1. Jan. 24, 22:48";
shapes = (
{
closed = 1;
nodes = (
(495,0,o),
(602,79,o),
(602,205,cs),
(602,313,o),
(506,381,o),
(354,381,c),
(324,341,l),
(427,341,o),
(492,278,o),
(492,177,cs),
(492,99,o),
(439,50,o),
(354,50,c),
(324,0,l)
);
},
{
closed = 1;
nodes = (
(324,0,l),
(354,50,l),
(125,50,l),
(34,20,l),
(34,0,l)
);
},
{
closed = 1;
nodes = (
(220,50,l),
(220,650,l),
(125,650,l),
(125,50,l)
);
},
{
closed = 1;
nodes = (
(324,341,l),
(354,381,l),
(190,381,l),
(190,341,l)
);
},
{
closed = 1;
nodes = (
(324,650,l),
(354,700,l),
(34,700,l),
(34,680,l),
(125,650,l)
);
},
{
closed = 1;
nodes = (
(463,341,o),
(562,422,o),
(562,537,cs),
(562,632,o),
(476,700,o),
(354,700,c),
(324,650,l),
(399,650,o),
(452,590,o),
(452,505,cs),
(452,432,o),
(411,381,o),
(354,381,c),
(324,341,l)
);
}
);
width = 660;
},
{
anchors = (
{
name = top;
pos = (322,700);
}
);
hints = (
{
horizontal = 1;
place = (0,53);
type = Stem;
},
{
horizontal = 1;
place = (338,46);
type = Stem;
},
{
horizontal = 1;
place = (647,53);
type = Stem;
},
{
place = (48,182);
type = Stem;
},
{
place = (415,197);
type = Stem;
},
{
place = (375,197);
type = Stem;
},
{
horizontal = 1;
place = (687,13);
type = Stem;
}
);
layerId = "E0989092-07D5-4BE4-A82B-4E03160A36DB";
shapes = (
{
closed = 1;
nodes = (
(305,0,ls),
(501,0,o),
(640,81,o),
(640,195,cs),
(640,268,o),
(571,341,o),
(474,370,c),
(475,368,l),
(548,398,o),
(600,468,o),
(600,537,cs),
(600,632,o),
(506,700,o),
(372,700,cs),
(-15,700,l),
(-15,687,l),
(76,646,l),
(74,649,l),
(74,51,l),
(76,54,l),
(-15,13,l),
(-15,0,l)
);
},
{
closed = 1;
nodes = (
(258,338,l),
(256,336,l),
(319,336,ls),
(400,336,o),
(458,270,o),
(458,177,cs),
(458,103,o),
(411,50,o),
(345,50,cs),
(256,50,l),
(258,48,l)
);
},
{
closed = 1;
nodes = (
(258,652,l),
(256,650,l),
(322,650,ls),
(378,650,o),
(418,590,o),
(418,505,cs),
(418,435,o),
(387,386,o),
(344,386,cs),
(256,386,l),
(258,384,l)
);
}
);
width = 660;
}
);
metricLeft = H;
metricRight = O;
unicode = 66;
},
{
glyphname = C;
kernLeft = C;
kernRight = C;
layers = (
{
anchors = (
{
name = ced;
pos = (398,0);
},
{
name = top;
pos = (370,700);
}
);
layerId = m01;
shapes = (
{
closed = 1;
nodes = (
(456,-15,o),
(555,13,o),
(627,52,c),
(627,200,l),
(589,200,l),
(589,97,o),
(515,24,o),
(410,24,cs),
(260,24,o),
(154,186,o),
(154,415,cs),
(154,568,o),
(243,676,o),
(370,676,cs),
(480,676,o),
(589,582,o),
(589,500,c),
(627,500,l),
(627,648,l),
(555,687,o),
(457,715,o),
(390,715,cs),
(188,713,o),
(45,561,o),
(45,347,cs),
(45,135,o),
(188,-15,o),
(390,-15,cs)
);
}
);
width = 672;
},
{
anchors = (
{
name = ced;
pos = (395,0);
},
{
name = top;
pos = (367,700);
}
);
associatedMasterId = m01;
layerId = "25A143D6-1FAB-478C-920D-4B3D556C234A";
name = "1. Jan. 24, 22:49";
shapes = (
{
closed = 1;
nodes = (
(407,24,l),
(257,24,o),
(151,186,o),
(151,415,cs),
(151,568,o),
(240,676,o),
(367,676,c),
(387,715,l),
(185,713,o),
(42,561,o),
(42,347,cs),
(42,135,o),
(185,-15,o),
(387,-15,c)
);
},
{
closed = 1;
nodes = (
(453,-15,o),
(552,13,o),
(624,52,c),
(624,200,l),
(586,200,l),
(586,97,o),
(512,24,o),
(407,24,c),
(387,-15,l)
);
},
{
closed = 1;
nodes = (
(624,500,l),
(624,648,l),
(552,687,o),
(454,715,o),
(387,715,c),
(367,676,l),
(477,676,o),
(586,582,o),
(586,500,c)
);
}
);
width = 700;
},
{
anchors = (
{
name = ced;
pos = (410,0);
},
{
name = top;
pos = (408,700);
}
);
hints = (
{
horizontal = 1;
place = (-18,45);
type = Stem;
},
{
horizontal = 1;
place = (673,45);
type = Stem;
},
{
place = (-1,195);
type = Stem;
},
{
place = (589,78);
type = Stem;
}
);
layerId = "E0989092-07D5-4BE4-A82B-4E03160A36DB";
shapes = (
{
closed = 1;
nodes = (
(502,-18,o),
(588,15,o),
(660,62,c),
(660,203,l),
(610,203,l),
(612,100,o),
(528,32,o),
(426,32,cs),
(303,32,o),
(215,188,o),
(215,415,cs),
(215,566,o),
(288,668,o),
(388,668,cs),
(526,668,o),
(614,614,o),
(610,497,c),
(660,497,l),
(660,638,l),
(588,685,o),
(500,718,o),
(408,718,cs),
(181,720,o),
(20,566,o),
(20,347,cs),
(20,133,o),
(181,-18,o),
(410,-18,cs)
);
}
);
width = 680;
}
);
metricLeft = O;
metricRight = O;
unicode = 67;
},
{
glyphname = D;
kernLeft = D;
kernRight = D;
layers = (
{
anchors = (
{
name = top;
pos = (310,700);
}
);
layerId = m01;
shapes = (
{
closed = 1;
nodes = (
(338,0,ls),
(536,0,o),
(676,160,o),
(676,385,cs),
(676,569,o),
(548,700,o),
(368,700,cs),
(8,700,l),
(8,680,l),
(116,644,l),
(99,668,l),
(99,32,l),
(116,56,l),
(8,20,l),
(8,0,l)
);
},
{
closed = 1;
nodes = (
(194,668,l),
(176,650,l),
(338,650,ls),
(472,650,o),
(566,523,o),
(566,344,cs),
(566,172,o),
(484,50,o),
(368,50,cs),
(176,50,l),
(194,32,l)
);
}
);
width = 721;
},
{
anchors = (
{
name = top;
pos = (334,700);
}
);
associatedMasterId = m01;
layerId = "D0A44D90-46C3-4D09-9D47-6B4D893B9BFC";
name = "1. Jan. 24, 22:50";
shapes = (
{
closed = 1;
nodes = (
(560,0,o),
(700,160,o),
(700,385,cs),
(700,569,o),
(572,700,o),
(392,700,c),
(362,650,l),
(496,650,o),
(590,523,o),
(590,344,cs),
(590,172,o),
(508,50,o),
(392,50,c),
(362,0,l)
);
},
{
closed = 1;
nodes = (
(362,0,l),
(392,50,l),
(123,50,l),
(32,20,l),
(32,0,l)
);
},
{
closed = 1;
nodes = (
(218,50,l),
(218,650,l),
(123,650,l),
(123,50,l)
);
},
{
closed = 1;
nodes = (
(362,650,l),
(392,700,l),
(32,700,l),
(32,680,l),
(123,650,l)
);
}
);
width = 754;
},
{
anchors = (
{
name = top;
pos = (352,700);
}
);
hints = (
{
horizontal = 1;
place = (0,47);
type = Stem;
},
{
horizontal = 1;
place = (653,47);
type = Stem;
},
{
place = (63,182);
type = Stem;
},
{
place = (530,197);
type = Stem;
},
{
horizontal = 1;
place = (687,13);
type = Stem;
}
);
layerId = "E0989092-07D5-4BE4-A82B-4E03160A36DB";
shapes = (
{
closed = 1;
nodes = (
(350,0,ls),
(578,0,o),
(740,160,o),
(740,385,cs),
(740,569,o),
(593,700,o),
(385,700,cs),
(-15,700,l),
(-15,687,l),
(78,654,l),
(76,657,l),
(76,44,l),
(78,47,l),
(-15,17,l),
(-15,0,l)
);
},
{
closed = 1;
nodes = (
(258,652,l),
(256,650,l),
(352,650,ls),
(464,650,o),
(557,525,o),
(557,344,cs),
(557,170,o),
(476,50,o),
(383,50,cs),
(256,50,l),
(258,48,l)
);
}
);
width = 760;
}
);
metricLeft = H;
metricRight = O;
unicode = 68;
},
{
glyphname = Eth;
kernLeft = D;
kernRight = D;
layers = (
{
layerId = m01;
shapes = (
{
closed = 1;
nodes = (
(352,337,l),
(352,379,l),
(32,379,l),
(32,337,l)
);
},
{
ref = D;
}
);
width = 721;
},
{
hints = (
{
horizontal = 1;
place = (-3,56);
type = Stem;
},
{
horizontal = 1;
place = (334,48);
type = Stem;
},
{
horizontal = 1;
place = (647,56);
type = Stem;
},
{
place = (80,181);
type = Stem;
},
{
place = (547,196);
type = Stem;
},
{
horizontal = 1;
place = (687,16);
type = Stem;
}
);
layerId = "E0989092-07D5-4BE4-A82B-4E03160A36DB";
shapes = (
{
closed = 1;
nodes = (
(395,334,l),
(395,382,l),
(-11,382,l),
(-11,334,l)
);
},
{
ref = D;
}
);
width = 760;
}
);
metricLeft = H;
metricRight = O;
unicode = 208;
},
{
glyphname = E;
kernLeft = E;
kernRight = E;
layers = (
{
anchors = (
{
name = ogo;
pos = (289,0);
},
{
name = top;
pos = (315,700);
}
);
layerId = m01;
shapes = (
{
closed = 1;
nodes = (
(545,0,l),
(580,197,l),
(561,204,l),
(472,34,l),
(498,50,l),
(176,50,l),
(194,32,l),
(194,359,l),
(176,341,l),
(388,341,l),
(364,358,l),
(401,245,l),
(420,245,l),
(420,475,l),
(400,475,l),
(365,364,l),
(388,381,l),
(176,381,l),
(194,363,l),
(194,668,l),
(176,650,l),
(503,650,l),
(480,667,l),
(521,520,l),
(542,520,l),
(542,700,l),
(8,700,l),
(8,680,l),
(116,644,l),
(99,668,l),
(99,32,l),
(116,56,l),
(8,20,l),
(8,0,l)
);
}
);
width = 588;
},
{
anchors = (
{
name = top;
pos = (334,700);
}
);
associatedMasterId = m01;
layerId = "FEC74467-989F-442E-8B17-9EE45420A350";
name = "2. Jan. 24, 00:41";
shapes = (
{
closed = 1;
nodes = (
(218,50,l),
(218,650,l),
(123,650,l),
(123,50,l)
);
},
{
closed = 1;
nodes = (
(504,0,l),
(504,50,l),
(123,50,l),
(32,20,l),
(32,0,l)
);
},
{
closed = 1;
nodes = (
(569,0,l),
(604,197,l),
(585,204,l),
(504,50,l),
(504,0,l)
);
},
{
closed = 1;
nodes = (
(444,341,l),
(444,381,l),
(188,381,l),
(188,341,l)
);
},
{
closed = 1;
nodes = (
(444,245,l),
(444,475,l),
(424,475,l),
(394,384,l),
(394,339,l),
(425,245,l)
);
},
{
closed = 1;
nodes = (
(509,650,l),
(509,700,l),
(32,700,l),
(32,680,l),
(123,650,l)
);
},
{
closed = 1;
nodes = (
(566,520,l),
(566,700,l),
(509,700,l),
(509,650,l),
(545,520,l)
);
}
);
width = 649;
},
{
anchors = (
{
name = ogo;
pos = (326,0);
},
{
name = top;
pos = (296,700);
}
);
hints = (
{
horizontal = 1;
place = (0,47);
type = Stem;
},
{
horizontal = 1;
place = (343,38);
type = Stem;
},
{
horizontal = 1;
place = (653,47);
type = Stem;
},
{
place = (63,182);
type = Stem;
},
{
place = (418,36);
type = Stem;
},
{
place = (553,40);
type = Stem;
},
{
place = (417,37);
type = Stem;
},
{
horizontal = 1;
place = (517,183);
type = Stem;
},
{
horizontal = 1;
place = (687,13);
type = Stem;
}
);
layerId = "E0989092-07D5-4BE4-A82B-4E03160A36DB";
shapes = (
{
closed = 1;
nodes = (
(607,0,l),
(642,190,l),
(610,206,l),
(527,48,l),
(530,50,l),
(258,50,l),
(260,48,l),
(260,339,l),
(258,337,l),
(383,337,l),
(380,339,l),
(421,242,l),
(441,242,l),
(441,478,l),
(420,478,l),
(380,385,l),
(383,387,l),
(258,387,l),
(260,385,l),
(260,652,l),
(258,650,l),
(531,650,l),
(528,652,l),
(566,517,l),
(606,517,l),
(606,700,l),
(-15,700,l),
(-15,687,l),
(78,654,l),
(76,657,l),
(76,43,l),
(78,46,l),
(-15,13,l),
(-15,0,l)
);
}
);
width = 627;
}
);
metricLeft = H;
metricRight = H;
unicode = 69;
},
{
glyphname = Schwa;
layers = (
{
layerId = m01;
shapes = (
{
closed = 1;
nodes = (
(422,-14,o),
(533,145,o),
(534,370,cs),
(536,570,o),
(429,712,o),
(275,712,cs),
(191,712,o),
(99,659,o),
(54,585,c),
(90,566,l),
(127,609,o),
(189,640,o),
(240,640,cs),
(362,640,o),
(448,506,o),
(443,311,c),
(461,327,l),
(46,327,l),
(32,130,o),
(123,-14,o),
(266,-14,cs)
);
},
{
closed = 1;
nodes = (
(208,29,o),
(136,136,o),
(129,301,c),
(114,281,l),
(464,287,l),
(446,304,l),
(450,143,o),
(390,29,o),
(303,29,cs)
);
}
);
width = 579;
},
{
layerId = "E0989092-07D5-4BE4-A82B-4E03160A36DB";
shapes = (
{
closed = 1;
nodes = (
(479,-17,o),
(595,148,o),
(596,370,cs),
(598,565,o),
(485,715,o),
(294,715,cs),
(190,715,o),
(76,651,o),
(38,590,c),
(126,544,l),
(174,611,o),
(221,637,o),
(259,637,cs),
(342,637,o),
(418,513,o),
(419,320,c),
(421,324,l),
(22,324,l),
(6,125,o),
(105,-17,o),
(285,-17,cs)
);
},
{
closed = 1;
nodes = (
(266,32,o),
(206,70,o),
(189,277,c),
(187,274,l),
(424,284,l),
(422,286,l),
(421,128,o),
(368,32,o),
(322,32,cs)
);
}
);
width = 616;
}
);
metricLeft = O;
metricRight = O;
unicode = 399;
},
{
glyphname = F;
layers = (
{
anchors = (
{
name = top;
pos = (314,700);
}
);
layerId = m01;
shapes = (
{
closed = 1;
nodes = (
(308,0,l),
(308,19,l),
(177,55,l),
(194,32,l),
(194,359,l),
(176,341,l),
(388,341,l),
(364,358,l),
(401,245,l),
(420,245,l),
(420,475,l),
(400,475,l),
(365,364,l),
(388,381,l),
(176,381,l),
(194,363,l),
(194,668,l),
(176,650,l),
(503,650,l),
(480,667,l),
(521,520,l),
(542,520,l),
(542,700,l),
(8,700,l),
(8,680,l),
(116,644,l),
(99,668,l),
(99,32,l),
(116,56,l),
(8,20,l),
(8,0,l)
);
}
);
width = 550;
},
{
anchors = (
{
name = top;
pos = (338,700);
}
);
associatedMasterId = m01;
layerId = "41430A1B-FDF3-479E-A5F3-835DC2B9B194";
name = "1. Jan. 24, 22:56";
shapes = (
{
closed = 1;
nodes = (
(218,50,l),
(218,650,l),
(123,650,l),
(123,50,l)
);
},
{
closed = 1;
nodes = (
(332,0,l),
(332,19,l),
(218,50,l),
(123,50,l),
(32,20,l),
(32,0,l)
);
},
{
closed = 1;
nodes = (
(444,341,l),
(444,381,l),
(188,381,l),
(188,341,l)
);
},
{
closed = 1;
nodes = (
(444,245,l),
(444,475,l),
(424,475,l),
(394,384,l),
(394,339,l),
(425,245,l)
);
},
{
closed = 1;
nodes = (
(509,650,l),
(509,700,l),
(32,700,l),
(32,680,l),
(123,650,l)
);
},
{
closed = 1;
nodes = (
(566,520,l),
(566,700,l),
(509,700,l),
(509,650,l),
(545,520,l)
);
}
);
width = 597;
},
{
anchors = (
{
name = top;
pos = (351,700);
}
);
hints = (
{
horizontal = 1;
place = (0,17);
type = Stem;
},
{
horizontal = 1;
place = (338,46);
type = Stem;
},
{
horizontal = 1;
place = (653,47);
type = Stem;
},
{
place = (63,182);
type = Stem;
},
{
place = (369,85);
type = Stem;
},
{
place = (402,52);
type = Stem;
},
{
place = (401,53);
type = Stem;
},
{
place = (520,73);
type = Stem;
},
{
horizontal = 1;
place = (513,187);
type = Stem;
},
{
horizontal = 1;
place = (683,17);
type = Stem;
}
);
layerId = "E0989092-07D5-4BE4-A82B-4E03160A36DB";
shapes = (
{
closed = 1;
nodes = (
(372,0,l),
(372,17,l),
(256,47,l),
(258,44,l),
(258,338,l),
(256,336,l),
(384,336,l),
(381,338,l),
(422,242,l),
(442,242,l),
(442,478,l),
(421,478,l),
(381,384,l),
(384,386,l),
(256,386,l),
(258,384,l),
(258,652,l),
(256,650,l),
(497,650,l),
(494,652,l),
(533,513,l),
(573,513,l),
(573,700,l),
(-15,700,l),
(-15,683,l),
(76,653,l),
(74,656,l),
(74,44,l),
(76,47,l),
(-15,17,l),
(-15,0,l)
);
}
);
width = 558;
}
);
metricLeft = H;
metricRight = E;
unicode = 70;
},
{
glyphname = G;
kernLeft = G;
kernRight = G;
layers = (
{
anchors = (
{
name = com;
pos = (416,-2);
},
{
name = top;
pos = (400,700);
}
);
layerId = m01;
shapes = (
{
closed = 1;
nodes = (
(496,-15,o),
(607,14,o),
(677,54,c),
(677,268,l),
(661,242,l),
(741,281,l),
(741,300,l),
(451,300,l),
(451,280,l),
(600,246,l),
(582,268,l),
(582,71,l),
(590,98,l),
(549,53,o),
(490,24,o),
(430,24,cs),
(268,24,o),
(154,186,o),
(154,415,cs),
(154,568,o),
(252,676,o),
(390,676,cs),
(518,676,o),
(609,603,o),
(609,500,c),
(647,500,l),
(647,648,l),
(577,687,o),
(479,715,o),
(410,715,cs),
(196,713,o),
(45,561,o),
(45,347,cs),
(45,135,o),
(196,-15,o),
(410,-15,cs)
);
}
);
width = 786;
},
{
anchors = (
{
name = com;
pos = (406,-2);
},
{
name = top;
pos = (390,700);
}
);
associatedMasterId = m01;
layerId = "39080339-8871-4078-9D60-13CA8196ECF6";
name = "1. Jan. 24, 22:59";
shapes = (
{
closed = 1;
nodes = (
(420,24,l),
(258,24,o),
(144,186,o),
(144,415,cs),
(144,568,o),
(242,676,o),
(380,676,c),
(400,715,l),
(186,713,o),
(35,561,o),
(35,347,cs),
(35,135,o),
(186,-15,o),
(400,-15,c)
);
},
{
closed = 1;
nodes = (
(486,-15,o),
(597,14,o),
(667,54,c),
(667,150,l),
(621,160,l),
(587,80,o),
(504,24,o),
(420,24,c),
(400,-15,l)
);
},
{
closed = 1;
nodes = (
(667,54,l),
(667,250,l),
(572,250,l),
(572,54,l)
);
},
{
closed = 1;
nodes = (
(667,250,l),
(731,281,l),
(731,300,l),
(441,300,l),
(441,280,l),
(572,250,l)
);
},
{
closed = 1;
nodes = (
(637,500,l),
(637,648,l),
(565,687,o),
(466,715,o),
(400,715,c),
(380,676,l),
(508,676,o),
(599,603,o),
(599,500,c)
);
}
);
width = 737;
},
{
anchors = (
{
name = com;
pos = (447,-8);
},
{
name = top;
pos = (431,700);
}
);
background = {
shapes = (
{
closed = 0;
nodes = (
(418,676,ls),
(551,676,o),
(645,609,o),
(645,515,c),
(708,515,l),
(708,647,l),
(649,687,o),
(529,716,o),
(418,716,cs)
);
}
);
};
hints = (
{
horizontal = 1;
place = (-18,45);
type = Stem;
},
{
horizontal = 1;
place = (289,14);
type = Stem;
},
{
horizontal = 1;
place = (673,45);
type = Stem;
},
{
place = (-8,195);
type = Stem;
},
{
place = (529,181);
type = Stem;
},
{
horizontal = 1;
place = (285,18);
type = Stem;
},
{
horizontal = 1;
place = (497,141);
type = Stem;
},
{
place = (606,74);
type = Stem;
}
);
layerId = "E0989092-07D5-4BE4-A82B-4E03160A36DB";
shapes = (
{
closed = 1;
nodes = (
(554,-16,o),
(682,11,o),
(740,51,c),
(740,254,l),
(738,252,l),
(802,289,l),
(802,305,l),
(426,305,l),
(426,285,l),
(558,253,l),
(556,256,l),
(556,60,l),
(557,63,l),
(534,38,o),
(489,23,o),
(448,23,c),
(312,47,o),
(215,208,o),
(215,415,cs),
(215,568,o),
(295,675,o),
(408,675,cs),
(548,675,o),
(626,609,o),
(625,515,c),
(708,515,l),
(708,647,l),
(651,687,o),
(536,716,o),
(431,716,cs),
(190,718,o),
(20,566,o),
(20,347,cs),
(20,133,o),
(190,-16,o),
(431,-16,cs)
);
}
);
width = 822;
}
);
metricLeft = O;
metricRight = O;
unicode = 71;
},
{
glyphname = H;
kernLeft = I;
kernRight = I;
layers = (
{
anchors = (
{
name = top;
pos = (391,700);
}
);
layerId = m01;
shapes = (
{
closed = 1;
nodes = (
(288,0,l),
(288,19,l),
(177,56,l),
(194,32,l),
(194,353,l),
(176,335,l),
(602,335,l),
(584,353,l),
(584,32,l),
(601,56,l),
(493,20,l),
(493,0,l),
(773,0,l),
(773,19,l),
(662,56,l),
(679,32,l),
(679,668,l),
(662,644,l),
(773,681,l),
(773,700,l),
(493,700,l),
(493,680,l),
(601,644,l),
(584,668,l),
(584,357,l),
(602,375,l),
(176,375,l),
(194,357,l),
(194,668,l),
(177,644,l),
(288,681,l),
(288,700,l),
(8,700,l),
(8,680,l),
(116,644,l),
(99,668,l),
(99,32,l),
(116,56,l),
(8,20,l),
(8,0,l)
);
}
);
width = 781;
},
{
associatedMasterId = m01;
layerId = "015B11CA-0731-4F8C-9479-89012C1F2E0D";
name = "1. Jan. 24, 23:01";
shapes = (
{
closed = 1;
nodes = (
(699,50,l),
(699,650,l),
(604,650,l),
(604,50,l)
);
},
{
closed = 1;
nodes = (
(308,0,l),
(308,19,l),
(214,50,l),
(119,50,l),
(28,20,l),
(28,0,l)
);
},
{
closed = 1;
nodes = (
(214,50,l),
(214,650,l),
(119,650,l),
(119,50,l)
);
},
{
closed = 1;
nodes = (
(793,0,l),
(793,19,l),
(699,50,l),
(604,50,l),
(513,20,l),
(513,0,l)
);
},
{
closed = 1;
nodes = (
(649,335,l),
(649,375,l),
(163,375,l),
(163,335,l)
);
},
{
closed = 1;
nodes = (
(214,650,l),
(308,681,l),
(308,700,l),
(28,700,l),
(28,680,l),
(119,650,l)
);
},
{
closed = 1;
nodes = (
(699,650,l),
(793,681,l),
(793,700,l),
(513,700,l),
(513,680,l),
(604,650,l)
);
}
);
width = 821;
},
{
anchors = (
{
name = top;
pos = (410,700);
}
);
background = {
shapes = (
{
closed = 1;
nodes = (
(355,0,l),
(355,20,l),
(262,50,l),
(262,648,l),
(355,680,l),
(355,700,l),
(-15,700,l),
(-15,680,l),
(78,650,l),
(78,50,l),
(-15,20,l),
(-15,0,l)
);
},
{
closed = 1;
nodes = (
(835,0,l),
(835,20,l),
(742,50,l),
(742,648,l),
(835,680,l),
(835,700,l),
(465,700,l),
(465,680,l),
(558,650,l),
(558,50,l),
(465,20,l),
(465,0,l)
);
}
);
};
hints = (
{
horizontal = 1;
place = (0,16);
type = Stem;
},
{
horizontal = 1;
place = (332,46);
type = Stem;
},
{
horizontal = 1;
place = (684,16);
type = Stem;
},
{
place = (76,181);
type = Stem;
},
{
place = (561,181);
type = Stem;
}
);
layerId = "E0989092-07D5-4BE4-A82B-4E03160A36DB";
shapes = (
{
closed = 1;
nodes = (
(355,0,l),
(355,20,l),
(260,51,l),
(262,48,l),
(262,332,l),
(260,330,l),
(560,330,l),
(558,332,l),
(558,48,l),
(560,51,l),
(465,20,l),
(465,0,l),
(835,0,l),
(835,20,l),
(740,51,l),
(742,48,l),
(742,650,l),
(740,647,l),
(835,680,l),
(835,700,l),
(465,700,l),
(465,680,l),
(560,649,l),
(558,652,l),
(558,378,l),
(560,380,l),
(260,380,l),
(262,378,l),
(262,650,l),
(260,647,l),
(355,680,l),
(355,700,l),
(-15,700,l),
(-15,680,l),
(80,649,l),
(78,652,l),
(78,48,l),
(80,51,l),
(-15,20,l),
(-15,0,l)
);
}
);
width = 820;
}
);
unicode = 72;
},
{
glyphname = Hbar;
kernLeft = I;
kernRight = I;
layers = (
{
layerId = m01;
shapes = (
{
closed = 1;
nodes = (
(745,519,l),
(745,559,l),
(27,559,l),
(27,519,l)
);
},
{
ref = H;
}
);
width = 781;
},
{
hints = (
{
horizontal = 1;
place = (0,16);
type = Stem;
},
{
horizontal = 1;
place = (332,46);
type = Stem;
},
{
horizontal = 1;
place = (516,46);
type = Stem;
},
{
horizontal = 1;
place = (684,16);
type = Stem;
},
{
place = (76,181);
type = Stem;
},
{
place = (561,181);
type = Stem;
}
);
layerId = "E0989092-07D5-4BE4-A82B-4E03160A36DB";
shapes = (
{
closed = 1;
nodes = (
(819,499,l),
(819,559,l),
(0,559,l),
(0,499,l)
);
},
{
ref = H;
}
);
width = 820;
}
);
metricLeft = H;
metricRight = H;
unicode = 294;
},
{
glyphname = I;
kernLeft = I;
kernRight = I;
layers = (
{
anchors = (
{
name = ogo;
pos = (221,0);
},
{
name = top;
pos = (148,700);
}
);
background = {
shapes = (
{
closed = 0;
nodes = (
(101,50,l),
(8,20,l),
(8,0,l),
(288,0,l),
(288,20,l),
(195,50,l)
);
}
);
};
layerId = m01;
shapes = (
{
closed = 1;
nodes = (
(288,0,l),
(288,20,l),
(195,50,l),
(195,650,l),
(288,680,l),
(288,700,l),
(8,700,l),
(8,680,l),
(101,650,l),
(101,50,l),
(8,20,l),
(8,0,l)
);
}
);
width = 296;
},
{
associatedMasterId = m01;
layerId = "49E4F5FA-D472-467A-A455-43EB5AEC2C01";
name = "1. Jan. 24, 20:52";
shapes = (
{
closed = 1;
nodes = (
(214,50,l),
(214,650,l),
(119,650,l),
(119,50,l)
);
},
{
closed = 1;
nodes = (
(308,0,l),
(308,19,l),
(214,50,l),
(119,50,l),
(28,20,l),
(28,0,l)
);
},
{
closed = 1;
nodes = (
(214,650,l),
(308,681,l),
(308,700,l),
(28,700,l),
(28,680,l),
(119,650,l)
);
}
);
width = 336;
},
{
anchors = (
{
name = ogo;
pos = (287,0);
},
{
name = top;
pos = (170,700);
}
);
background = {
anchors = (
{
name = ogonek;
pos = (259,3);
},
{
name = top;
pos = (165,700);
}
);
shapes = (
{
closed = 1;
nodes = (
(355,0,l),
(355,20,l),
(262,50,l),
(262,650,l),
(355,680,l),
(355,700,l),
(-15,700,l),
(-15,680,l),
(78,650,l),
(78,50,l),
(-15,20,l),
(-15,0,l)
);
}
);
};
hints = (
{
horizontal = 1;
place = (0,16);
type = Stem;
},
{
horizontal = 1;
place = (688,12);
type = Stem;
},
{
place = (76,181);
type = Stem;
}
);
layerId = "E0989092-07D5-4BE4-A82B-4E03160A36DB";
shapes = (
{
closed = 1;
nodes = (
(355,0,l),
(355,20,l),
(262,50,l),
(262,648,l),
(355,680,l),
(355,700,l),
(-15,700,l),
(-15,680,l),
(78,650,l),
(78,50,l),
(-15,20,l),
(-15,0,l)
);
}
);
width = 340;
}
);
metricLeft = H;
metricRight = H;
unicode = 73;
},
{
glyphname = J;
kernLeft = J;
kernRight = J;
layers = (
{
anchors = (
{
name = top;
pos = (172,699);
}
);
layerId = m01;
shapes = (
{
closed = 1;
nodes = (
(59,-212,o),
(62,-210,o),
(64,-208,cs),
(158,-126,o),
(224,-20,o),
(224,50,cs),
(224,668,l),
(207,644,l),
(318,681,l),
(318,700,l),
(38,700,l),
(38,680,l),
(146,644,l),
(129,668,l),
(129,49,ls),
(129,-48,o),
(93,-141,o),
(42,-180,cs),
(40,-181,o),
(38,-183,o),
(36,-184,c),
(57,-214,l)
);
}
);
width = 326;
},
{
associatedMasterId = m01;
layerId = "EA68FA7A-9618-49FA-9D4F-F52FF8FE96E9";
name = "1. Jan. 24, 23:36";
shapes = (
{
closed = 1;
nodes = (
(224,50,l),
(224,650,l),
(129,650,l),
(129,50,l)
);
},
{
closed = 1;
nodes = (
(155,-131,o),
(224,-22,o),
(224,50,c),
(129,50,l),
(129,49,ls),
(129,-52,o),
(90,-148,o),
(36,-184,c),
(57,-214,l)
);
},
{
closed = 1;
nodes = (
(224,650,l),
(318,681,l),
(318,700,l),
(38,700,l),
(38,680,l),
(129,650,l)
);
}
);
width = 356;
},
{
anchors = (
{
name = top;
pos = (184,699);
}
);
hints = (
{
horizontal = 1;
place = (684,16);
type = Stem;
},
{
place = (57,182);
type = Stem;
}
);
layerId = "E0989092-07D5-4BE4-A82B-4E03160A36DB";
shapes = (
{
closed = 1;
nodes = (
(18,-248,o),
(25,-247,o),
(33,-246,cs),
(174,-222,o),
(273,-99,o),
(273,50,cs),
(273,652,l),
(271,649,l),
(367,680,l),
(367,700,l),
(0,700,l),
(0,680,l),
(93,649,l),
(91,652,l),
(91,49,ls),
(91,-74,o),
(67,-173,o),
(34,-190,cs),
(24,-195,o),
(11,-200,o),
(3,-202,c),
(10,-249,l)
);
}
);
width = 352;
}
);
metricRight = H;
unicode = 74;
},
{
glyphname = K;
kernLeft = K;
kernRight = K;
layers = (
{
anchors = (
{
name = com;
pos = (351,-2);
},
{
name = top;
pos = (356,700);
}
);
layerId = m01;
shapes = (
{
closed = 1;
nodes = (
(278,0,l),
(278,19,l),
(177,56,l),
(194,32,l),
(194,300,l),
(181,270,l),
(259,344,l),
(235,346,l),
(505,0,l),
(686,0,l),
(686,19,l),
(585,56,l),
(608,36,l),
(303,414,l),
(307,392,l),
(585,663,l),
(555,645,l),
(676,681,l),
(676,700,l),
(429,700,l),
(429,680,l),
(514,656,l),
(509,674,l),
(182,333,l),
(194,328,l),
(194,668,l),
(177,644,l),
(288,681,l),
(288,700,l),
(8,700,l),
(8,680,l),
(116,644,l),
(99,668,l),
(99,32,l),
(116,56,l),
(8,20,l),
(8,0,l)
);
}
);
width = 686;
},
{
anchors = (
{
name = com;
pos = (371,-2);
}
);
associatedMasterId = m01;
layerId = "CC59FA57-BAA4-40BA-AF5D-2647D80AD5E9";
name = "1. Jan. 24, 23:38";
shapes = (
{
closed = 1;
nodes = (
(706,0,l),
(706,19,l),
(622,50,l),
(337,409,l),
(247,356,l),
(525,0,l)
);
},
{
closed = 1;
nodes = (
(298,0,l),
(298,19,l),
(214,50,l),
(119,50,l),
(28,20,l),
(28,0,l)
);
},
{
closed = 1;
nodes = (
(214,50,l),
(214,650,l),
(119,650,l),
(119,50,l)
);
},
{
closed = 1;
nodes = (
(214,650,l),
(308,681,l),
(308,700,l),
(28,700,l),
(28,680,l),
(119,650,l)
);
},
{
closed = 1;
nodes = (
(592,650,l),
(517,661,l),
(179,310,l),
(209,277,l)
);
},
{
closed = 1;
nodes = (
(696,681,l),
(696,700,l),
(449,700,l),
(449,680,l),
(517,661,l),
(592,650,l)
);
}
);
width = 706;
},
{
anchors = (
{
name = com;
pos = (415,-2);
},
{
name = top;
pos = (404,700);
}
);
hints = (
{
horizontal = 1;
place = (0,16);
type = Stem;
},
{
horizontal = 1;
place = (684,16);
type = Stem;
},
{
place = (76,178);
type = Stem;
}
);
layerId = "E0989092-07D5-4BE4-A82B-4E03160A36DB";
shapes = (
{
closed = 1;
nodes = (
(341,0,l),
(341,20,l),
(252,50,l),
(254,47,l),
(254,281,l),
(252,277,l),
(274,300,l),
(271,300,l),
(498,0,l),
(749,0,l),
(749,20,l),
(695,43,l),
(698,40,l),
(381,458,l),
(377,409,l),
(626,653,l),
(622,650,l),
(739,680,l),
(739,700,l),
(456,700,l),
(456,680,l),
(546,669,l),
(546,671,l),
(252,369,l),
(254,369,l),
(254,654,l),
(252,651,l),
(351,680,l),
(351,700,l),
(-15,700,l),
(-15,680,l),
(72,652,l),
(70,655,l),
(70,45,l),
(72,48,l),
(-15,20,l),
(-15,0,l)
);
}
);
width = 699;
}
);
metricLeft = H;
metricRight = V;
unicode = 75;
},
{
glyphname = L;
kernLeft = L;
kernRight = L;
layers = (
{
anchors = (
{
name = cara;
pos = (144,700);
},
{
name = com;
pos = (301,-2);
},
{
name = top;
pos = (265,700);
}
);
layerId = m01;
shapes = (
{
closed = 1;
nodes = (
(545,0,l),
(580,197,l),
(561,204,l),
(472,34,l),
(498,50,l),
(176,50,l),
(194,32,l),
(194,668,l),
(177,644,l),
(288,681,l),
(288,700,l),
(8,700,l),
(8,680,l),
(116,644,l),
(99,668,l),
(99,32,l),
(116,56,l),
(8,20,l),
(8,0,l)
);
}
);
width = 588;
},
{
anchors = (
{
name = com;
pos = (321,-2);
}
);
associatedMasterId = m01;
layerId = "15B2B194-3F3C-42B8-A99A-468384793481";
name = "1. Jan. 24, 23:40";
shapes = (
{
closed = 1;
nodes = (
(214,50,l),
(214,650,l),
(119,650,l),
(119,50,l)
);
},
{
closed = 1;
nodes = (
(500,0,l),
(500,50,l),
(119,50,l),
(28,20,l),
(28,0,l)
);
},
{
closed = 1;
nodes = (
(565,0,l),
(600,197,l),
(581,204,l),
(500,50,l),
(500,0,l)
);
},
{
closed = 1;
nodes = (
(214,650,l),
(308,681,l),
(308,700,l),
(28,700,l),
(28,680,l),
(119,650,l)
);
}
);
width = 630;
},
{
anchors = (
{
name = cara;
pos = (164,700);
},
{
name = com;
pos = (321,-2);
},
{
name = top;
pos = (285,689);
}
);
hints = (
{
horizontal = 1;
place = (0,47);
type = Stem;
},
{
horizontal = 1;
place = (684,16);
type = Stem;
},
{
place = (76,181);
type = Stem;
}
);
layerId = "E0989092-07D5-4BE4-A82B-4E03160A36DB";
shapes = (
{
closed = 1;
nodes = (
(590,0,l),
(625,194,l),
(578,213,l),
(491,48,l),
(494,50,l),
(258,50,l),
(260,48,l),
(260,655,l),
(258,652,l),
(351,684,l),
(351,700,l),
(-15,700,l),
(-15,683,l),
(78,652,l),
(76,655,l),
(76,45,l),
(78,48,l),
(-15,20,l),
(-15,0,l)
);
}
);
width = 610;
}
);
metricLeft = H;
metricRight = H;
unicode = 76;
},
{
glyphname = Lslash;
kernLeft = L;
kernRight = L;
layers = (
{
layerId = m01;
shapes = (
{
closed = 1;
nodes = (
(319,414,l),
(299,453,l),
(17,300,l),
(37,261,l)
);
},
{
ref = L;
}
);
width = 588;
},
{
hints = (
{
horizontal = 1;
place = (0,47);
type = Stem;
},
{
horizontal = 1;
place = (684,16);
type = Stem;
},
{
place = (76,181);
type = Stem;
}
);
layerId = "E0989092-07D5-4BE4-A82B-4E03160A36DB";
shapes = (
{
closed = 1;
nodes = (
(369,426,l),
(341,479,l),
(-15,300,l),
(13,247,l)
);
},
{
pos = (2,0);
ref = L;
}
);
width = 612;
}
);
metricLeft = H;
metricRight = H;
unicode = 321;
},
{
glyphname = M;
layers = (
{
anchors = (
{
name = top;
pos = (417,667);
}
);
layerId = m01;
shapes = (
{
closed = 1;
nodes = (
(703,604,l),
(696,606,l),
(696,32,l),
(713,56,l),
(605,20,l),
(605,0,l),
(875,0,l),
(875,19,l),
(774,56,l),
(791,32,l),
(791,668,l),
(774,644,l),
(885,681,l),
(885,700,l),
(695,700,l),
(431,122,l),
(451,122,l),
(183,700,l),
(8,700,l),
(8,683,l),
(116,644,l),
(99,668,l),
(99,32,l),
(116,56,l),
(8,20,l),
(8,0,l),
(228,0,l),
(228,19,l),
(127,56,l),
(144,32,l),
(144,580,l),
(136,578,l),
(417,-26,l)
);
}
);
width = 893;
},
{
associatedMasterId = m01;
layerId = "39CD48C5-5A51-4231-9B38-8D14C79DB35E";
name = "1. Jan. 24, 23:44";
shapes = (
{
closed = 1;
nodes = (
(767,700,l),
(715,700,l),
(458,138,l),
(195,700,l),
(100,700,l),
(437,-26,l)
);
},
{
closed = 1;
nodes = (
(248,0,l),
(248,19,l),
(164,50,l),
(119,50,l),
(28,20,l),
(28,0,l)
);
},
{
closed = 1;
nodes = (
(164,50,l),
(164,650,l),
(119,650,l),
(119,50,l)
);
},
{
closed = 1;
nodes = (
(164,650,l),
(164,700,l),
(28,700,l),
(28,683,l),
(119,650,l)
);
},
{
closed = 1;
nodes = (
(895,0,l),
(895,19,l),
(811,50,l),
(716,50,l),
(625,20,l),
(625,0,l)
);
},
{
closed = 1;
nodes = (
(811,50,l),
(811,650,l),
(716,650,l),
(716,50,l)
);
},
{
closed = 1;
nodes = (
(811,650,l),
(905,681,l),
(905,700,l),
(717,700,l),
(716,650,l)
);
}
);
width = 926;
},
{
anchors = (
{
name = top;
pos = (497,667);
}
);
background = {
shapes = (
{
closed = 1;
nodes = (
(656,0,l),
(656,653,l),
(654,650,l),
(749,681,l),
(749,701,l),
(513,701,l),
(513,681,l),
(608,650,l),
(606,653,l),
(606,292,l),
(607,309,l),
(279,700,l),
(-15,700,l),
(-15,680,l),
(80,649,l),
(78,652,l),
(78,48,l),
(80,51,l),
(-15,20,l),
(-15,0,l),
(221,0,l),
(221,20,l),
(126,51,l),
(128,48,l),
(128,595,l),
(127,595,l),
(640,-16,l)
);
},
{
closed = 1;
nodes = (
(989,0,l),
(989,20,l),
(896,50,l),
(896,648,l),
(989,680,l),
(989,700,l),
(619,700,l),
(619,680,l),
(712,650,l),
(712,50,l),
(619,20,l),
(619,0,l)
);
}
);
};
hints = (
{
horizontal = 1;
place = (0,16);
type = Stem;
},
{
horizontal = 1;
place = (686,14);
type = Stem;
},
{
place = (76,70);
type = Stem;
},
{
place = (673,181);
type = Stem;
},
{
horizontal = 1;
place = (684,16);
type = Stem;
}
);
layerId = "E0989092-07D5-4BE4-A82B-4E03160A36DB";
shapes = (
{
closed = 1;
nodes = (
(713,590,l),
(712,590,l),
(712,48,l),
(714,51,l),
(619,20,l),
(619,0,l),
(989,0,l),
(989,20,l),
(894,51,l),
(896,48,l),
(896,650,l),
(894,647,l),
(989,680,l),
(989,700,l),
(712,700,l),
(485,246,l),
(490,246,l),
(282,700,l),
(-15,700,l),
(-15,680,l),
(80,649,l),
(78,652,l),
(78,49,l),
(80,52,l),
(-15,20,l),
(-15,0,l),
(221,0,l),
(221,20,l),
(126,51,l),
(128,48,l),
(128,596,l),
(127,596,l),
(409,-16,l)
);
}
);
width = 974;
}
);
metricLeft = H;
metricRight = H;
unicode = 77;
},
{
glyphname = N;
kernLeft = N;
kernRight = N;
layers = (
{
anchors = (
{
name = com;
pos = (401,-2);
},
{
name = top;
pos = (398,700);
}
);
background = {
anchors = (
{
name = ogonek;
pos = (242,3);
}
);
};
layerId = m01;
shapes = (
{
closed = 1;
nodes = (
(679,1,l),
(679,668,l),
(662,644,l),
(773,681,l),
(773,700,l),
(543,700,l),
(543,680,l),
(651,644,l),
(634,668,l),
(634,163,l),
(644,167,l),
(196,700,l),
(8,700,l),
(8,680,l),
(116,644,l),
(99,668,l),
(99,32,l),
(116,56,l),
(8,20,l),
(8,0,l),
(238,0,l),
(238,19,l),
(127,56,l),
(144,32,l),
(144,625,l),
(132,621,l),
(679,-25,l)
);
}
);
width = 781;
},
{
anchors = (
{
name = com;
pos = (401,-2);
},
{
name = top;
pos = (398,700);
}
);
associatedMasterId = m01;
layerId = "E8A2BD06-0712-47D5-8A4F-C996E068F001";
name = "1. Jan. 24, 23:45";
shapes = (
{
closed = 1;
nodes = (
(679,127,l),
(198,700,l),
(65,700,l),
(679,-25,l)
);
},
{
closed = 1;
nodes = (
(238,0,l),
(238,19,l),
(144,50,l),
(99,50,l),
(8,20,l),
(8,0,l)
);
},
{
closed = 1;
nodes = (
(144,50,l),
(144,650,l),
(99,650,l),
(99,50,l)
);
},
{
closed = 1;
nodes = (
(144,650,l),
(144,700,l),
(8,700,l),
(8,680,l),
(99,650,l)
);
},
{
closed = 1;
nodes = (
(679,120,l),
(679,650,l),
(634,650,l),
(634,120,l)
);
},
{
closed = 1;
nodes = (
(679,650,l),
(773,681,l),
(773,700,l),
(543,700,l),
(543,680,l),
(634,650,l)
);
}
);
width = 781;
},
{
anchors = (
{
name = com;
pos = (390,-2);
},
{
name = top;
pos = (387,700);
}
);
background = {
shapes = (
{
closed = 1;
nodes = (
(663,6,l),
(663,668,l),
(646,644,l),
(757,681,l),
(757,700,l),
(527,700,l),
(527,680,l),
(635,644,l),
(618,668,l),
(618,163,l),
(717,167,l),
(269,700,l),
(-8,700,l),
(-8,680,l),
(100,644,l),
(83,668,l),
(83,32,l),
(100,56,l),
(-8,20,l),
(-8,0,l),
(222,0,l),
(222,19,l),
(111,56,l),
(128,32,l),
(128,625,l),
(85,621,l),
(632,-25,l)
);
}
);
};
hints = (
{
horizontal = 1;
place = (0,16);
type = Stem;
},
{
horizontal = 1;
place = (683,17);
type = Stem;
},
{
place = (87,87);
type = Stem;
},
{
place = (567,87);
type = Stem;
}
);
layerId = "E0989092-07D5-4BE4-A82B-4E03160A36DB";
shapes = (
{
closed = 1;
nodes = (
(656,0,l),
(656,653,l),
(654,650,l),
(749,681,l),
(749,701,l),
(513,701,l),
(513,681,l),
(608,650,l),
(606,653,l),
(606,292,l),
(607,313,l),
(284,700,l),
(-15,700,l),
(-15,680,l),
(80,649,l),
(78,652,l),
(78,48,l),
(80,51,l),
(-15,20,l),
(-15,0,l),
(221,0,l),
(221,20,l),
(126,51,l),
(128,48,l),
(128,595,l),
(127,595,l),
(640,-16,l)
);
}
);
width = 734;
}
);
metricLeft = H;
metricRight = H;
unicode = 78;
},
{
glyphname = Eng;
layers = (
{
layerId = m01;
shapes = (
{
closed = 1;
nodes = (
(508,115,ls),
(508,54,o),
(483,11,o),
(447,11,cs),
(426,11,o),
(398,32,o),
(380,62,c),
(316,21,l),
(340,1,o),
(387,-14,o),
(429,-14,cs),
(528,-14,o),
(598,54,o),
(598,151,cs),
(598,505,ls),
(598,624,o),
(525,709,o),
(393,709,cs),
(309,709,o),
(242,664,o),
(180,599,c),
(189,590,l),
(189,700,l),
(8,700,l),
(8,680,l),
(116,644,l),
(99,668,l),
(99,32,l),
(116,56,l),
(8,20,l),
(8,0,l),
(263,0,l),
(263,19,l),
(172,57,l),
(189,32,l),
(189,579,l),
(180,551,l),
(235,614,o),
(289,658,o),
(362,658,cs),
(459,658,o),
(508,583,o),
(508,477,cs)
);
}
);
width = 643;
},
{
associatedMasterId = m01;
layerId = "0F2D05D5-6E5C-46B9-8B3C-5DD271D069A4";
name = "1. Jan. 24, 21:14";
shapes = (
{
closed = 1;
nodes = (
(223,700,l),
(65,700,l)
);
},
{
closed = 1;
nodes = (
(263,0,l),
(263,19,l),
(189,50,l),
(99,50,l),
(8,20,l),
(8,0,l)
);
},
{
closed = 1;
nodes = (
(189,50,l),
(189,650,l),
(99,650,l),
(99,50,l)
);
},
{
closed = 1;
nodes = (
(189,650,l),
(189,700,l),
(8,700,l),
(8,680,l),
(99,650,l)
);
},
{
closed = 1;
nodes = (
(170,539,l),
(229,609,o),
(285,658,o),
(362,658,cs),
(459,658,o),
(508,583,o),
(508,477,cs),
(508,211,l),
(598,211,l),
(598,505,ls),
(598,624,o),
(525,709,o),
(393,709,cs),
(304,709,o),
(235,659,o),
(170,588,c)
);
},
{
closed = 1;
nodes = (
(508,211,l),
(508,115,l),
(508,54,o),
(483,11,o),
(447,11,cs),
(426,11,o),
(398,32,o),
(380,62,c),
(316,21,l),
(340,1,o),
(387,-14,o),
(429,-14,cs),
(528,-14,o),
(598,54,o),
(598,151,cs),
(598,211,l)
);
}
);
width = 642;
},
{
hints = (
{
horizontal = 1;
place = (-3,14);
type = Stem;
},
{
horizontal = 1;
place = (655,57);
type = Stem;
},
{
place = (156,176);
type = Stem;
},
{
place = (565,176);
type = Stem;
},
{
horizontal = 1;
place = (-17,32);
type = Stem;
},
{
horizontal = 1;
place = (670,33);
type = Stem;
}
);
layerId = "E0989092-07D5-4BE4-A82B-4E03160A36DB";
shapes = (
{
closed = 1;
nodes = (
(485,115,ls),
(485,51,o),
(469,19,o),
(467,15,c),
(466,18,o),
(452,34,o),
(420,94,c),
(306,19,l),
(320,6,o),
(392,-17,o),
(449,-17,cs),
(570,-17,o),
(661,51,o),
(661,151,cs),
(661,505,ls),
(661,632,o),
(567,712,o),
(413,712,cs),
(346,712,o),
(291,694,o),
(250,671,c),
(251,670,l),
(244,703,l),
(18,703,l),
(18,670,l),
(78,640,l),
(76,643,l),
(76,41,l),
(78,44,l),
(-15,13,l),
(-15,-3,l),
(293,-3,l),
(293,11,l),
(250,41,l),
(252,38,l),
(252,574,l),
(250,570,l),
(309,634,o),
(341,655,o),
(382,655,cs),
(444,655,o),
(485,591,o),
(485,477,cs)
);
}
);
width = 681;
}
);
metricLeft = N;
metricRight = O;
unicode = 330;
},
{
glyphname = O;
kernLeft = O;
kernRight = O;
layers = (
{
anchors = (
{
name = top;
pos = (384,700);
}
);
layerId = m01;
shapes = (
{
closed = 1;
nodes = (
(584,-16,o),
(725,139,o),
(725,357,cs),
(725,567,o),
(584,716,o),
(384,716,cs),
(185,716,o),
(45,563,o),
(45,347,cs),
(45,134,o),
(185,-16,o),
(384,-16,cs)
);
},
{
closed = 1;
nodes = (
(244,25,o),
(154,164,o),
(154,415,cs),
(154,582,o),
(228,675,o),
(361,675,cs),
(525,675,o),
(616,536,o),
(616,286,cs),
(616,118,o),
(541,25,o),
(407,25,cs)
);
}
);
width = 770;
},
{
anchors = (
{
name = top;
pos = (402,700);
}
);
hints = (
{
horizontal = 1;
place = (-18,44);
type = Stem;
},
{
horizontal = 1;
place = (673,45);
type = Stem;
},
{
place = (-8,195);
type = Stem;
},
{
place = (563,195);
type = Stem;
}
);
layerId = "E0989092-07D5-4BE4-A82B-4E03160A36DB";
shapes = (
{
closed = 1;
nodes = (
(627,-16,o),
(786,139,o),
(786,357,cs),
(786,567,o),
(627,716,o),
(402,716,cs),
(178,716,o),
(20,563,o),
(20,347,cs),
(20,134,o),
(178,-16,o),
(402,-16,cs)
);
},
{
closed = 1;
nodes = (
(290,25,o),
(215,164,o),
(215,415,cs),
(215,582,o),
(274,675,o),
(379,675,cs),
(515,675,o),
(591,536,o),
(591,286,cs),
(591,118,o),
(532,25,o),
(425,25,cs)
);
}
);
width = 806;
}
);
unicode = 79;
},
{
glyphname = Oslash;
kernLeft = O;
kernRight = O;
layers = (
{
layerId = m01;
shapes = (
{
closed = 1;
nodes = (
(724,726,l),
(693,753,l),
(45,-27,l),
(76,-54,l)
);
},
{
pos = (10,0);
ref = O;
}
);
width = 780;
},
{
hints = (
{
horizontal = 1;
place = (-18,44);
type = Stem;
},
{
horizontal = 1;
place = (673,45);
type = Stem;
},
{
place = (-8,195);
type = Stem;
},
{
place = (563,195);
type = Stem;
}
);
layerId = "E0989092-07D5-4BE4-A82B-4E03160A36DB";
shapes = (
{
closed = 1;
nodes = (
(754,716,l),
(703,763,l),
(55,-17,l),
(106,-64,l)
);
},
{
ref = O;
}
);
width = 806;
}
);
metricLeft = O;
metricRight = O;
unicode = 216;
},
{
glyphname = OE;
kernLeft = O;
kernRight = E;
layers = (
{
layerId = m01;
shapes = (
{
closed = 1;
nodes = (
(488,-15,o),
(577,27,o),
(638,99,c),
(630,108,l),
(630,0,l),
(1076,0,l),
(1111,197,l),
(1092,204,l),
(1003,34,l),
(1029,50,l),
(707,50,l),
(725,32,l),
(725,359,l),
(707,341,l),
(919,341,l),
(895,358,l),
(932,245,l),
(951,245,l),
(951,475,l),
(931,475,l),
(896,364,l),
(919,381,l),
(707,381,l),
(725,363,l),
(725,668,l),
(707,650,l),
(1034,650,l),
(1011,667,l),
(1052,520,l),
(1073,520,l),
(1073,700,l),
(630,700,l),
(630,596,l),
(638,605,l),
(578,675,o),
(488,715,o),
(384,715,cs),
(185,715,o),
(45,563,o),
(45,347,cs),
(45,135,o),
(185,-15,o),
(384,-15,cs)
);
},
{
closed = 1;
nodes = (
(154,583,o),
(228,676,o),
(361,676,cs),
(525,676,o),
(616,537,o),
(616,286,cs),
(616,117,o),
(541,23,o),
(407,23,cs),
(244,23,o),
(154,163,o),
(154,415,cs)
);
}
);
width = 1119;
},
{
associatedMasterId = m01;
layerId = "E029D7F6-61DA-46A0-ABD4-00802109ADA1";
name = "2. Jan. 24, 01:04";
shapes = (
{
closed = 1;
nodes = (
(574,-15,o),
(715,139,o),
(715,357,cs),
(715,567,o),
(574,715,o),
(374,715,cs),
(175,715,o),
(35,563,o),
(35,347,cs),
(35,135,o),
(175,-15,o),
(374,-15,cs)
);
},
{
closed = 1;
nodes = (
(234,23,o),
(144,163,o),
(144,415,cs),
(144,583,o),
(218,676,o),
(351,676,cs),
(515,676,o),
(606,537,o),
(606,286,cs),
(606,117,o),
(531,23,o),
(397,23,cs)
);
},
{
closed = 1;
nodes = (
(1001,0,l),
(1001,50,l),
(620,50,l),
(620,0,l)
);
},
{
closed = 1;
nodes = (
(715,50,l),
(715,650,l),
(620,650,l),
(620,50,l)
);
},
{
closed = 1;
nodes = (
(1066,0,l),
(1101,197,l),
(1082,204,l),
(1001,50,l),
(1001,0,l)
);
},
{
closed = 1;
nodes = (
(941,341,l),
(941,381,l),
(685,381,l),
(685,341,l)
);
},
{
closed = 1;
nodes = (
(941,245,l),
(941,475,l),
(921,475,l),
(891,384,l),
(891,339,l),
(922,245,l)
);
},
{
closed = 1;
nodes = (
(1006,650,l),
(1006,700,l),
(620,700,l),
(620,650,l)
);
},
{
closed = 1;
nodes = (
(1063,520,l),
(1063,700,l),
(1006,700,l),
(1006,650,l),
(1042,520,l)
);
}
);
width = 1146;
},
{
hints = (
{
horizontal = 1;
place = (-18,44);
type = Stem;
},
{
horizontal = 1;
place = (338,46);
type = Stem;
},
{
horizontal = 1;
place = (647,56);
type = Stem;
},
{
place = (-8,195);
type = Stem;
},
{
place = (577,148);
type = Stem;
},
{
place = (915,44);
type = Stem;
},
{
place = (1050,56);
type = Stem;
},
{
horizontal = 1;
place = (-3,56);
type = Stem;
},
{
place = (563,162);
type = Stem;
},
{
place = (914,45);
type = Stem;
},
{
horizontal = 1;
place = (517,186);
type = Stem;
},
{
horizontal = 1;
place = (673,45);
type = Stem;
}
);
layerId = "E0989092-07D5-4BE4-A82B-4E03160A36DB";
shapes = (
{
closed = 1;
nodes = (
(476,-18,o),
(547,-3,o),
(606,26,c),
(605,27,l),
(605,-3,l),
(1136,-3,l),
(1171,190,l),
(1132,224,l),
(1042,51,l),
(1045,53,l),
(751,53,l),
(753,51,l),
(753,340,l),
(751,338,l),
(913,338,l),
(910,340,l),
(943,242,l),
(987,242,l),
(987,478,l),
(942,478,l),
(909,382,l),
(912,384,l),
(751,384,l),
(753,382,l),
(753,649,l),
(751,647,l),
(1045,647,l),
(1042,649,l),
(1078,517,l),
(1134,517,l),
(1134,703,l),
(605,703,l),
(605,674,l),
(606,675,l),
(547,704,o),
(477,718,o),
(402,718,cs),
(185,718,o),
(20,573,o),
(20,347,cs),
(20,127,o),
(185,-18,o),
(402,-18,cs)
);
},
{
closed = 1;
nodes = (
(215,593,o),
(279,673,o),
(379,673,cs),
(508,673,o),
(591,545,o),
(591,286,cs),
(591,107,o),
(526,26,o),
(425,26,cs),
(297,26,o),
(215,155,o),
(215,415,cs)
);
}
);
width = 1156;
}
);
metricLeft = O;
metricRight = E;
unicode = 338;
},
{
glyphname = P;
layers = (
{
anchors = (
{
name = top;
pos = (268,700);
}
);
layerId = m01;
shapes = (
{
closed = 1;
nodes = (
(298,0,l),
(298,20,l),
(177,55,l),
(194,32,l),
(194,318,l),
(176,300,l),
(248,300,ls),
(419,300,o),
(526,388,o),
(526,527,cs),
(526,628,o),
(432,700,o),
(298,700,cs),
(8,700,l),
(8,680,l),
(116,644,l),
(99,668,l),
(99,32,l),
(116,56,l),
(8,20,l),
(8,0,l)
);
},
{
closed = 1;
nodes = (
(194,668,l),
(176,650,l),
(268,650,ls),
(355,650,o),
(421,586,o),
(421,495,cs),
(421,400,o),
(363,340,o),
(278,340,cs),
(176,340,l),
(194,322,l)
);
}
);
width = 571;
},
{
associatedMasterId = m01;
layerId = "F87AD770-9788-474C-A1D1-0EC9B953AD89";
name = "1. Jan. 24, 23:50";
shapes = (
{
closed = 1;
nodes = (
(439,300,o),
(546,388,o),
(546,527,cs),
(546,628,o),
(452,700,o),
(318,700,c),
(288,650,l),
(375,650,o),
(441,586,o),
(441,495,cs),
(441,400,o),
(383,340,o),
(298,340,c),
(268,300,l)
);
},
{
closed = 1;
nodes = (
(318,0,l),
(318,20,l),
(214,50,l),
(119,50,l),
(28,20,l),
(28,0,l)
);
},
{
closed = 1;
nodes = (
(214,50,l),
(214,650,l),
(119,650,l),
(119,50,l)
);
},
{
closed = 1;
nodes = (
(268,300,l),
(298,340,l),
(184,340,l),
(184,300,l)
);
},
{
closed = 1;
nodes = (
(288,650,l),
(318,700,l),
(28,700,l),
(28,680,l),
(119,650,l)
);
}
);
width = 580;
},
{
anchors = (
{
name = top;
pos = (288,700);
}
);
background = {
shapes = (
{
closed = 1;
nodes = (
(355,0,l),
(355,20,l),
(262,50,l),
(262,648,l),
(355,680,l),
(355,700,l),
(-15,700,l),
(-15,680,l),
(78,650,l),
(78,50,l),
(-15,20,l),
(-15,0,l)
);
}
);
};
hints = (
{
horizontal = 1;
place = (0,17);
type = Stem;
},
{
horizontal = 1;
place = (303,40);
type = Stem;
},
{
horizontal = 1;
place = (653,47);
type = Stem;
},
{
place = (76,181);
type = Stem;
},
{
place = (398,191);
type = Stem;
},
{
horizontal = 1;
place = (683,17);
type = Stem;
}
);
layerId = "E0989092-07D5-4BE4-A82B-4E03160A36DB";
shapes = (
{
closed = 1;
nodes = (
(355,0,l),
(355,20,l),
(260,51,l),
(262,48,l),
(262,285,l),
(260,283,l),
(288,283,ls),
(465,283,o),
(591,380,o),
(591,517,cs),
(591,624,o),
(481,700,o),
(325,700,cs),
(-15,700,l),
(-15,680,l),
(80,649,l),
(78,652,l),
(78,48,l),
(80,51,l),
(-15,20,l),
(-15,0,l)
);
},
{
closed = 1;
nodes = (
(262,655,l),
(260,653,l),
(288,653,ls),
(354,653,o),
(400,583,o),
(400,485,cs),
(400,390,o),
(358,323,o),
(298,323,cs),
(260,323,l),
(262,321,l)
);
}
);
width = 611;
}
);
metricLeft = H;
metricRight = O;
unicode = 80;
},
{
glyphname = Thorn;
layers = (
{
layerId = m01;
shapes = (
{
closed = 1;
nodes = (
(288,0,l),
(288,19,l),
(177,56,l),
(192,32,l),
(192,173,l),
(176,155,l),
(238,155,ls),
(409,155,o),
(516,243,o),
(516,382,cs),
(516,483,o),
(422,553,o),
(288,553,cs),
(176,553,l),
(192,535,l),
(192,668,l),
(177,644,l),
(288,681,l),
(288,700,l),
(8,700,l),
(8,680,l),
(116,644,l),
(99,668,l),
(99,32,l),
(116,56,l),
(8,20,l),
(8,0,l)
);
},
{
closed = 1;
nodes = (
(192,526,l),
(176,508,l),
(258,508,ls),
(345,508,o),
(421,441,o),
(421,350,cs),
(421,255,o),
(353,195,o),
(268,195,cs),
(176,195,l),
(192,177,l)
);
}
);
width = 524;
},
{
associatedMasterId = m01;
layerId = "E0FA7AEA-EC98-4066-82B2-3166E7021F5A";
name = "1. Jan. 24, 23:51";
shapes = (
{
closed = 1;
nodes = (
(439,155,o),
(546,243,o),
(546,382,cs),
(546,483,o),
(452,555,o),
(318,553,c),
(288,508,l),
(375,505,o),
(441,441,o),
(441,350,cs),
(441,255,o),
(383,195,o),
(298,195,c),
(268,155,l)
);
},
{
closed = 1;
nodes = (
(318,0,l),
(318,19,l),
(224,50,l),
(129,50,l),
(38,20,l),
(38,0,l)
);
},
{
closed = 1;
nodes = (
(268,155,l),
(298,195,l),
(184,195,l),
(184,155,l)
);
},
{
closed = 1;
nodes = (
(224,50,l),
(224,650,l),
(129,650,l),
(129,50,l)
);
},
{
closed = 1;
nodes = (
(288,508,l),
(318,553,l),
(184,553,l),
(184,508,l)
);
},
{
closed = 1;
nodes = (
(224,650,l),
(318,681,l),
(318,700,l),
(38,700,l),
(38,680,l),
(129,650,l)
);
}
);
width = 600;
},
{
hints = (
{
horizontal = 1;
place = (-3,15);
type = Stem;
},
{
horizontal = 1;
place = (152,46);
type = Stem;
},
{
horizontal = 1;
place = (505,51);
type = Stem;
},
{
horizontal = 1;
place = (688,15);
type = Stem;
},
{
place = (86,176);
type = Stem;
},
{
place = (391,198);
type = Stem;
}
);
layerId = "E0989092-07D5-4BE4-A82B-4E03160A36DB";
shapes = (
{
closed = 1;
nodes = (
(351,-3,l),
(351,12,l),
(250,49,l),
(252,46,l),
(252,154,l),
(250,152,l),
(260,152,ls),
(469,152,o),
(579,231,o),
(579,382,cs),
(579,488,o),
(485,556,o),
(311,556,cs),
(250,556,l),
(252,554,l),
(252,654,l),
(250,651,l),
(351,688,l),
(351,703,l),
(-15,703,l),
(-15,687,l),
(78,653,l),
(76,656,l),
(76,44,l),
(78,47,l),
(-15,13,l),
(-15,-3,l)
);
},
{
closed = 1;
nodes = (
(252,507,l),
(250,505,l),
(275,505,ls),
(350,505,o),
(381,469,o),
(381,350,cs),
(381,228,o),
(365,198,o),
(291,198,cs),
(250,198,l),
(252,196,l)
);
}
);
width = 564;
}
);
metricLeft = H;
metricRight = H;
unicode = 222;
},
{
glyphname = Q;
kernLeft = O;
kernRight = O;
layers = (
{
background = {
shapes = (
{
closed = 1;
nodes = (
(584,-15,o),
(725,139,o),
(725,357,cs),
(725,567,o),
(584,715,o),
(384,715,cs),
(185,715,o),
(45,563,o),
(45,347,cs),
(45,135,o),
(185,-15,o),
(384,-15,cs)
);
},
{
closed = 1;
nodes = (
(244,23,o),
(154,163,o),
(154,415,cs),
(154,583,o),
(228,676,o),
(361,676,cs),
(525,676,o),
(616,537,o),
(616,286,cs),
(616,117,o),
(541,23,o),
(407,23,cs)
);
}
);
};
layerId = m01;
shapes = (
{
closed = 1;
nodes = (
(725,-129,l),
(725,-110,l),
(670,-92,ls),
(639,-82,o),
(609,-67,o),
(597,-56,cs),
(499,31,l),
(501,9,l),
(632,45,o),
(725,189,o),
(725,357,cs),
(725,567,o),
(584,716,o),
(384,716,cs),
(185,716,o),
(45,563,o),
(45,347,cs),
(45,128,o),
(192,-22,o),
(401,-15,c),
(373,-4,l),
(544,-129,l)
);
},
{
closed = 1;
nodes = (
(244,23,o),
(154,163,o),
(154,415,cs),
(154,583,o),
(228,675,o),
(361,675,cs),
(525,675,o),
(616,537,o),
(616,286,cs),
(616,117,o),
(541,23,o),
(407,23,cs)
);
}
);
width = 770;
},
{
associatedMasterId = m01;
background = {
shapes = (
{
closed = 1;
nodes = (
(584,715,o),
(725,567,o),
(725,357,cs),
(725,139,o),
(584,-15,o),
(384,-15,cs),
(185,-15,o),
(45,135,o),
(45,347,cs),
(45,563,o),
(185,715,o),
(384,715,cs)
);
},
{
closed = 1;
nodes = (
(228,676,o),
(154,583,o),
(154,415,cs),
(154,163,o),
(244,23,o),
(407,23,cs),
(541,23,o),
(616,117,o),
(616,286,cs),
(616,537,o),
(525,676,o),
(361,676,cs)
);
}
);
};
layerId = "CD80C9CB-C6C2-4A56-9AD6-E0D283AD5534";
name = "2. Jan. 24, 00:43";
shapes = (
{
closed = 1;
nodes = (
(574,-15,o),
(715,139,o),
(715,357,cs),
(715,567,o),
(574,715,o),
(374,715,cs),
(175,715,o),
(35,563,o),
(35,347,cs),
(35,135,o),
(175,-15,o),
(374,-15,cs)
);
},
{
closed = 1;
nodes = (
(715,-140,l),
(715,-121,l),
(660,-103,ls),
(631,-93,o),
(609,-86,o),
(587,-67,cs),
(493,16,l),
(362,-4,l),
(534,-140,l)
);
},
{
closed = 1;
nodes = (
(234,23,o),
(144,163,o),
(144,415,cs),
(144,583,o),
(218,676,o),
(351,676,cs),
(515,676,o),
(606,537,o),
(606,286,cs),
(606,117,o),
(531,23,o),
(397,23,cs)
);
}
);
width = 750;
},
{
background = {
shapes = (
{
closed = 1;
nodes = (
(627,-16,o),
(786,139,o),
(786,357,cs),
(786,567,o),
(627,716,o),
(402,716,cs),
(178,716,o),
(20,563,o),
(20,347,cs),
(20,134,o),
(178,-16,o),
(402,-16,cs)
);
},
{
closed = 1;
nodes = (
(290,25,o),
(215,164,o),
(215,415,cs),
(215,582,o),
(274,675,o),
(379,675,cs),
(515,675,o),
(591,536,o),
(591,286,cs),
(591,118,o),
(532,25,o),
(425,25,cs)
);
}
);
};
hints = (
{
horizontal = 1;
place = (-143,15);
type = Stem;
},
{
horizontal = 1;
place = (673,45);
type = Stem;
},
{
place = (-8,195);
type = Stem;
},
{
place = (563,195);
type = Stem;
}
);
layerId = "E0989092-07D5-4BE4-A82B-4E03160A36DB";
shapes = (
{
closed = 1;
nodes = (
(786,-143,l),
(786,-123,l),
(701,-100,ls),
(687,-96,o),
(663,-81,o),
(643,-64,cs),
(554,15,l),
(555,13,l),
(690,55,o),
(786,197,o),
(786,357,cs),
(786,568,o),
(627,716,o),
(402,716,cs),
(178,716,o),
(20,564,o),
(20,347,cs),
(20,149,o),
(168,0,o),
(378,-11,c),
(374,-10,l),
(535,-143,l)
);
},
{
closed = 1;
nodes = (
(290,25,o),
(215,165,o),
(215,415,cs),
(215,581,o),
(274,675,o),
(379,675,cs),
(515,675,o),
(591,535,o),
(591,286,cs),
(591,119,o),
(532,25,o),
(425,25,cs)
);
}
);
width = 806;
}
);
metricLeft = O;
metricRight = O;
unicode = 81;
},
{
glyphname = R;
kernLeft = R;
kernRight = R;
layers = (
{
anchors = (
{
name = com;
pos = (331,-2);
},
{
name = top;
pos = (274,700);
}
);
layerId = m01;
shapes = (
{
closed = 1;
nodes = (
(298,0,l),
(298,20,l),
(177,55,l),
(194,32,l),
(194,318,l),
(176,300,l),
(315,300,l),
(288,316,l),
(489,0,l),
(661,0,l),
(661,19,l),
(617,35,ls),
(585,47,o),
(568,63,o),
(549,91,cs),
(381,335,l),
(379,316,l),
(475,347,o),
(536,426,o),
(536,527,cs),
(536,628,o),
(442,700,o),
(308,700,cs),
(8,700,l),
(8,680,l),
(116,644,l),
(99,668,l),
(99,32,l),
(116,56,l),
(8,20,l),
(8,0,l)
);
},
{
closed = 1;
nodes = (
(194,668,l),
(176,650,l),
(278,650,ls),
(365,650,o),
(426,586,o),
(426,495,cs),
(426,404,o),
(377,340,o),
(308,340,cs),
(176,340,l),
(194,322,l)
);
}
);
width = 661;
},
{
anchors = (
{
name = com;
pos = (351,-2);
},
{
name = top;
pos = (294,700);
}
);
associatedMasterId = m01;
layerId = "8EE325DB-C90E-4465-8EBF-5D3FDAB11B02";
name = "1. Jan. 24, 23:51";
shapes = (
{
closed = 1;
nodes = (
(681,0,l),
(681,19,l),
(632,35,ls),
(600,45,o),
(583,63,o),
(564,91,cs),
(400,336,l),
(308,316,l),
(509,0,l)
);
},
{
closed = 1;
nodes = (
(318,0,l),
(318,20,l),
(214,50,l),
(119,50,l),
(28,20,l),
(28,0,l)
);
},
{
closed = 1;
nodes = (
(214,50,l),
(214,650,l),
(119,650,l),
(119,50,l)
);
},
{
closed = 1;
nodes = (
(298,300,l),
(328,340,l),
(184,340,l),
(184,300,l)
);
},
{
closed = 1;
nodes = (
(298,650,l),
(328,700,l),
(28,700,l),
(28,680,l),
(119,650,l)
);
},
{
closed = 1;
nodes = (
(449,300,o),
(556,394,o),
(556,527,cs),
(556,628,o),
(462,700,o),
(328,700,c),
(298,650,l),
(385,650,o),
(446,586,o),
(446,495,cs),
(446,404,o),
(397,340,o),
(328,340,c),
(298,300,l)
);
}
);
width = 650;
},
{
anchors = (
{
name = com;
pos = (398,-2);
},
{
name = top;
pos = (291,700);
}
);
background = {
shapes = (
{
closed = 1;
nodes = (
(355,0,l),
(355,20,l),
(260,51,l),
(262,48,l),
(262,305,l),
(260,303,l),
(308,303,ls),
(485,303,o),
(611,396,o),
(611,527,cs),
(611,628,o),
(501,700,o),
(345,700,cs),
(-15,700,l),
(-15,680,l),
(80,649,l),
(78,652,l),
(78,48,l),
(80,51,l),
(-15,20,l),
(-15,0,l)
);
},
{
closed = 1;
nodes = (
(262,655,l),
(260,653,l),
(308,653,ls),
(374,653,o),
(420,588,o),
(420,495,cs),
(420,406,o),
(378,343,o),
(318,343,cs),
(260,343,l),
(262,341,l)
);
}
);
};
hints = (
{
horizontal = 1;
place = (0,17);
type = Stem;
},
{
horizontal = 1;
place = (297,46);
type = Stem;
},
{
horizontal = 1;
place = (653,47);
type = Stem;
},
{
place = (76,181);
type = Stem;
},
{
horizontal = 1;
place = (0,16);
type = Stem;
},
{
place = (403,196);
type = Stem;
},
{
horizontal = 1;
place = (687,13);
type = Stem;
}
);
layerId = "E0989092-07D5-4BE4-A82B-4E03160A36DB";
shapes = (
{
closed = 1;
nodes = (
(355,0,l),
(355,20,l),
(260,51,l),
(262,48,l),
(262,313,l),
(250,303,l),
(289,303,l),
(276,312,l),
(479,0,l),
(732,0,l),
(732,16,l),
(706,23,ls),
(692,27,o),
(666,56,o),
(641,93,cs),
(465,352,l),
(457,331,l),
(547,357,o),
(611,438,o),
(611,527,cs),
(611,628,o),
(497,700,o),
(335,700,cs),
(-15,700,l),
(-15,680,l),
(80,649,l),
(78,652,l),
(78,48,l),
(80,51,l),
(-15,20,l),
(-15,0,l)
);
},
{
closed = 1;
nodes = (
(262,655,l),
(260,650,l),
(314,650,ls),
(376,650,o),
(420,586,o),
(420,495,cs),
(420,407,o),
(379,344,o),
(321,344,cs),
(260,344,l),
(262,342,l)
);
}
);
width = 682;
}
);
metricLeft = H;
metricRight = V;
unicode = 82;
},
{
glyphname = S;
kernLeft = S;
kernRight = S;
layers = (
{
anchors = (
{
name = ced;
pos = (264,0);
},
{
name = com;
pos = (264,-2);
},
{
name = top;
pos = (266,700);
}
);
layerId = m01;
shapes = (
{
closed = 1;
nodes = (
(396,-16,o),
(489,66,o),
(489,183,cs),
(489,273,o),
(392,338,o),
(300,401,cs),
(217,458,o),
(137,512,o),
(137,574,cs),
(137,637,o),
(190,682,o),
(265,682,cs),
(333,682,o),
(399,614,o),
(424,518,c),
(452,518,l),
(452,662,l),
(419,694,o),
(342,716,o),
(265,716,cs),
(136,716,o),
(45,639,o),
(45,529,cs),
(45,442,o),
(151,370,o),
(249,301,cs),
(332,243,o),
(411,190,o),
(411,138,cs),
(411,68,o),
(351,18,o),
(265,18,cs),
(187,18,o),
(116,92,o),
(92,197,c),
(63,197,l),
(50,44,l),
(105,9,o),
(194,-16,o),
(265,-16,cs)
);
}
);
width = 534;
},
{
anchors = (
{
name = ced;
pos = (271,0);
},
{
name = com;
pos = (271,-2);
},
{
name = top;
pos = (273,700);
}
);
associatedMasterId = m01;
layerId = "81631164-83AA-4D73-9C19-4A915934467F";
name = "1. Jan. 24, 23:55";
shapes = (
{
closed = 1;
nodes = (
(403,-16,o),
(496,66,o),
(496,183,cs),
(496,347,o),
(144,442,o),
(144,574,cs),
(144,637,o),
(197,682,o),
(272,682,cs),
(340,682,o),
(406,614,o),
(431,518,c),
(459,518,l),
(459,662,l),
(426,694,o),
(349,716,o),
(272,716,cs),
(143,716,o),
(52,639,o),
(52,529,cs),
(52,375,o),
(418,250,o),
(418,138,cs),
(418,68,o),
(358,18,o),
(272,18,cs),
(194,18,o),
(123,92,o),
(99,197,c),
(70,197,l),
(57,44,l),
(112,9,o),
(201,-16,o),
(272,-16,cs)
);
}
);
width = 548;
},
{
anchors = (
{
name = ced;
pos = (274,0);
},
{
name = com;
pos = (274,-2);
},
{
name = top;
pos = (276,700);
}
);
hints = (
{
horizontal = 1;
place = (-19,40);
type = Stem;
},
{
horizontal = 1;
place = (679,40);
type = Stem;
},
{
place = (9,178);
type = Stem;
},
{
place = (375,164);
type = Stem;
},
{
place = (423,79);
type = Stem;
}
);
layerId = "E0989092-07D5-4BE4-A82B-4E03160A36DB";
shapes = (
{
closed = 1;
nodes = (
(439,-16,o),
(550,66,o),
(550,183,cs),
(550,270,o),
(458,333,o),
(368,396,cs),
(283,453,o),
(198,505,o),
(198,574,cs),
(198,634,o),
(233,676,o),
(283,676,cs),
(388,676,o),
(443,609,o),
(443,515,c),
(513,515,l),
(513,647,l),
(466,687,o),
(371,716,o),
(283,716,cs),
(129,716,o),
(20,639,o),
(20,529,cs),
(20,447,o),
(117,377,o),
(214,311,cs),
(302,250,o),
(386,195,o),
(386,138,cs),
(386,71,o),
(343,24,o),
(283,24,cs),
(169,24,o),
(108,97,o),
(108,200,c),
(38,200,l),
(26,54,l),
(69,13,o),
(176,-16,o),
(283,-16,cs)
);
}
);
width = 570;
}
);
metricLeft = O;
metricRight = O;
unicode = 83;
},
{
glyphname = Germandbls;
layers = (
{
layerId = m01;
shapes = (
{
closed = 1;
nodes = (
(493,-16,o),
(551,77,o),
(551,180,cs),
(551,296,o),
(476,311,o),
(415,348,cs),
(374,373,o),
(339,404,o),
(339,440,cs),
(339,477,o),
(369,495,o),
(404,517,cs),
(455,548,o),
(509,587,o),
(515,700,c),
(8,700,l),
(8,680,l),
(116,644,l),
(99,668,l),
(99,32,l),
(116,56,l),
(8,20,l),
(8,0,l),
(192,0,l),
(192,668,l),
(176,650,l),
(434,650,l),
(415,665,l),
(431,595,o),
(388,557,o),
(350,519,cs),
(315,484,o),
(261,450,o),
(261,390,cs),
(261,315,o),
(354,261,o),
(416,229,cs),
(462,204,o),
(502,168,o),
(502,130,cs),
(502,56,o),
(464,19,o),
(410,19,cs),
(373,19,o),
(336,47,o),
(301,139,c),
(280,139,l),
(280,34,l),
(305,5,o),
(360,-16,o),
(410,-16,cs)
);
}
);
width = 596;
},
{
associatedMasterId = m01;
layerId = "5F037B64-807D-4008-80E9-3713EBE27D4E";
name = "1. Jan. 24, 23:57";
shapes = (
{
closed = 1;
nodes = (
(527,-16,o),
(585,57,o),
(585,160,cs),
(585,355,o),
(373,350,o),
(373,440,cs),
(373,529,o),
(549,509,o),
(559,699,c),
(447,676,l),
(477,531,o),
(315,519,o),
(315,390,cs),
(315,225,o),
(536,230,o),
(536,140,cs),
(536,66,o),
(498,19,o),
(444,19,cs),
(407,19,o),
(370,47,o),
(352,94,cs),
(335,139,l),
(317,139,l),
(311,34,l),
(339,5,o),
(394,-16,o),
(444,-16,cs)
);
},
{
closed = 1;
nodes = (
(218,0,l),
(218,50,l),
(123,50,l),
(32,20,l),
(32,0,l)
);
},
{
closed = 1;
nodes = (
(218,50,l),
(218,650,l),
(123,650,l),
(123,50,l)
);
},
{
closed = 1;
nodes = (
(529,650,l),
(559,700,l),
(32,700,l),
(32,680,l),
(123,650,l)
);
}
);
width = 600;
},
{
layerId = "E0989092-07D5-4BE4-A82B-4E03160A36DB";
shapes = (
{
closed = 1;
nodes = (
(565,-16,o),
(631,47,o),
(631,147,cs),
(631,269,o),
(559,318,o),
(500,348,cs),
(456,371,o),
(419,394,o),
(419,440,cs),
(419,485,o),
(449,498,o),
(486,515,cs),
(537,536,o),
(606,564,o),
(608,700,c),
(-15,700,l),
(-15,687,l),
(78,653,l),
(76,656,l),
(76,45,l),
(78,48,l),
(-15,17,l),
(-15,0,l),
(252,0,l),
(252,655,l),
(250,653,l),
(449,653,l),
(447,655,l),
(462,584,o),
(435,564,o),
(375,514,cs),
(343,484,o),
(288,452,o),
(288,390,cs),
(288,277,o),
(344,254,o),
(406,224,cs),
(454,202,o),
(525,153,o),
(525,107,cs),
(525,23,o),
(467,22,o),
(447,22,cs),
(435,22,o),
(341,30,o),
(338,142,c),
(292,142,l),
(292,47,l),
(287,23,o),
(368,-16,o),
(447,-16,cs)
);
}
);
width = 651;
}
);
metricLeft = H;
metricRight = O;
unicode = 7838;
},
{
glyphname = T;
kernLeft = T;
kernRight = T;
layers = (
{
anchors = (
{
name = ced;
pos = (318,0);
},
{
name = com;
pos = (318,-2);
},
{
name = top;
pos = (310,700);
}
);
background = {
shapes = (
{
closed = 1;
nodes = (
(88,612,ls),
(103,640,o),
(108,657,o),
(108,675,cs),
(108,691,o),
(96,700,o),
(76,700,cs),
(55,700,o),
(39,679,o),
(32,640,cs),
(19,564,ls),
(12,524,o),
(12,502,o),
(18,500,cs),
(24,498,o),
(37,514,o),
(56,551,cs)
);
}
);
};
layerId = m01;
shapes = (
{
closed = 1;
nodes = (
(451,0,l),
(451,19,l),
(350,56,l),
(367,32,l),
(367,676,l),
(349,650,l),
(547,650,l),
(521,666,l),
(608,500,l),
(629,500,l),
(595,700,l),
(42,700,l),
(8,500,l),
(29,500,l),
(116,666,l),
(90,650,l),
(290,650,l),
(272,668,l),
(272,32,l),
(289,56,l),
(181,20,l),
(181,0,l)
);
}
);
width = 637;
},
{
anchors = (
{
name = ced;
pos = (335,0);
},
{
name = com;
pos = (335,-2);
},
{
name = top;
pos = (327,700);
}
);
associatedMasterId = m01;
background = {
shapes = (
{
closed = 1;
nodes = (
(105,612,ls),
(120,640,o),
(125,657,o),
(125,675,cs),
(125,691,o),
(113,700,o),
(93,700,cs),
(72,700,o),
(56,679,o),
(49,640,cs),
(36,564,ls),
(29,524,o),
(29,502,o),
(35,500,cs),
(41,498,o),
(54,514,o),
(73,551,cs)
);
}
);
};
layerId = "48D25F69-1500-4DA1-829A-E991BACADBF6";
name = "2. Jan. 24, 00:02";
shapes = (
{
closed = 1;
nodes = (
(384,50,l),
(384,650,l),
(289,650,l),
(289,50,l)
);
},
{
closed = 1;
nodes = (
(468,0,l),
(468,19,l),
(384,50,l),
(289,50,l),
(198,20,l),
(198,0,l)
);
},
{
closed = 1;
nodes = (
(46,500,l),
(151,700,l),
(59,700,l),
(25,500,l)
);
},
{
closed = 1;
nodes = (
(612,650,l),
(612,700,l),
(59,700,l),
(59,650,l)
);
},
{
closed = 1;
nodes = (
(646,500,l),
(612,700,l),
(520,700,l),
(625,500,l)
);
}
);
width = 671;
},
{
anchors = (
{
name = ced;
pos = (303,0);
},
{
name = com;
pos = (304,-2);
},
{
name = top;
pos = (303,700);
}
);
hints = (
{
horizontal = 1;
place = (0,16);
type = Stem;
},
{
horizontal = 1;
place = (647,53);
type = Stem;
},
{
place = (179,182);
type = Stem;
},
{
horizontal = 1;
place = (497,203);
type = Stem;
}
);
layerId = "E0989092-07D5-4BE4-A82B-4E03160A36DB";
shapes = (
{
closed = 1;
nodes = (
(488,0,l),
(488,20,l),
(393,51,l),
(395,48,l),
(395,652,l),
(393,650,l),
(512,650,l),
(509,652,l),
(591,500,l),
(621,500,l),
(585,700,l),
(21,700,l),
(-15,500,l),
(15,500,l),
(97,652,l),
(94,650,l),
(213,650,l),
(211,652,l),
(211,48,l),
(213,51,l),
(118,20,l),
(118,0,l)
);
}
);
width = 606;
}
);
metricLeft = H;
metricRight = H;
unicode = 84;
},
{
glyphname = U;
kernLeft = U;
kernRight = U;
layers = (
{
anchors = (
{
name = ogo;
pos = (361,0);
},
{
name = top;
pos = (380,700);
}
);
layerId = m01;
shapes = (
{
closed = 1;
nodes = (
(515,-15,o),
(624,87,o),
(624,230,cs),
(624,668,l),
(607,644,l),
(718,681,l),
(718,700,l),
(483,700,l),
(483,680,l),
(591,644,l),
(574,668,l),
(574,210,ls),
(574,113,o),
(495,44,o),
(383,44,cs),
(272,44,o),
(194,129,o),
(194,250,cs),
(194,668,l),
(177,644,l),
(288,681,l),
(288,700,l),
(8,700,l),
(8,680,l),
(116,644,l),
(99,668,l),
(99,230,ls),
(99,87,o),
(208,-15,o),
(361,-15,cs)
);
}
);
width = 726;
},
{
anchors = (
{
name = ogo;
pos = (371,0);
},
{
name = top;
pos = (390,700);
}
);
associatedMasterId = m01;
layerId = "C9F274BC-9739-450A-90AE-ADDF7D885A0A";
name = "2. Jan. 24, 00:06";
shapes = (
{
closed = 1;
nodes = (
(525,-15,o),
(634,87,o),
(634,230,c),
(584,210,l),
(584,113,o),
(505,44,o),
(393,44,cs),
(282,44,o),
(204,129,o),
(204,250,c),
(109,230,l),
(109,87,o),
(218,-15,o),
(371,-15,cs)
);
},
{
closed = 1;
nodes = (
(204,250,l),
(204,650,l),
(109,650,l),
(109,230,l)
);
},
{
closed = 1;
nodes = (
(204,650,l),
(298,681,l),
(298,700,l),
(18,700,l),
(18,680,l),
(109,650,l)
);
},
{
closed = 1;
nodes = (
(634,230,l),
(634,650,l),
(584,650,l),
(584,210,l)
);
},
{
closed = 1;
nodes = (
(634,650,l),
(728,681,l),
(728,700,l),
(493,700,l),
(493,680,l),
(584,650,l)
);
}
);
width = 746;
},
{
anchors = (
{
name = ogo;
pos = (400,0);
},
{
name = top;
pos = (354,700);
}
);
background = {
shapes = (
{
closed = 0;
nodes = (
(636,648,l),
(729,680,l),
(729,700,l),
(359,700,l),
(359,680,l),
(452,650,l)
);
}
);
};
hints = (
{
horizontal = 1;
place = (-18,65);
type = Stem;
},
{
horizontal = 1;
place = (684,16);
type = Stem;
},
{
place = (49,182);
type = Stem;
},
{
place = (557,70);
type = Stem;
}
);
layerId = "E0989092-07D5-4BE4-A82B-4E03160A36DB";
shapes = (
{
closed = 1;
nodes = (
(531,-16,o),
(636,85,o),
(636,228,cs),
(636,650,l),
(634,647,l),
(729,680,l),
(729,700,l),
(493,700,l),
(493,680,l),
(588,649,l),
(586,652,l),
(586,193,ls),
(586,109,o),
(511,49,o),
(405,49,cs),
(321,49,o),
(262,128,o),
(262,240,cs),
(262,650,l),
(260,647,l),
(355,680,l),
(355,700,l),
(-15,700,l),
(-15,680,l),
(80,649,l),
(78,652,l),
(78,202,ls),
(78,74,o),
(204,-16,o),
(383,-16,cs)
);
}
);
width = 714;
}
);
metricLeft = H;
metricRight = H;
unicode = 85;
},
{
glyphname = V;
layers = (
{
anchors = (
{
name = top;
pos = (398,700);
}
);
background = {
shapes = (
{
closed = 1;
nodes = (
(101,660,l),
(342,-10,l),
(441,10,l),
(200,660,l)
);
}
);
};
layerId = m01;
shapes = (
{
closed = 1;
nodes = (
(391,0,l),
(639,667,l),
(616,644,l),
(727,681,l),
(727,700,l),
(489,700,l),
(489,680,l),
(597,644,l),
(586,667,l),
(386,127,l),
(391,127,l),
(189,667,l),
(176,644,l),
(287,681,l),
(287,700,l),
(0,700,l),
(0,680,l),
(108,644,l),
(85,667,l),
(342,-10,l)
);
}
);
width = 727;
},
{
associatedMasterId = m01;
background = {
shapes = (
{
closed = 1;
nodes = (
(101,660,l),
(342,-10,l),
(441,10,l),
(200,660,l)
);
}
);
};
layerId = "2DF3106B-5057-4E46-8347-DDA87B063409";
name = "2. Jan. 24, 00:09";
shapes = (
{
closed = 1;
nodes = (
(391,0,l),
(633,650,l),
(580,650,l),
(392,144,l),
(195,650,l),
(91,650,l),
(342,-10,l)
);
},
{
closed = 1;
nodes = (
(195,650,l),
(289,681,l),
(289,700,l),
(0,700,l),
(0,680,l),
(91,650,l)
);
},
{
closed = 1;
nodes = (
(633,650,l),
(727,681,l),
(727,700,l),
(489,700,l),
(489,680,l),
(580,650,l)
);
}
);
width = 727;
},
{
anchors = (
{
name = top;
pos = (384,700);
}
);
background = {
shapes = (
{
closed = 1;
nodes = (
(705,700,l),
(448,700,l),
(448,680,l),
(561,643,l),
(560,652,l),
(487,460,l),
(592,462,l),
(295,462,l),
(298,460,l),
(226,652,l),
(225,649,l),
(320,680,l),
(320,700,l),
(-50,700,l),
(-50,680,l),
(32,653,l),
(29,656,l),
(276,-15,l),
(367,0,l),
(613,652,l),
(610,649,l),
(705,680,l)
);
},
{
closed = 1;
nodes = (
(576,422,l),
(473,424,l),
(334,52,l),
(450,52,l),
(312,424,l),
(311,422,l)
);
}
);
};
hints = (
{
horizontal = 1;
place = (684,16);
type = Stem;
},
{
place = (-77,751);
type = Stem;
}
);
layerId = "E0989092-07D5-4BE4-A82B-4E03160A36DB";
shapes = (
{
closed = 1;
nodes = (
(367,0,l),
(613,652,l),
(610,649,l),
(705,680,l),
(705,700,l),
(448,700,l),
(448,680,l),
(559,643,l),
(558,646,l),
(389,201,l),
(393,201,l),
(226,652,l),
(225,649,l),
(320,680,l),
(320,700,l),
(-50,700,l),
(-50,680,l),
(32,653,l),
(29,656,l),
(276,-15,l)
);
}
);
width = 655;
}
);
unicode = 86;
},
{
glyphname = W;
kernLeft = W;
kernRight = W;
layers = (
{
anchors = (
{
name = top;
pos = (540,700);
}
);
background = {
shapes = (
{
closed = 0;
nodes = (
(328,-35,l),
(635,733,l)
);
},
{
closed = 0;
nodes = (
(389,-45,l),
(696,723,l)
);
},
{
closed = 0;
nodes = (
(633,-35,l),
(940,733,l)
);
},
{
closed = 0;
nodes = (
(699,-35,l),
(1006,733,l)
);
}
);
};
layerId = m01;
shapes = (
{
closed = 1;
nodes = (
(403,0,l),
(543,350,l),
(513,350,l),
(642,-10,l),
(690,0,l),
(958,667,l),
(925,645,l),
(1044,681,l),
(1044,700,l),
(787,700,l),
(787,680,l),
(902,645,l),
(890,667,l),
(672,107,l),
(689,108,l),
(569,441,l),
(574,409,l),
(672,666,l),
(643,643,l),
(732,681,l),
(732,700,l),
(537,700,l),
(537,680,l),
(620,646,l),
(606,667,l),
(535,472,l),
(555,472,l),
(465,700,l),
(289,700,l),
(289,680,l),
(405,645,l),
(380,666,l),
(499,383,l),
(503,415,l),
(392,121,l),
(402,120,l),
(183,700,l),
(0,700,l),
(0,680,l),
(115,645,l),
(92,667,l),
(351,-10,l)
);
}
);
width = 1044;
},
{
anchors = (
{
name = top;
pos = (540,700);
}
);
associatedMasterId = m01;
background = {
shapes = (
{
closed = 1;
nodes = (
(80,660,l),
(321,-10,l),
(420,10,l),
(179,660,l)
);
},
{
closed = 1;
nodes = (
(437,660,l),
(678,-10,l),
(777,10,l),
(536,660,l)
);
}
);
};
layerId = "D26895DC-3BB4-497B-9268-E03FEBC355CF";
name = "2. Jan. 24, 00:10";
shapes = (
{
closed = 1;
nodes = (
(373,0,l),
(694,700,l),
(637,700,l),
(372,137,l),
(177,700,l),
(98,650,l),
(321,-10,l)
);
},
{
closed = 1;
nodes = (
(177,700,l),
(0,700,l),
(0,680,l),
(98,650,l)
);
},
{
closed = 1;
nodes = (
(730,0,l),
(943,650,l),
(886,650,l),
(720,124,l),
(446,700,l),
(368,650,l),
(678,-10,l)
);
},
{
closed = 1;
nodes = (
(446,700,l),
(269,700,l),
(269,680,l),
(368,650,l)
);
},
{
closed = 1;
nodes = (
(674,650,l),
(743,681,l),
(743,700,l),
(518,700,l),
(518,680,l),
(617,650,l)
);
},
{
closed = 1;
nodes = (
(943,650,l),
(1045,681,l),
(1045,700,l),
(788,700,l),
(788,680,l),
(886,650,l)
);
}
);
width = 1045;
},
{
anchors = (
{
name = top;
pos = (535,700);
}
);
background = {
shapes = (
{
closed = 1;
nodes = (
(395,0,l),
(669,652,l),
(666,649,l),
(761,680,l),
(761,700,l),
(504,700,l),
(504,680,l),
(615,643,l),
(614,646,l),
(417,201,l),
(421,201,l),
(226,652,l),
(225,649,l),
(320,680,l),
(320,700,l),
(-50,700,l),
(-50,680,l),
(32,653,l),
(29,656,l),
(304,-15,l)
);
},
{
closed = 1;
nodes = (
(395,0,l),
(669,652,l),
(666,649,l),
(761,680,l),
(761,700,l),
(504,700,l),
(504,680,l),
(615,643,l),
(614,646,l),
(417,201,l),
(421,201,l),
(226,652,l),
(225,649,l),
(320,680,l),
(320,700,l),
(-50,700,l),
(-50,680,l),
(32,653,l),
(29,656,l),
(304,-15,l)
);
},
{
closed = 1;
nodes = (
(690,0,l),
(964,652,l),
(961,649,l),
(1056,680,l),
(1056,700,l),
(799,700,l),
(799,680,l),
(910,643,l),
(909,646,l),
(712,201,l),
(716,201,l),
(521,652,l),
(520,649,l),
(615,680,l),
(615,700,l),
(245,700,l),
(245,680,l),
(327,653,l),
(324,656,l),
(599,-15,l)
);
}
);
};
hints = (
{
horizontal = 1;
place = (683,17);
type = Stem;
},
{
place = (-77,1086);
type = Stem;
}
);
layerId = "E0989092-07D5-4BE4-A82B-4E03160A36DB";
shapes = (
{
closed = 1;
nodes = (
(395,0,l),
(509,292,l),
(489,284,l),
(611,-15,l),
(690,0,l),
(966,657,l),
(952,646,l),
(1056,680,l),
(1056,700,l),
(838,700,l),
(838,683,l),
(916,640,l),
(910,651,l),
(706,168,l),
(712,167,l),
(582,479,l),
(578,436,l),
(674,664,l),
(650,644,l),
(761,680,l),
(761,700,l),
(579,700,l),
(579,680,l),
(627,643,l),
(621,667,l),
(556,514,l),
(566,522,l),
(493,700,l),
(245,700,l),
(245,680,l),
(357,643,l),
(331,669,l),
(484,296,l),
(480,357,l),
(398,144,l),
(414,148,l),
(186,700,l),
(-50,700,l),
(-50,680,l),
(38,651,l),
(26,664,l),
(304,-15,l)
);
}
);
width = 1006;
}
);
metricLeft = V;
metricRight = V;
unicode = 87;
},
{
glyphname = X;
layers = (
{
anchors = (
{
name = top;
pos = (360,700);
}
);
layerId = m01;
shapes = (
{
closed = 1;
nodes = (
(259,0,l),
(259,20,l),
(151,56,l),
(158,35,l),
(337,312,l),
(317,312,l),
(510,35,l),
(517,56,l),
(406,19,l),
(406,0,l),
(698,0,l),
(698,20,l),
(590,56,l),
(617,35,l),
(382,388,l),
(382,358,l),
(587,665,l),
(560,644,l),
(671,681,l),
(671,700,l),
(424,700,l),
(424,680,l),
(532,644,l),
(525,665,l),
(347,405,l),
(367,405,l),
(193,665,l),
(186,644,l),
(297,681,l),
(297,700,l),
(8,700,l),
(8,680,l),
(116,644,l),
(89,665,l),
(310,321,l),
(310,351,l),
(96,35,l),
(123,56,l),
(12,19,l),
(12,0,l)
);
}
);
width = 706;
},
{
associatedMasterId = m01;
layerId = "F046320F-1E9A-4CB2-9107-3F313C602A8C";
name = "2. Jan. 24, 00:11";
shapes = (
{
closed = 1;
nodes = (
(170,50,l),
(329,297,l),
(502,50,l),
(610,50,l),
(404,358,ls),
(365,417,o),
(347,403,o),
(319,361,cs),
(108,50,l)
);
},
{
closed = 1;
nodes = (
(261,0,l),
(261,20,l),
(170,50,l),
(108,50,l),
(14,19,l),
(14,0,l)
);
},
{
closed = 1;
nodes = (
(700,0,l),
(700,20,l),
(609,50,l),
(502,50,l),
(408,19,l),
(408,0,l)
);
},
{
closed = 1;
nodes = (
(579,650,l),
(517,650,l),
(359,420,l),
(205,650,l),
(101,650,l),
(288,355,ls),
(324,298,o),
(351,309,o),
(380,352,cs)
);
},
{
closed = 1;
nodes = (
(205,650,l),
(299,681,l),
(299,700,l),
(10,700,l),
(10,680,l),
(101,650,l)
);
},
{
closed = 1;
nodes = (
(579,650,l),
(673,681,l),
(673,700,l),
(426,700,l),
(426,680,l),
(517,650,l)
);
}
);
width = 710;
},
{
anchors = (
{
name = top;
pos = (403,700);
}
);
hints = (
{
horizontal = 1;
place = (0,16);
type = Stem;
},
{
horizontal = 1;
place = (684,16);
type = Stem;
},
{
place = (-33,776);
type = Stem;
}
);
layerId = "E0989092-07D5-4BE4-A82B-4E03160A36DB";
shapes = (
{
closed = 1;
nodes = (
(285,0,l),
(285,17,l),
(165,64,l),
(168,40,l),
(365,376,l),
(307,295,l),
(469,27,l),
(490,47,l),
(389,16,l),
(389,0,l),
(767,0,l),
(767,17,l),
(657,52,l),
(683,34,l),
(425,444,l),
(387,377,l),
(614,669,l),
(579,638,l),
(714,684,l),
(714,700,l),
(440,700,l),
(440,683,l),
(531,635,l),
(529,660,l),
(369,419,l),
(421,453,l),
(274,686,l),
(255,644,l),
(366,684,l),
(366,700,l),
(11,700,l),
(11,683,l),
(124,647,l),
(52,683,l),
(292,315,l),
(343,404,l),
(88,33,l),
(121,63,l),
(-15,16,l),
(-15,0,l)
);
}
);
width = 752;
}
);
metricLeft = H;
metricRight = H;
unicode = 88;
},
{
glyphname = Y;
kernLeft = Y;
kernRight = Y;
layers = (
{
anchors = (
{
name = top;
pos = (350,700);
}
);
layerId = m01;
shapes = (
{
closed = 1;
nodes = (
(469,0,l),
(469,19,l),
(358,56,l),
(375,32,l),
(375,351,l),
(572,665,l),
(545,644,l),
(656,681,l),
(656,700,l),
(409,700,l),
(409,680,l),
(517,644,l),
(509,666,l),
(341,374,l),
(357,374,l),
(194,666,l),
(188,644,l),
(299,681,l),
(299,700,l),
(0,700,l),
(0,680,l),
(108,644,l),
(82,666,l),
(280,310,l),
(280,32,l),
(297,56,l),
(189,20,l),
(189,0,l)
);
}
);
width = 656;
},
{
anchors = (
{
name = top;
pos = (350,700);
}
);
associatedMasterId = m01;
layerId = "910689E5-F858-4CAF-834D-8F0FBE956DA8";
name = "2. Jan. 24, 00:13";
shapes = (
{
closed = 1;
nodes = (
(562,650,l),
(500,650,l),
(350,390,l),
(205,650,l),
(91,650,l),
(313,251,l)
);
},
{
closed = 1;
nodes = (
(469,0,l),
(469,19,l),
(375,50,l),
(280,50,l),
(189,20,l),
(189,0,l)
);
},
{
closed = 1;
nodes = (
(375,50,l),
(375,373,l),
(280,373,l),
(280,50,l)
);
},
{
closed = 1;
nodes = (
(205,650,l),
(299,681,l),
(299,700,l),
(0,700,l),
(0,680,l),
(91,650,l)
);
},
{
closed = 1;
nodes = (
(562,650,l),
(656,681,l),
(656,700,l),
(409,700,l),
(409,680,l),
(500,650,l)
);
}
);
width = 656;
},
{
anchors = (
{
name = top;
pos = (368,700);
}
);
background = {
shapes = (
{
closed = 1;
nodes = (
(500,0,l),
(500,20,l),
(407,50,l),
(407,648,l),
(500,680,l),
(500,700,l),
(130,700,l),
(130,680,l),
(223,650,l),
(223,50,l),
(130,20,l),
(130,0,l)
);
}
);
};
hints = (
{
horizontal = 1;
place = (0,16);
type = Stem;
},
{
horizontal = 1;
place = (684,16);
type = Stem;
},
{
place = (187,181);
type = Stem;
}
);
layerId = "E0989092-07D5-4BE4-A82B-4E03160A36DB";
shapes = (
{
closed = 1;
nodes = (
(500,0,l),
(500,19,l),
(383,58,l),
(407,23,l),
(407,367,l),
(590,669,l),
(562,647,l),
(673,684,l),
(673,700,l),
(433,700,l),
(433,683,l),
(509,647,l),
(509,666,l),
(343,376,l),
(386,392,l),
(240,676,l),
(226,654,l),
(303,684,l),
(303,700,l),
(-50,700,l),
(-50,683,l),
(59,649,l),
(40,663,l),
(223,306,l),
(223,31,l),
(242,56,l),
(130,20,l),
(130,0,l)
);
}
);
width = 623;
}
);
metricLeft = V;
metricRight = V;
unicode = 89;
},
{
glyphname = Z;
kernLeft = Z;
kernRight = Z;
layers = (
{
anchors = (
{
name = top;
pos = (328,700);
}
);
layerId = m01;
shapes = (
{
closed = 1;
nodes = (
(592,0,l),
(592,201,l),
(546,211,l),
(514,37,l),
(536,50,l),
(159,50,l),
(166,35,l),
(591,700,l),
(94,700,l),
(60,500,l),
(81,500,l),
(168,666,l),
(142,650,l),
(461,650,l),
(453,665,l),
(45,20,l),
(45,0,l)
);
}
);
width = 637;
},
{
anchors = (
{
name = top;
pos = (314,700);
}
);
associatedMasterId = m01;
layerId = "345EA7E1-6674-4C14-AB06-E1D43D2DBF31";
name = "2. Jan. 24, 00:52";
shapes = (
{
closed = 1;
nodes = (
(580,700,l),
(461,700,l),
(31,20,l),
(132,1,l)
);
},
{
closed = 1;
nodes = (
(578,0,l),
(578,50,l),
(123,50,l),
(31,20,l),
(31,0,l)
);
},
{
closed = 1;
nodes = (
(578,201,l),
(532,211,l),
(503,51,l),
(578,0,l)
);
},
{
closed = 1;
nodes = (
(67,500,l),
(172,700,l),
(80,700,l),
(46,500,l)
);
},
{
closed = 1;
nodes = (
(472,650,l),
(505,700,l),
(83,700,l),
(83,650,l)
);
}
);
width = 620;
},
{
anchors = (
{
name = top;
pos = (360,700);
}
);
hints = (
{
horizontal = 1;
place = (0,57);
type = Stem;
},
{
horizontal = 1;
place = (643,57);
type = Stem;
},
{
place = (562,109);
type = Stem;
},
{
horizontal = 1;
place = (493,207);
type = Stem;
}
);
layerId = "E0989092-07D5-4BE4-A82B-4E03160A36DB";
shapes = (
{
closed = 1;
nodes = (
(653,0,l),
(653,198,l),
(604,210,l),
(553,48,l),
(556,50,l),
(252,50,l),
(253,48,l),
(649,700,l),
(70,700,l),
(35,500,l),
(85,500,l),
(165,652,l),
(162,650,l),
(400,650,l),
(399,652,l),
(20,17,l),
(20,0,l)
);
}
);
width = 673;
}
);
metricLeft = O;
metricRight = O;
unicode = 90;
},
{
glyphname = Saltillo;
layers = (
{
layerId = m01;
shapes = (
{
closed = 1;
nodes = (
(108,415,l),
(118,700,l),
(36,700,l),
(46,415,l)
);
}
);
width = 224;
},
{
layerId = "E0989092-07D5-4BE4-A82B-4E03160A36DB";
shapes = (
{
closed = 1;
nodes = (
(128,395,l),
(138,700,l),
(36,700,l),
(46,395,l)
);
}
);
width = 174;
}
);
unicode = 42891;
},
{
export = 0;
glyphname = W_h;
layers = (
{
anchors = (
{
name = top;
pos = (540,700);
}
);
layerId = m01;
shapes = (
{
closed = 1;
nodes = (
(403,0,l),
(543,350,l),
(513,350,l),
(642,-10,l),
(690,0,l),
(958,667,l),
(925,645,l),
(984,681,l),
(984,700,l),
(787,700,l),
(787,680,l),
(902,645,l),
(890,667,l),
(672,107,l),
(689,108,l),
(569,441,l),
(574,409,l),
(672,666,l),
(643,643,l),
(732,681,l),
(732,700,l),
(537,700,l),
(537,680,l),
(620,646,l),
(606,667,l),
(535,472,l),
(555,472,l),
(465,700,l),
(289,700,l),
(289,680,l),
(405,645,l),
(380,666,l),
(499,383,l),
(503,415,l),
(392,121,l),
(402,120,l),
(183,700,l),
(0,700,l),
(0,680,l),
(115,645,l),
(92,667,l),
(351,-10,l)
);
},
{
closed = 1;
nodes = (
(1193,0,l),
(1193,30,l),
(1102,55,l),
(1119,32,l),
(1119,426,l),
(1110,399,l),
(1148,436,o),
(1198,470,o),
(1239,470,cs),
(1307,470,o),
(1355,415,o),
(1355,338,cs),
(1355,32,l),
(1372,55,l),
(1281,30,l),
(1281,0,l),
(1536,0,l),
(1536,20,l),
(1428,56,l),
(1445,32,l),
(1445,366,ls),
(1445,453,o),
(1372,515,o),
(1270,515,cs),
(1218,515,o),
(1156,479,o),
(1110,440,c),
(1119,430,l),
(1119,718,l),
(1121,794,l),
(1111,800,l),
(925,745,l),
(925,729,l),
(1047,715,l),
(1029,735,l),
(1029,32,l),
(1046,56,l),
(938,20,l),
(938,0,l)
);
}
);
width = 1546;
},
{
anchors = (
{
name = top;
pos = (535,700);
}
);
hints = (
{
horizontal = 1;
place = (683,17);
type = Stem;
},
{
place = (-77,1086);
type = Stem;
},
{
horizontal = 1;
place = (-3,16);
type = Stem;
},
{
horizontal = 1;
place = (472,46);
type = Stem;
},
{
place = (1024,176);
type = Stem;
},
{
place = (1350,176);
type = Stem;
}
);
layerId = "E0989092-07D5-4BE4-A82B-4E03160A36DB";
shapes = (
{
closed = 1;
nodes = (
(395,0,l),
(509,292,l),
(489,284,l),
(611,-15,l),
(690,0,l),
(966,657,l),
(952,646,l),
(1056,680,l),
(1056,700,l),
(908,700,l),
(908,683,l),
(916,640,l),
(910,651,l),
(706,168,l),
(712,167,l),
(582,479,l),
(578,436,l),
(674,664,l),
(650,644,l),
(761,680,l),
(761,700,l),
(579,700,l),
(579,680,l),
(627,643,l),
(621,667,l),
(556,514,l),
(566,522,l),
(493,700,l),
(245,700,l),
(245,680,l),
(357,643,l),
(331,669,l),
(484,296,l),
(480,357,l),
(398,144,l),
(414,148,l),
(186,700,l),
(-50,700,l),
(-50,680,l),
(38,651,l),
(26,664,l),
(304,-15,l)
);
},
{
closed = 1;
nodes = (
(1147,0,l),
(1147,20,l),
(1082,51,l),
(1084,48,l),
(1084,422,l),
(1083,419,l),
(1111,443,o),
(1147,461,o),
(1171,461,cs),
(1208,461,o),
(1234,410,o),
(1234,338,cs),
(1234,48,l),
(1236,51,l),
(1171,20,l),
(1171,0,l),
(1483,0,l),
(1483,20,l),
(1408,51,l),
(1410,48,l),
(1410,366,ls),
(1410,455,o),
(1324,517,o),
(1202,517,cs),
(1167,517,o),
(1120,502,o),
(1083,477,c),
(1084,476,l),
(1084,718,l),
(1086,787,l),
(1078,810,l),
(835,759,l),
(835,729,l),
(910,708,l),
(908,711,l),
(908,48,l),
(910,51,l),
(835,20,l),
(835,0,l)
);
}
);
width = 1468;
}
);
metricLeft = W;
metricRight = h;
},
{
export = 0;
glyphname = W_i;
layers = (
{
anchors = (
{
name = ogo;
pos = (1130,0);
},
{
name = top;
pos = (540,700);
}
);
layerId = m01;
shapes = (
{
closed = 1;
nodes = (
(403,0,l),
(527,310,l),
(642,-10,l),
(690,0,l),
(931,602,ls),
(958,664,o),
(1048,666,o),
(1148,607,c),
(1192,705,l),
(1066,801,o),
(932,763,o),
(869,613,c),
(681,130,l),
(577,418,l),
(667,653,l),
(732,681,l),
(732,700,l),
(537,700,l),
(537,680,l),
(601,654,l),
(545,498,l),
(465,700,l),
(289,700,l),
(289,680,l),
(386,651,l),
(495,393,l),
(397,134,l),
(183,700,l),
(0,700,l),
(0,680,l),
(98,650,l),
(351,-10,l)
);
},
{
closed = 1;
nodes = (
(1268,0,l),
(1268,20,l),
(1157,57,l),
(1174,33,l),
(1174,434,l),
(1176,510,l),
(1166,516,l),
(980,461,l),
(980,445,l),
(1102,431,l),
(1084,451,l),
(1084,32,l),
(1101,55,l),
(990,20,l),
(990,0,l)
);
}
);
width = 1278;
},
{
anchors = (
{
name = ogo;
pos = (1040,0);
},
{
name = top;
pos = (649,700);
}
);
hints = (
{
horizontal = 1;
place = (683,17);
type = Stem;
},
{
place = (-77,1086);
type = Stem;
},
{
horizontal = 1;
place = (0,17);
type = Stem;
},
{
horizontal = 1;
place = (516,-20);
target = down;
type = TopGhost;
},
{
horizontal = 1;
place = (574,196);
type = Stem;
},
{
place = (873,176);
type = Stem;
},
{
place = (864,208);
type = Stem;
}
);
layerId = "E0989092-07D5-4BE4-A82B-4E03160A36DB";
shapes = (
{
closed = 1;
nodes = (
(395,0,l),
(498,263,l),
(611,-15,l),
(690,0,l),
(876,553,ls),
(904,631,o),
(995,638,o),
(1095,571,c),
(1150,700,l),
(1018,787,o),
(895,762,o),
(853,640,cs),
(702,191,l),
(589,462,l),
(667,648,l),
(736,664,l),
(736,700,l),
(579,700,l),
(579,680,l),
(615,652,l),
(563,530,l),
(493,700,l),
(245,700,l),
(245,680,l),
(339,649,l),
(470,331,l),
(407,166,l),
(186,700,l),
(-50,700,l),
(-50,680,l),
(30,654,l),
(304,-15,l)
);
},
{
closed = 1;
nodes = (
(1200,0,l),
(1200,20,l),
(1125,51,l),
(1127,28,l),
(1127,427,l),
(1129,493,l),
(1121,516,l),
(878,465,l),
(878,435,l),
(953,414,l),
(951,437,l),
(951,28,l),
(953,51,l),
(878,20,l),
(878,0,l)
);
}
);
width = 1185;
}
);
metricLeft = W;
metricRight = i;
},
{
glyphname = a;
kernLeft = a;
kernRight = a;
layers = (
{
associatedMasterId = m01;
layerId = "DC0490B7-783B-4ABB-9CE4-D8D1AAD9D32C";
name = "1. Jan. 24, 11:25";
shapes = (
{
closed = 1;
nodes = (
(508,18,l),
(508,34,l),
(405,47,l),
(405,391,ls),
(405,464,o),
(351,516,o),
(275,516,cs),
(144,516,o),
(68,456,o),
(68,371,cs),
(68,336,l),
(151,356,l),
(154,391,ls),
(159,445,o),
(192,483,o),
(251,483,cs),
(288,483,o),
(319,437,o),
(319,371,cs),
(319,65,l),
(321,-11,l),
(331,-17,l)
);
},
{
closed = 1;
nodes = (
(236,-16,o),
(285,17,o),
(331,64,c),
(328,115,l),
(288,70,o),
(256,34,o),
(217,34,cs),
(178,34,o),
(143,102,o),
(143,177,cs),
(143,229,o),
(215,250,o),
(351,249,c),
(350,288,l),
(187,288,o),
(55,244,o),
(55,147,cs),
(55,63,o),
(90,-16,o),
(183,-16,cs)
);
}
);
width = 505;
},
{
anchors = (
{
name = ogo;
pos = (313,0);
},
{
name = top;
pos = (243,500);
}
);
layerId = m01;
name = Regular;
shapes = (
{
closed = 1;
nodes = (
(228,-16,o),
(276,16,o),
(321,61,c),
(310,70,l),
(313,-11,l),
(323,-17,l),
(477,18,l),
(477,34,l),
(379,49,l),
(397,29,l),
(397,391,ls),
(397,464,o),
(343,516,o),
(267,516,cs),
(136,516,o),
(60,456,o),
(60,371,cs),
(60,359,o),
(60,348,o),
(61,336,c),
(144,356,l),
(144,368,o),
(145,379,o),
(146,391,cs),
(151,445,o),
(184,483,o),
(243,483,cs),
(280,483,o),
(311,437,o),
(311,371,cs),
(311,269,l),
(327,287,l),
(172,285,o),
(47,241,o),
(47,147,cs),
(47,63,o),
(82,-16,o),
(175,-16,cs)
);
},
{
closed = 1;
nodes = (
(170,34,o),
(135,102,o),
(135,177,cs),
(135,228,o),
(203,248,o),
(332,249,c),
(311,267,l),
(311,87,l),
(321,116,l),
(281,71,o),
(248,34,o),
(209,34,cs)
);
}
);
width = 487;
},
{
anchors = (
{
name = ogo;
pos = (339,0);
},
{
name = top;
pos = (278,500);
}
);
hints = (
{
horizontal = 1;
place = (-16,21);
target = up;
type = BottomGhost;
},
{
horizontal = 1;
place = (246,43);
type = Stem;
},
{
horizontal = 1;
place = (480,36);
type = Stem;
},
{
place = (12,174);
type = Stem;
},
{
place = (309,173);
type = Stem;
},
{
horizontal = 1;
place = (-15,21);
target = up;
type = BottomGhost;
},
{
place = (25,169);
type = Stem;
},
{
horizontal = 1;
place = (-16,53);
type = Stem;
}
);
layerId = "E0989092-07D5-4BE4-A82B-4E03160A36DB";
shapes = (
{
closed = 1;
nodes = (
(257,-16,o),
(303,18,o),
(334,49,c),
(333,50,l),
(329,-1,l),
(341,-15,l),
(596,21,l),
(596,56,l),
(501,68,l),
(503,66,l),
(503,391,ls),
(503,464,o),
(410,516,o),
(278,516,cs),
(140,516,o),
(43,456,o),
(43,371,cs),
(43,351,o),
(43,329,o),
(44,319,c),
(185,351,l),
(185,354,o),
(184,363,o),
(182,381,cs),
(180,425,o),
(233,466,o),
(267,466,cs),
(302,466,o),
(333,427,o),
(333,371,cs),
(333,287,l),
(335,289,l),
(180,277,o),
(30,225,o),
(30,147,cs),
(30,66,o),
(85,-16,o),
(218,-16,cs)
);
},
{
closed = 1;
nodes = (
(232,70,o),
(203,118,o),
(203,168,cs),
(203,221,o),
(254,234,o),
(335,237,c),
(333,248,l),
(333,91,l),
(335,95,l),
(316,75,o),
(294,70,o),
(282,70,cs)
);
}
);
width = 581;
}
);
metricLeft = o;
metricRight = n;
unicode = 97;
},
{
glyphname = ae;
kernLeft = a;
kernRight = e;
layers = (
{
layerId = m01;
shapes = (
{
closed = 1;
nodes = (
(617,-16,o),
(695,26,o),
(734,80,c),
(712,108,l),
(674,72,o),
(617,44,o),
(574,44,cs),
(478,44,o),
(412,137,o),
(417,278,c),
(399,262,l),
(741,262,l),
(742,272,o),
(742,281,o),
(742,291,cs),
(742,420,o),
(667,516,o),
(552,516,cs),
(486,516,o),
(432,488,o),
(393,441,c),
(406,440,l),
(386,486,o),
(334,516,o),
(277,516,cs),
(146,516,o),
(60,456,o),
(60,371,cs),
(60,359,o),
(60,348,o),
(60,336,c),
(143,356,l),
(144,368,o),
(145,379,o),
(146,391,cs),
(151,445,o),
(194,483,o),
(253,483,cs),
(290,483,o),
(331,437,o),
(331,371,cs),
(331,279,l),
(347,297,l),
(189,295,o),
(47,241,o),
(47,147,cs),
(47,63,o),
(92,-16,o),
(185,-16,cs),
(240,-16,o),
(301,-3,o),
(391,71,c),
(370,70,l),
(407,13,o),
(467,-16,o),
(544,-16,cs)
);
},
{
closed = 1;
nodes = (
(135,228,o),
(221,258,o),
(352,259,c),
(336,269,l),
(332,261,o),
(332,248,o),
(332,237,cs),
(332,175,o),
(341,125,o),
(360,87,c),
(372,108,l),
(297,49,o),
(257,34,o),
(219,34,cs),
(180,34,o),
(135,102,o),
(135,177,cs)
);
},
{
closed = 1;
nodes = (
(399,298,l),
(417,280,l),
(417,335,l),
(426,419,o),
(467,477,o),
(520,477,cs),
(590,477,o),
(642,395,o),
(645,287,c),
(662,303,l)
);
}
);
width = 789;
},
{
associatedMasterId = m01;
layerId = "B65321F4-4844-4506-B17C-728D37A61E98";
name = "1. Jan. 24, 12:08";
shapes = (
{
closed = 1;
nodes = (
(595,-13,o),
(673,26,o),
(712,80,c),
(690,108,l),
(652,72,o),
(595,47,o),
(552,47,cs),
(460,47,o),
(395,130,o),
(395,262,c),
(719,262,l),
(731,405,o),
(653,517,o),
(530,517,cs),
(396,517,o),
(311,401,o),
(310,237,cs),
(309,61,o),
(391,-13,o),
(522,-13,cs)
);
},
{
closed = 1;
nodes = (
(216,-16,o),
(275,-3,o),
(361,64,c),
(358,115,l),
(278,50,o),
(236,34,o),
(197,34,cs),
(158,34,o),
(113,102,o),
(113,177,cs),
(113,229,o),
(205,260,o),
(341,259,c),
(340,298,l),
(177,298,o),
(25,244,o),
(25,147,cs),
(25,63,o),
(70,-16,o),
(163,-16,cs)
);
},
{
closed = 1;
nodes = (
(395,391,ls),
(395,464,o),
(331,516,o),
(255,516,cs),
(124,516,o),
(38,456,o),
(38,371,cs),
(38,336,l),
(121,356,l),
(124,391,ls),
(129,445,o),
(172,483,o),
(231,483,cs),
(268,483,o),
(309,437,o),
(309,371,cs),
(309,279,l),
(395,262,l)
);
},
{
closed = 1;
nodes = (
(393,401,o),
(437,478,o),
(498,478,cs),
(566,478,o),
(617,401,o),
(622,298,c),
(626,302,ls),
(628,304,o),
(576,304,o),
(518,302,cs),
(393,298,l)
);
}
);
width = 765;
},
{
hints = (
{
horizontal = 1;
place = (-18,67);
type = Stem;
},
{
horizontal = 1;
place = (259,45.5);
type = Stem;
},
{
horizontal = 1;
place = (470,45);
type = Stem;
},
{
place = (-18,174);
type = Stem;
},
{
place = (266,172);
type = Stem;
},
{
place = (580,183);
type = Stem;
},
{
horizontal = 1;
place = (-16,57);
type = Stem;
},
{
horizontal = 1;
place = (476,40);
type = Stem;
},
{
place = (-5,169);
type = Stem;
},
{
place = (267,171);
type = Stem;
}
);
layerId = "E0989092-07D5-4BE4-A82B-4E03160A36DB";
shapes = (
{
closed = 1;
nodes = (
(663,-16,o),
(759,53,o),
(790,97,c),
(760,128,l),
(685,75,o),
(635,51,o),
(600,51,cs),
(541,51,o),
(487,119,o),
(486,261,c),
(484,259,l),
(810,259,l),
(811,269,o),
(811,278,o),
(811,288,cs),
(811,430,o),
(715,516,o),
(578,516,cs),
(520,516,o),
(471,504,o),
(431,481,c),
(433,482,l),
(392,503,o),
(330,516,o),
(245,516,cs),
(149,516,o),
(43,446,o),
(43,368,cs),
(43,351,o),
(43,333,o),
(44,316,c),
(214,358,l),
(213,368,o),
(213,377,o),
(212,388,cs),
(210,453,o),
(248,476,o),
(257,476,cs),
(284,476,o),
(314,444,o),
(314,368,cs),
(314,296,l),
(316,298,l),
(166,283,o),
(30,224,o),
(30,147,cs),
(30,68,o),
(80,-16,o),
(211,-16,cs),
(259,-16,o),
(318,13,o),
(377,52,c),
(375,52,l),
(419,4,o),
(484,-16,o),
(570,-16,cs)
);
},
{
closed = 1;
nodes = (
(204,231,o),
(241,247,o),
(318,254,c),
(316,255,l),
(315,250,o),
(315,242,o),
(315,237,cs),
(315,175,o),
(327,128,o),
(348,89,c),
(348,91,l),
(327,73,o),
(296,61,o),
(275,61,cs),
(233,61,o),
(204,109,o),
(204,177,cs)
);
},
{
closed = 1;
nodes = (
(484,302,l),
(486,300,l),
(486,340,ls),
(486,426,o),
(525,471,o),
(546,471,cs),
(576,471,o),
(616,460,o),
(628,304,c),
(630,307,l)
);
}
);
width = 841;
}
);
metricLeft = a;
metricRight = e;
unicode = 230;
},
{
glyphname = b;
layers = (
{
associatedMasterId = m01;
layerId = "8F5C45DE-E011-4AF6-A467-DD6264DF4D65";
name = "1. Jan. 24, 11:26";
shapes = (
{
closed = 1;
nodes = (
(153,44,l),
(153,718,l),
(155,794,l),
(145,800,l),
(-41,745,l),
(-41,729,l),
(63,717,l),
(63,44,l)
);
},
{
closed = 1;
nodes = (
(378,-12,o),
(496,111,o),
(496,286,c),
(404,258,l),
(404,126,o),
(342,28,o),
(255,28,cs),
(212,28,o),
(162,65,o),
(123,104,cs),
(122,105,l),
(64,44,l),
(111,18,l),
(136,0,o),
(179,-12,o),
(214,-12,cs)
);
},
{
closed = 1;
nodes = (
(496,286,l),
(496,420,o),
(407,515,o),
(284,515,cs),
(231,515,o),
(162,482,o),
(116,435,c),
(119,385,l),
(158,430,o),
(209,469,o),
(243,469,cs),
(337,469,o),
(404,382,o),
(404,258,c)
);
}
);
width = 543;
},
{
layerId = m01;
name = Regular;
shapes = (
{
closed = 1;
nodes = (
(429,-16,o),
(547,111,o),
(547,286,cs),
(547,420,o),
(458,516,o),
(335,516,cs),
(292,516,o),
(238,493,o),
(194,458,c),
(204,448,l),
(204,718,l),
(206,794,l),
(196,800,l),
(10,745,l),
(10,729,l),
(132,715,l),
(114,735,l),
(114,44,l),
(186,0,o),
(230,-16,o),
(265,-16,cs)
);
},
{
closed = 1;
nodes = (
(270,24,o),
(229,54,o),
(194,86,c),
(204,59,l),
(204,438,l),
(193,410,l),
(228,443,o),
(266,470,o),
(294,470,cs),
(388,470,o),
(455,382,o),
(455,258,cs),
(455,126,o),
(393,24,o),
(306,24,cs)
);
}
);
width = 594;
},
{
background = {
shapes = (
{
closed = 1;
nodes = (
(317,0,l),
(317,20,l),
(252,51,l),
(254,48,l),
(254,422,l),
(253,419,l),
(281,443,o),
(317,461,o),
(341,461,cs),
(378,461,o),
(404,410,o),
(404,338,cs),
(404,48,l),
(406,51,l),
(341,20,l),
(341,1,l),
(653,0,l),
(653,20,l),
(578,51,l),
(580,48,l),
(580,366,ls),
(580,455,o),
(494,517,o),
(372,517,cs),
(337,517,o),
(290,502,o),
(253,477,c),
(254,476,l),
(254,718,l),
(256,787,l),
(248,810,l),
(5,759,l),
(5,729,l),
(80,708,l),
(78,711,l),
(78,48,l),
(80,51,l),
(5,20,l),
(5,0,l)
);
}
);
};
hints = (
{
horizontal = 1;
place = (-16,47);
type = Stem;
},
{
horizontal = 1;
place = (463,53);
type = Stem;
},
{
place = (45,176);
type = Stem;
},
{
place = (386,178);
type = Stem;
}
);
layerId = "E0989092-07D5-4BE4-A82B-4E03160A36DB";
shapes = (
{
closed = 1;
nodes = (
(459,-16,o),
(598,104,o),
(598,286,cs),
(598,428,o),
(486,516,o),
(390,516,cs),
(335,516,o),
(279,509,o),
(254,498,c),
(255,496,l),
(255,718,l),
(257,784,l),
(245,814,l),
(5,759,l),
(5,729,l),
(81,710,l),
(79,713,l),
(79,41,l),
(159,17,o),
(221,-16,o),
(343,-16,cs)
);
},
{
closed = 1;
nodes = (
(310,34,o),
(283,40,o),
(254,66,c),
(255,63,l),
(255,451,l),
(253,448,l),
(272,457,o),
(291,461,o),
(302,461,cs),
(363,461,o),
(420,394,o),
(420,261,cs),
(420,119,o),
(366,34,o),
(337,34,cs)
);
}
);
width = 628;
}
);
metricLeft = n;
metricRight = o;
unicode = 98;
},
{
glyphname = c;
kernLeft = c;
kernRight = c;
layers = (
{
anchors = (
{
name = ced;
pos = (272,0);
},
{
name = top;
pos = (270,500);
}
);
layerId = m01;
shapes = (
{
closed = 1;
nodes = (
(333,-13,o),
(409,25,o),
(456,79,c),
(438,105,l),
(397,72,o),
(342,48,o),
(306,48,cs),
(210,48,o),
(137,143,o),
(137,277,cs),
(137,403,o),
(191,489,o),
(269,489,cs),
(328,489,o),
(380,415,o),
(393,339,c),
(434,339,l),
(434,490,l),
(412,490,o),
(388,496,o),
(364,503,cs),
(336,510,o),
(308,517,o),
(282,516,cs),
(140,510,o),
(47,399,o),
(47,234,cs),
(47,89,o),
(140,-13,o),
(272,-13,cs)
);
}
);
width = 503;
},
{
anchors = (
{
name = ced;
pos = (275,0);
},
{
name = top;
pos = (273,500);
}
);
background = {
shapes = (
{
closed = 0;
nodes = (
(281,-17,ls),
(369,-17,o),
(467,23,o),
(516,79,c),
(485,112,l),
(439,66,o),
(367,34,o),
(311,34,cs)
);
}
);
};
hints = (
{
horizontal = 1;
place = (-16,67);
type = Stem;
},
{
horizontal = 1;
place = (486,24);
type = Stem;
},
{
place = (2,176);
type = Stem;
},
{
place = (356,69);
type = Stem;
}
);
layerId = "E0989092-07D5-4BE4-A82B-4E03160A36DB";
shapes = (
{
closed = 1;
nodes = (
(354,-16,o),
(439,15,o),
(476,59,c),
(445,92,l),
(414,61,o),
(367,39,o),
(332,39,cs),
(258,39,o),
(206,138,o),
(206,277,cs),
(206,384,o),
(230,463,o),
(263,467,c),
(345,469,o),
(403,415,o),
(403,336,c),
(453,336,l),
(453,508,l),
(450,507,o),
(433,508,o),
(410,510,cs),
(337,515,o),
(280,518,o),
(273,518,cs),
(131,512,o),
(30,394,o),
(30,244,cs),
(30,88,o),
(129,-16,o),
(270,-16,cs)
);
}
);
width = 506;
}
);
metricLeft = o;
metricRight = o;
unicode = 99;
},
{
glyphname = d;
kernLeft = d;
kernRight = d;
layers = (
{
associatedMasterId = m01;
layerId = "E45AF11D-5959-4179-A5F9-D0A2E97EA0E1";
name = "1. Jan. 24, 11:32";
shapes = (
{
closed = 1;
nodes = (
(585,28,l),
(585,44,l),
(478,57,l),
(478,735,l),
(483,811,l),
(473,817,l),
(287,762,l),
(287,746,l),
(391,734,l),
(391,65,l),
(398,-1,l),
(408,-7,l)
);
},
{
closed = 1;
nodes = (
(297,-16,o),
(371,27,o),
(429,88,c),
(437,102,l),
(409,123,l),
(405,121,o),
(402,115,o),
(402,115,c),
(366,69,o),
(319,37,o),
(290,37,cs),
(195,37,o),
(132,128,o),
(132,271,cs),
(132,388,o),
(184,481,o),
(265,481,cs),
(300,481,o),
(349,469,o),
(383,451,cs),
(405,439,o),
(421,427,o),
(421,420,cs),
(421,415,l),
(452,451,l),
(443,455,l),
(404,491,o),
(337,516,o),
(280,516,cs),
(134,516,o),
(35,399,o),
(35,248,cs),
(35,88,o),
(121,-16,o),
(250,-16,cs)
);
}
);
width = 582;
},
{
layerId = m01;
name = Regular;
shapes = (
{
closed = 1;
nodes = (
(573,28,l),
(573,44,l),
(472,59,l),
(490,39,l),
(490,735,l),
(495,811,l),
(485,817,l),
(299,762,l),
(299,746,l),
(421,732,l),
(401,752,l),
(401,471,l),
(414,483,l),
(376,504,o),
(332,516,o),
(292,516,cs),
(146,516,o),
(47,399,o),
(47,248,cs),
(47,88,o),
(133,-16,o),
(262,-16,cs),
(303,-16,o),
(362,15,o),
(415,63,c),
(401,71,l),
(409,-1,l),
(420,-7,l)
);
},
{
closed = 1;
nodes = (
(207,37,o),
(144,128,o),
(144,271,cs),
(144,388,o),
(196,481,o),
(277,481,cs),
(312,481,o),
(361,470,o),
(418,437,c),
(401,464,l),
(401,84,l),
(413,114,l),
(377,68,o),
(331,37,o),
(302,37,cs)
);
}
);
width = 583;
},
{
background = {
shapes = (
{
closed = 1;
nodes = (
(632,0,l),
(632,20,l),
(557,51,l),
(559,48,l),
(559,718,l),
(561,787,l),
(553,810,l),
(314,759,l),
(314,729,l),
(389,708,l),
(387,711,l),
(387,48,l),
(389,51,l),
(314,20,l),
(314,0,l)
);
}
);
};
hints = (
{
horizontal = 1;
place = (-16,56);
type = Stem;
},
{
horizontal = 1;
place = (513,-20);
target = down;
type = TopGhost;
},
{
place = (17,183);
type = Stem;
},
{
place = (374,172);
type = Stem;
},
{
horizontal = 1;
place = (478,41);
type = Stem;
}
);
layerId = "E0989092-07D5-4BE4-A82B-4E03160A36DB";
shapes = (
{
closed = 1;
nodes = (
(610,31,l),
(610,59,l),
(557,72,l),
(559,69,l),
(559,733,l),
(561,787,l),
(553,810,l),
(314,759,l),
(314,729,l),
(389,708,l),
(387,711,l),
(387,511,l),
(388,513,l),
(365,517,o),
(340,519,o),
(318,519,cs),
(149,519,o),
(30,406,o),
(30,248,cs),
(30,83,o),
(132,-16,o),
(251,-16,cs),
(310,-16,o),
(357,12,o),
(391,40,c),
(390,41,l),
(392,9,l),
(399,-15,l)
);
},
{
closed = 1;
nodes = (
(268,39,o),
(213,118,o),
(213,271,cs),
(213,396,o),
(259,468,o),
(290,468,cs),
(327,468,o),
(367,461,o),
(388,452,c),
(387,454,l),
(387,81,l),
(389,84,l),
(356,56,o),
(331,39,o),
(311,39,cs)
);
}
);
width = 595;
}
);
metricLeft = o;
metricRight = n;
unicode = 100;
},
{
glyphname = dcroat;
kernLeft = d;
kernRight = d;
layers = (
{
layerId = m01;
shapes = (
{
closed = 1;
nodes = (
(585,599,l),
(585,639,l),
(237,639,l),
(237,599,l)
);
},
{
ref = d;
}
);
width = 595;
},
{
hints = (
{
horizontal = 1;
place = (-16,56);
type = Stem;
},
{
horizontal = 1;
place = (513,-20);
target = down;
type = TopGhost;
},
{
horizontal = 1;
place = (596,46);
type = Stem;
},
{
place = (17,183);
type = Stem;
},
{
place = (374,172);
type = Stem;
},
{
horizontal = 1;
place = (478,41);
type = Stem;
}
);
layerId = "E0989092-07D5-4BE4-A82B-4E03160A36DB";
shapes = (
{
closed = 1;
nodes = (
(615,579,l),
(615,639,l),
(267,639,l),
(267,579,l)
);
},
{
ref = d;
}
);
width = 600;
}
);
metricLeft = o;
metricRight = n;
unicode = 273;
},
{
glyphname = eth;
kernLeft = o;
kernRight = d;
layers = (
{
layerId = m01;
shapes = (
{
closed = 1;
nodes = (
(432,-15,o),
(519,82,o),
(519,287,cs),
(519,447,o),
(444,629,o),
(350,705,c),
(346,689,l),
(414,755,l),
(387,786,l),
(307,709,l),
(330,716,l),
(285,743,o),
(230,750,o),
(169,750,c),
(169,711,l),
(210,711,o),
(250,699,o),
(286,671,c),
(288,691,l),
(218,624,l),
(244,590,l),
(320,664,l),
(299,658,l),
(342,621,o),
(375,561,o),
(396,478,c),
(402,489,l),
(370,505,o),
(331,512,o),
(287,512,cs),
(140,512,o),
(47,413,o),
(47,255,cs),
(47,89,o),
(140,-15,o),
(287,-15,cs)
);
},
{
closed = 1;
nodes = (
(207,23,o),
(139,124,o),
(139,285,cs),
(139,402,o),
(197,475,o),
(274,475,cs),
(374,475,o),
(431,390,o),
(431,254,cs),
(431,111,o),
(374,23,o),
(300,23,cs)
);
}
);
width = 566;
},
{
associatedMasterId = m01;
layerId = "61B6939F-2C36-4E3A-A985-64CEAFBDB44F";
name = "1. Jan. 24, 12:10";
shapes = (
{
closed = 1;
nodes = (
(430,-15,o),
(511,94,o),
(511,267,cs),
(511,396,o),
(430,477,o),
(285,477,cs),
(138,477,o),
(45,384,o),
(45,237,cs),
(45,82,o),
(138,-15,o),
(285,-15,cs)
);
},
{
closed = 1;
nodes = (
(205,20,o),
(137,115,o),
(137,265,cs),
(137,374,o),
(195,442,o),
(272,442,cs),
(362,442,o),
(419,363,o),
(419,236,cs),
(419,103,o),
(372,20,o),
(298,20,cs)
);
},
{
closed = 1;
nodes = (
(511,267,l),
(511,569,o),
(393,699,o),
(167,699,c),
(167,663,l),
(301,663,o),
(419,535,o),
(419,236,c)
);
},
{
closed = 1;
nodes = (
(412,704,l),
(385,733,l),
(216,581,l),
(242,550,l)
);
}
);
width = 600;
},
{
hints = (
{
horizontal = 1;
place = (-18,41);
type = Stem;
},
{
horizontal = 1;
place = (439,41);
type = Stem;
},
{
horizontal = 1;
place = (661,41);
type = Stem;
},
{
place = (2,195);
type = Stem;
},
{
place = (369,194);
type = Stem;
},
{
horizontal = 1;
place = (706,-20);
target = down;
type = TopGhost;
}
);
layerId = "E0989092-07D5-4BE4-A82B-4E03160A36DB";
shapes = (
{
closed = 1;
nodes = (
(476,-18,o),
(591,119,o),
(591,311,cs),
(591,471,o),
(518,632,o),
(415,700,c),
(414,697,l),
(473,754,l),
(416,817,l),
(331,734,l),
(334,736,l),
(288,748,o),
(212,754,o),
(152,750,c),
(152,701,l),
(191,713,o),
(241,702,o),
(273,676,c),
(274,680,l),
(211,619,l),
(263,551,l),
(335,617,l),
(332,617,l),
(352,595,o),
(374,546,o),
(385,499,c),
(385,501,l),
(365,508,o),
(335,513,o),
(313,513,cs),
(147,513,o),
(30,405,o),
(30,254,cs),
(30,95,o),
(147,-18,o),
(313,-18,cs)
);
},
{
closed = 1;
nodes = (
(267,26,o),
(225,132,o),
(225,284,cs),
(225,393,o),
(256,469,o),
(300,469,cs),
(357,469,o),
(397,380,o),
(397,253,cs),
(397,120,o),
(368,26,o),
(326,26,cs)
);
}
);
width = 621;
}
);
metricLeft = o;
metricRight = o;
unicode = 240;
},
{
glyphname = e;
kernLeft = e;
kernRight = e;
layers = (
{
associatedMasterId = m01;
background = {
shapes = (
{
closed = 1;
nodes = (
(422,517,o),
(519,416,o),
(519,262,cs),
(519,91,o),
(422,-15,o),
(283,-15,cs),
(136,-15,o),
(43,91,o),
(43,262,cs),
(43,416,o),
(136,517,o),
(283,517,cs)
);
},
{
closed = 1;
nodes = (
(195,483,o),
(144,426,o),
(144,290,cs),
(144,101,o),
(204,18,o),
(296,18,cs),
(365,18,o),
(418,81,o),
(418,231,cs),
(418,407,o),
(357,483,o),
(270,483,cs)
);
},
{
closed = 1;
nodes = (
(140,517,o),
(46,401,o),
(45,237,cs),
(44,91,o),
(137,-13,o),
(267,-13,cs),
(315,-13,o),
(367,7,o),
(409,38,cs),
(443,64,o),
(451,88,o),
(444,95,cs),
(436,103,o),
(420,89,o),
(384,70,cs),
(357,55,o),
(326,47,o),
(297,47,cs),
(205,47,o),
(140,143,o),
(140,272,c),
(464,272,l),
(477,426,o),
(398,517,o),
(275,517,cs)
);
},
{
closed = 1;
nodes = (
(138,411,o),
(182,489,o),
(243,489,cs),
(311,489,o),
(362,411,o),
(367,308,c),
(371,312,ls),
(373,314,o),
(321,314,o),
(263,312,cs),
(138,308,l)
);
}
);
};
layerId = "E099E9C4-6D0B-439C-8099-D4BFC9A3B348";
name = "1. Jan. 24, 11:33";
shapes = (
{
closed = 1;
nodes = (
(340,-13,o),
(418,26,o),
(457,80,c),
(435,108,l),
(397,72,o),
(340,47,o),
(297,47,cs),
(205,47,o),
(140,140,o),
(140,272,c),
(464,272,l),
(476,415,o),
(398,517,o),
(275,517,cs),
(141,517,o),
(46,401,o),
(45,237,cs),
(44,91,o),
(136,-13,o),
(267,-13,cs)
);
},
{
closed = 1;
nodes = (
(138,411,o),
(182,478,o),
(243,478,cs),
(311,478,o),
(362,411,o),
(367,308,c),
(371,312,ls),
(373,314,o),
(321,314,o),
(263,312,cs),
(138,308,l)
);
}
);
width = 510;
},
{
anchors = (
{
name = ogo;
pos = (247,-6);
},
{
name = top;
pos = (263,500);
}
);
background = {
shapes = (
{
closed = 1;
nodes = (
(424,517,o),
(521,416,o),
(521,262,cs),
(521,91,o),
(424,-15,o),
(285,-15,cs),
(138,-15,o),
(45,91,o),
(45,262,cs),
(45,416,o),
(138,517,o),
(285,517,cs)
);
},
{
closed = 1;
nodes = (
(197,483,o),
(146,426,o),
(146,290,cs),
(146,101,o),
(206,18,o),
(298,18,cs),
(367,18,o),
(420,81,o),
(420,231,cs),
(420,407,o),
(359,483,o),
(272,483,cs)
);
},
{
closed = 1;
nodes = (
(142,517,o),
(48,401,o),
(47,237,cs),
(46,91,o),
(139,-13,o),
(269,-13,cs),
(317,-13,o),
(369,7,o),
(411,38,cs),
(445,64,o),
(453,88,o),
(446,95,cs),
(438,103,o),
(422,89,o),
(386,70,cs),
(359,55,o),
(328,47,o),
(299,47,cs),
(207,47,o),
(142,143,o),
(142,272,c),
(466,272,l),
(479,426,o),
(400,517,o),
(277,517,cs)
);
},
{
closed = 1;
nodes = (
(140,411,o),
(184,489,o),
(245,489,cs),
(313,489,o),
(364,411,o),
(369,308,c),
(373,312,ls),
(375,314,o),
(323,314,o),
(265,312,cs),
(140,308,l)
);
}
);
};
layerId = m01;
name = Regular;
shapes = (
{
closed = 1;
nodes = (
(342,-13,o),
(420,26,o),
(459,80,c),
(437,108,l),
(399,72,o),
(342,47,o),
(299,47,cs),
(203,47,o),
(137,147,o),
(142,288,c),
(124,272,l),
(466,272,l),
(467,282,o),
(467,291,o),
(467,301,cs),
(467,428,o),
(392,517,o),
(277,517,cs),
(142,517,o),
(47,399,o),
(47,235,cs),
(47,90,o),
(139,-13,o),
(269,-13,cs)
);
},
{
closed = 1;
nodes = (
(135,404,o),
(181,478,o),
(245,478,cs),
(316,478,o),
(367,406,o),
(370,297,c),
(374,314,l),
(122,307,l),
(140,291,l)
);
}
);
width = 514;
},
{
anchors = (
{
name = ogo;
pos = (290,-6);
},
{
name = top;
pos = (288,500);
}
);
hints = (
{
horizontal = 1;
place = (-18,68);
type = Stem;
},
{
horizontal = 1;
place = (269,43);
type = Stem;
},
{
horizontal = 1;
place = (475,40);
type = Stem;
},
{
place = (-15,182);
type = Stem;
},
{
place = (310,182);
type = Stem;
},
{
place = (-15,181);
type = Stem;
}
);
layerId = "E0989092-07D5-4BE4-A82B-4E03160A36DB";
shapes = (
{
closed = 1;
nodes = (
(383,-18,o),
(481,22,o),
(530,78,c),
(499,111,l),
(453,65,o),
(381,33,o),
(325,33,cs),
(260,33,o),
(213,131,o),
(212,271,c),
(200,262,l),
(536,262,l),
(537,272,o),
(537,289,o),
(537,298,cs),
(537,451,o),
(425,515,o),
(303,515,cs),
(133,515,o),
(30,409,o),
(30,250,cs),
(30,95,o),
(147,-18,o),
(295,-18,cs)
);
},
{
closed = 1;
nodes = (
(217,425,o),
(244,464,o),
(271,464,cs),
(302,464,o),
(351,426,o),
(355,298,c),
(377,311,l),
(199,309,l),
(211,296,l)
);
}
);
width = 567;
}
);
metricLeft = o;
metricRight = o;
unicode = 101;
},
{
glyphname = schwa;
kernLeft = e;
kernRight = e;
layers = (
{
layerId = m01;
shapes = (
{
closed = 1;
nodes = (
(172,515,o),
(94,476,o),
(55,422,c),
(77,394,l),
(115,430,o),
(172,455,o),
(215,455,cs),
(311,455,o),
(377,355,o),
(372,214,c),
(390,230,l),
(48,230,l),
(47,220,o),
(47,211,o),
(47,201,cs),
(47,74,o),
(122,-15,o),
(237,-15,cs),
(372,-15,o),
(467,103,o),
(467,267,cs),
(467,412,o),
(375,515,o),
(245,515,cs)
);
},
{
closed = 1;
nodes = (
(392,195,l),
(374,211,l),
(379,98,o),
(333,24,o),
(269,24,cs),
(198,24,o),
(147,96,o),
(144,205,c),
(137,185,l)
);
}
);
width = 514;
},
{
associatedMasterId = m01;
layerId = "8D250E25-4A73-4E42-8D01-181B9D146360";
name = "1. Jan. 24, 12:11";
shapes = (
{
closed = 1;
nodes = (
(369,-26,o),
(464,90,o),
(465,254,cs),
(466,400,o),
(374,504,o),
(243,504,cs),
(170,504,o),
(92,465,o),
(53,411,c),
(75,383,l),
(113,419,o),
(170,444,o),
(213,444,cs),
(305,444,o),
(370,351,o),
(370,219,c),
(46,219,l),
(34,76,o),
(112,-26,o),
(235,-26,cs)
);
},
{
closed = 1;
nodes = (
(199,13,o),
(148,80,o),
(143,183,c),
(139,179,ls),
(137,177,o),
(189,177,o),
(247,179,cs),
(372,183,l),
(372,80,o),
(328,13,o),
(267,13,cs)
);
}
);
width = 510;
},
{
layerId = "E0989092-07D5-4BE4-A82B-4E03160A36DB";
shapes = (
{
closed = 1;
nodes = (
(178,516,o),
(85,442,o),
(54,398,c),
(90,362,l),
(148,431,o),
(206,447,o),
(241,447,cs),
(298,447,o),
(354,368,o),
(355,229,c),
(357,231,l),
(31,231,l),
(30,221,o),
(30,210,o),
(30,202,cs),
(30,48,o),
(141,-16,o),
(263,-16,cs),
(433,-16,o),
(536,106,o),
(536,265,cs),
(536,420,o),
(419,516,o),
(271,516,cs)
);
},
{
closed = 1;
nodes = (
(358,187,l),
(356,190,l),
(348,80,o),
(322,25,o),
(295,25,cs),
(264,25,o),
(215,36,o),
(212,192,c),
(210,189,l)
);
}
);
width = 566;
}
);
metricLeft = o;
metricRight = o;
unicode = 601;
},
{
glyphname = f;
layers = (
{
layerId = m01;
shapes = (
{
closed = 1;
nodes = (
(302,0,l),
(302,19,l),
(191,56,l),
(208,32,l),
(208,480,l),
(190,462,l),
(330,462,l),
(330,502,l),
(190,502,l),
(208,484,l),
(208,598,ls),
(208,709,o),
(233,787,o),
(288,787,cs),
(318,787,o),
(361,740,o),
(384,682,c),
(410,682,l),
(431,802,l),
(410,809,o),
(360,814,o),
(317,814,cs),
(192,814,o),
(118,711,o),
(118,566,cs),
(118,484,l),
(136,502,l),
(10,502,l),
(10,462,l),
(136,462,l),
(118,480,l),
(118,32,l),
(135,56,l),
(27,20,l),
(27,0,l)
);
}
);
width = 441;
},
{
associatedMasterId = m01;
layerId = "A8992DFB-D995-4A8B-9681-2BC8D3A33222";
name = "1. Jan. 24, 11:36";
shapes = (
{
closed = 1;
nodes = (
(219,598,l),
(219,709,o),
(244,787,o),
(299,787,cs),
(353,787,o),
(375,722,o),
(395,672,c),
(431,672,l),
(442,792,l),
(417,805,o),
(362,814,o),
(328,814,cs),
(203,814,o),
(129,711,o),
(129,566,c)
);
},
{
closed = 1;
nodes = (
(313,0,l),
(313,19,l),
(219,50,l),
(129,50,l),
(38,20,l),
(38,0,l)
);
},
{
closed = 1;
nodes = (
(219,50,l),
(219,598,l),
(129,566,l),
(129,50,l)
);
},
{
closed = 1;
nodes = (
(341,462,l),
(341,502,l),
(22,502,l),
(20,462,l)
);
}
);
width = 372;
},
{
hints = (
{
horizontal = 1;
place = (0,24);
type = Stem;
},
{
horizontal = 1;
place = (452,47);
type = Stem;
},
{
horizontal = 1;
place = (784,33);
type = Stem;
},
{
place = (86,176);
type = Stem;
},
{
place = (355,74);
type = Stem;
},
{
horizontal = 1;
place = (0,25);
type = Stem;
}
);
layerId = "E0989092-07D5-4BE4-A82B-4E03160A36DB";
shapes = (
{
closed = 1;
nodes = (
(375,0,l),
(375,24,l),
(279,59,l),
(281,56,l),
(281,454,l),
(279,452,l),
(410,452,l),
(410,499,l),
(279,499,l),
(281,497,l),
(281,605,ls),
(281,717,o),
(300,784,o),
(328,784,cs),
(364,784,o),
(395,740,o),
(393,679,c),
(433,679,l),
(458,794,l),
(417,810,o),
(384,817,o),
(347,817,cs),
(180,817,o),
(105,698,o),
(105,543,cs),
(105,497,l),
(107,499,l),
(5,499,l),
(7,452,l),
(107,452,l),
(105,454,l),
(105,56,l),
(107,59,l),
(14,25,l),
(14,0,l)
);
}
);
width = 443;
}
);
metricLeft = n;
metricRight = n;
unicode = 102;
},
{
glyphname = g;
kernLeft = g;
kernRight = g;
layers = (
{
anchors = (
{
name = top;
pos = (244,500);
}
);
layerId = m01;
shapes = (
{
closed = 1;
nodes = (
(425,-216,o),
(517,-131,o),
(517,-10,cs),
(517,42,o),
(475,92,o),
(410,92,cs),
(184,92,ls),
(135,92,o),
(104,110,o),
(104,149,cs),
(104,165,o),
(123,207,o),
(131,220,c),
(122,218,l),
(153,186,o),
(208,168,o),
(263,168,cs),
(401,168,o),
(472,249,o),
(472,361,cs),
(472,403,o),
(457,440,o),
(431,465,c),
(416,458,l),
(555,450,l),
(564,458,l),
(564,497,l),
(382,485,l),
(414,480,l),
(384,503,o),
(343,515,o),
(283,515,cs),
(158,515,o),
(73,446,o),
(73,342,cs),
(73,296,o),
(88,256,o),
(113,226,c),
(108,240,l),
(75,218,o),
(43,159,o),
(43,131,cs),
(43,85,o),
(68,47,o),
(101,24,c),
(101,40,l),
(65,4,o),
(33,-44,o),
(33,-86,cs),
(33,-162,o),
(146,-216,o),
(264,-216,cs)
);
},
{
closed = 1;
nodes = (
(181,-163,o),
(82,-124,o),
(82,-62,cs),
(82,-23,o),
(107,-8,o),
(132,22,c),
(113,17,l),
(133,6,o),
(157,0,o),
(183,0,cs),
(343,0,ls),
(419,0,o),
(464,-28,o),
(464,-67,cs),
(464,-126,o),
(397,-163,o),
(279,-163,cs)
);
},
{
closed = 1;
nodes = (
(205,203,o),
(172,261,o),
(172,358,cs),
(172,438,o),
(208,480,o),
(264,480,cs),
(339,480,o),
(376,427,o),
(376,328,cs),
(376,250,o),
(337,203,o),
(275,203,cs)
);
}
);
width = 575;
},
{
associatedMasterId = m01;
layerId = "3192C36B-E30A-466F-8F8A-7BE123BAD7E2";
name = "1. Jan. 24, 11:37";
shapes = (
{
closed = 1;
nodes = (
(406,-216,o),
(503,-131,o),
(503,-10,cs),
(503,42,o),
(456,92,o),
(391,92,cs),
(185,92,ls),
(136,92,o),
(100,110,o),
(100,149,cs),
(100,161,o),
(111,180,o),
(121,195,cs),
(140,223,o),
(149,240,o),
(143,248,cs),
(138,255,o),
(110,245,o),
(81,208,cs),
(61,181,o),
(49,154,o),
(49,131,cs),
(49,54,o),
(105,0,o),
(185,0,cs),
(325,0,ls),
(401,0,o),
(446,-28,o),
(446,-67,cs),
(446,-126,o),
(379,-168,o),
(271,-168,cs),
(173,-168,o),
(84,-124,o),
(84,-62,cs),
(84,-35,o),
(95,-20,o),
(116,2,cs),
(149,37,o),
(173,65,o),
(164,70,cs),
(155,76,o),
(133,69,o),
(103,41,cs),
(66,4,o),
(34,-43,o),
(34,-86,cs),
(34,-162,o),
(137,-216,o),
(255,-216,cs)
);
},
{
closed = 1;
nodes = (
(382,168,o),
(453,249,o),
(453,361,cs),
(453,454,o),
(384,515,o),
(274,515,cs),
(149,515,o),
(74,446,o),
(74,342,cs),
(74,240,o),
(146,168,o),
(254,168,cs)
);
},
{
closed = 1;
nodes = (
(197,203,o),
(174,261,o),
(174,358,cs),
(174,438,o),
(200,480,o),
(256,480,cs),
(321,480,o),
(358,427,o),
(358,328,cs),
(358,250,o),
(319,203,o),
(267,203,cs)
);
},
{
closed = 1;
nodes = (
(550,458,l),
(550,497,l),
(364,485,l),
(364,454,o),
(374,460,o),
(430,457,cs),
(541,450,l)
);
}
);
width = 550;
},
{
anchors = (
{
name = top;
pos = (290,500);
}
);
hints = (
{
horizontal = 1;
place = (-219,38);
type = Stem;
},
{
horizontal = 1;
place = (-3,102);
type = Stem;
},
{
horizontal = 1;
place = (165,41);
type = Stem;
},
{
horizontal = 1;
place = (475,42);
type = Stem;
},
{
place = (7,107);
type = Stem;
},
{
place = (449,99);
type = Stem;
},
{
horizontal = 1;
place = (449,55);
type = Stem;
},
{
place = (39,128);
type = Stem;
},
{
place = (348,165);
type = Stem;
},
{
place = (47,170);
type = Stem;
},
{
horizontal = 1;
place = (0,21);
target = up;
type = BottomGhost;
}
);
layerId = "E0989092-07D5-4BE4-A82B-4E03160A36DB";
shapes = (
{
closed = 1;
nodes = (
(433,-219,o),
(547,-125,o),
(547,7,cs),
(547,73,o),
(489,119,o),
(407,119,cs),
(201,119,ls),
(175,119,o),
(156,131,o),
(156,149,cs),
(156,156,o),
(162,167,o),
(170,175,cs),
(172,177,l),
(198,170,o),
(239,165,o),
(270,165,cs),
(412,165,o),
(512,246,o),
(512,361,cs),
(512,392,o),
(497,431,o),
(475,454,c),
(474,453,l),
(560,445,l),
(566,455,l),
(566,504,l),
(422,492,l),
(419,493,ls),
(376,507,o),
(323,517,o),
(290,517,cs),
(147,517,o),
(46,444,o),
(46,342,cs),
(46,302,o),
(68,250,o),
(100,218,c),
(101,220,l),
(70,207,o),
(38,174,o),
(38,131,cs),
(38,89,o),
(55,53,o),
(84,29,c),
(84,40,l),
(36,-11,o),
(16,-60,o),
(16,-86,cs),
(16,-164,o),
(116,-219,o),
(271,-219,cs)
);
},
{
closed = 1;
nodes = (
(207,-181,o),
(123,-152,o),
(123,-82,cs),
(123,-58,o),
(124,-22,o),
(157,4,c),
(133,4,l),
(149,-7,o),
(180,-13,o),
(201,-13,cs),
(341,-13,ls),
(398,-13,o),
(448,-10,o),
(448,-62,cs),
(448,-133,o),
(375,-181,o),
(287,-181,cs)
);
},
{
closed = 1;
nodes = (
(245,215,o),
(226,262,o),
(226,358,cs),
(226,431,o),
(241,467,o),
(272,467,cs),
(316,467,o),
(337,421,o),
(337,328,cs),
(337,252,o),
(319,215,o),
(283,215,cs)
);
}
);
width = 590;
}
);
unicode = 103;
},
{
glyphname = h;
kernLeft = h;
kernRight = h;
layers = (
{
anchors = (
{
name = top;
pos = (204,736);
}
);
layerId = m01;
shapes = (
{
closed = 1;
nodes = (
(278,0,l),
(278,30,l),
(187,55,l),
(204,32,l),
(204,426,l),
(195,399,l),
(233,436,o),
(283,470,o),
(324,470,cs),
(392,470,o),
(440,415,o),
(440,338,cs),
(440,32,l),
(457,55,l),
(366,30,l),
(366,0,l),
(621,0,l),
(621,20,l),
(513,56,l),
(530,32,l),
(530,366,ls),
(530,453,o),
(457,515,o),
(355,515,cs),
(303,515,o),
(241,479,o),
(195,440,c),
(204,430,l),
(204,718,l),
(206,794,l),
(196,800,l),
(10,745,l),
(10,729,l),
(132,715,l),
(114,735,l),
(114,32,l),
(131,56,l),
(23,20,l),
(23,0,l)
);
}
);
width = 631;
},
{
associatedMasterId = m01;
layerId = "8DB1B957-2715-4A2D-B5E6-8FC92795BC9D";
name = "1. Jan. 24, 11:40";
shapes = (
{
closed = 1;
nodes = (
(611,0,l),
(611,20,l),
(520,50,l),
(520,366,ls),
(520,453,o),
(447,515,o),
(345,515,cs),
(281,515,o),
(203,462,o),
(157,415,c),
(160,374,l),
(200,419,o),
(263,470,o),
(314,470,cs),
(382,470,o),
(430,415,o),
(430,338,cs),
(430,50,l),
(356,30,l),
(356,0,l)
);
},
{
closed = 1;
nodes = (
(268,0,l),
(268,30,l),
(194,50,l),
(104,50,l),
(13,20,l),
(13,0,l)
);
},
{
closed = 1;
nodes = (
(194,50,l),
(194,718,l),
(196,794,l),
(186,800,l),
(0,745,l),
(0,729,l),
(104,717,l),
(104,50,l)
);
}
);
width = 611;
},
{
anchors = (
{
name = top;
pos = (254,778);
}
);
hints = (
{
horizontal = 1;
place = (-3,16);
type = Stem;
},
{
horizontal = 1;
place = (472,46);
type = Stem;
},
{
place = (61,176);
type = Stem;
},
{
place = (387,176);
type = Stem;
}
);
layerId = "E0989092-07D5-4BE4-A82B-4E03160A36DB";
shapes = (
{
closed = 1;
nodes = (
(317,0,l),
(317,20,l),
(252,51,l),
(254,48,l),
(254,422,l),
(253,419,l),
(281,443,o),
(317,461,o),
(341,461,cs),
(378,461,o),
(404,410,o),
(404,338,cs),
(404,48,l),
(406,51,l),
(341,20,l),
(341,0,l),
(653,0,l),
(653,20,l),
(578,51,l),
(580,48,l),
(580,366,ls),
(580,455,o),
(494,517,o),
(372,517,cs),
(337,517,o),
(290,502,o),
(253,477,c),
(254,476,l),
(254,718,l),
(256,787,l),
(248,810,l),
(5,759,l),
(5,729,l),
(80,708,l),
(78,711,l),
(78,48,l),
(80,51,l),
(5,20,l),
(5,0,l)
);
}
);
width = 638;
}
);
metricLeft = n;
metricRight = n;
unicode = 104;
},
{
glyphname = hbar;
kernLeft = h;
kernRight = h;
layers = (
{
layerId = m01;
shapes = (
{
closed = 1;
nodes = (
(358,599,l),
(358,639,l),
(10,639,l),
(10,599,l)
);
},
{
pos = (10,0);
ref = h;
}
);
width = 641;
},
{
associatedMasterId = m01;
layerId = "E9985261-3291-4F33-92F3-764F9EFE2FE5";
name = "3. Jan. 24, 21:15";
shapes = (
{
closed = 1;
nodes = (
(611,0,l),
(611,20,l),
(520,50,l),
(520,366,ls),
(520,453,o),
(447,515,o),
(345,515,cs),
(281,515,o),
(203,462,o),
(157,415,c),
(160,374,l),
(200,419,o),
(263,470,o),
(314,470,cs),
(382,470,o),
(430,415,o),
(430,338,cs),
(430,50,l),
(356,30,l),
(356,0,l)
);
},
{
closed = 1;
nodes = (
(268,0,l),
(268,30,l),
(194,50,l),
(104,50,l),
(13,20,l),
(13,0,l)
);
},
{
closed = 1;
nodes = (
(194,50,l),
(194,718,l),
(196,794,l),
(186,800,l),
(0,745,l),
(0,729,l),
(104,717,l),
(104,50,l)
);
},
{
closed = 1;
nodes = (
(347,599,l),
(347,639,l),
(-1,639,l),
(-1,599,l)
);
}
);
width = 611;
},
{
hints = (
{
horizontal = 1;
place = (-3,16);
type = Stem;
},
{
horizontal = 1;
place = (472,46);
type = Stem;
},
{
horizontal = 1;
place = (596,46);
type = Stem;
},
{
place = (61,176);
type = Stem;
},
{
place = (387,176);
type = Stem;
}
);
layerId = "E0989092-07D5-4BE4-A82B-4E03160A36DB";
shapes = (
{
closed = 1;
nodes = (
(353,589,l),
(353,639,l),
(5,639,l),
(5,589,l)
);
},
{
pos = (5,0);
ref = h;
}
);
width = 643;
}
);
metricLeft = n;
metricRight = n;
unicode = 295;
},
{
glyphname = hcircumflex;
kernLeft = h;
kernRight = h;
layers = (
{
background = {
shapes = (
{
closed = 1;
nodes = (
(616,0,l),
(616,20,l),
(508,56,l),
(525,32,l),
(525,366,ls),
(525,453,o),
(452,515,o),
(350,515,cs),
(298,515,o),
(236,479,o),
(190,440,c),
(199,430,l),
(199,718,l),
(201,794,l),
(191,800,l),
(5,745,l),
(5,729,l),
(127,715,l),
(109,735,l),
(109,32,l),
(126,56,l),
(18,20,l),
(18,0,l),
(273,0,l),
(273,30,l),
(182,55,l),
(199,32,l),
(199,426,l),
(190,399,l),
(228,436,o),
(278,470,o),
(319,470,cs),
(387,470,o),
(435,415,o),
(435,338,cs),
(435,32,l),
(452,55,l),
(361,30,l),
(361,0,l)
);
}
);
};
layerId = m01;
shapes = (
{
ref = h;
},
{
alignment = -1;
pos = (-153,40);
ref = circumflexcomb.case;
}
);
width = 631;
},
{
hints = (
{
horizontal = 1;
place = (-3,16);
type = Stem;
},
{
horizontal = 1;
place = (462,45);
type = Stem;
},
{
place = (61,176);
type = Stem;
},
{
place = (387,176);
type = Stem;
}
);
layerId = "E0989092-07D5-4BE4-A82B-4E03160A36DB";
shapes = (
{
ref = h;
},
{
alignment = -1;
pos = (-198,68);
ref = circumflexcomb.case;
}
);
width = 638;
}
);
metricRight = n;
unicode = 293;
},
{
glyphname = idotless;
kernLeft = i;
kernRight = i;
layers = (
{
anchors = (
{
name = ogo;
pos = (130,0);
},
{
name = top;
pos = (159,500);
}
);
layerId = m01;
shapes = (
{
closed = 1;
nodes = (
(298,0,l),
(298,20,l),
(187,57,l),
(204,33,l),
(204,434,l),
(206,510,l),
(196,516,l),
(10,461,l),
(10,445,l),
(132,431,l),
(114,451,l),
(114,32,l),
(131,55,l),
(20,20,l),
(20,0,l)
);
}
);
width = 308;
},
{
anchors = (
{
name = ogo;
pos = (167,0);
},
{
name = top;
pos = (156,500);
}
);
layerId = "E0989092-07D5-4BE4-A82B-4E03160A36DB";
shapes = (
{
closed = 1;
nodes = (
(327,0,l),
(327,20,l),
(252,51,l),
(254,28,l),
(254,427,l),
(256,493,l),
(248,516,l),
(5,465,l),
(5,435,l),
(80,414,l),
(78,437,l),
(78,28,l),
(80,51,l),
(5,20,l),
(5,0,l)
);
}
);
width = 312;
}
);
metricLeft = n;
metricRight = n;
unicode = 305;
},
{
glyphname = j;
kernLeft = j;
kernRight = j;
layers = (
{
layerId = m01;
shapes = (
{
alignment = -1;
ref = jdotless;
},
{
alignment = -1;
pos = (-125,0);
ref = dotaccentcomb;
}
);
width = 275;
},
{
associatedMasterId = m01;
layerId = "AD174E00-7E5C-4841-A718-CD0FD23CFE27";
name = "1. Jan. 24, 11:45";
shapes = (
{
closed = 1;
nodes = (
(215,50,l),
(215,434,l),
(217,510,l),
(207,516,l),
(21,461,l),
(21,445,l),
(125,433,l),
(125,50,l)
);
},
{
closed = 1;
nodes = (
(56,-215,l),
(56,-215,o),
(69,-213,o),
(94,-197,cs),
(165,-155,o),
(215,-52,o),
(215,50,c),
(125,50,l),
(125,-59,o),
(92,-159,o),
(46,-192,c),
(46,-194,o),
(50,-204,o),
(55,-215,c)
);
},
{
closed = 1;
nodes = (
(193,598,o),
(220,625,o),
(220,659,cs),
(220,693,o),
(193,720,o),
(160,720,cs),
(125,720,o),
(98,693,o),
(98,659,cs),
(98,625,o),
(125,598,o),
(160,598,cs)
);
}
);
width = 318;
},
{
hints = (
{
horizontal = 1;
place = (-218,34);
type = Stem;
},
{
horizontal = 1;
place = (500,-20);
target = down;
type = TopGhost;
},
{
horizontal = 1;
place = (574,196);
type = Stem;
},
{
place = (82,176);
type = Stem;
},
{
place = (52,208);
type = Stem;
}
);
layerId = "E0989092-07D5-4BE4-A82B-4E03160A36DB";
shapes = (
{
alignment = -1;
pos = (-3,0);
ref = jdotless;
},
{
alignment = -1;
pos = (-151,0);
ref = dotaccentcomb;
}
);
width = 311;
}
);
unicode = 106;
},
{
glyphname = jdotless;
kernLeft = j;
kernRight = j;
layers = (
{
anchors = (
{
name = top;
pos = (141,500);
}
);
layerId = m01;
shapes = (
{
closed = 1;
nodes = (
(36,-215,o),
(49,-213,o),
(74,-197,cs),
(145,-155,o),
(195,-52,o),
(195,50,cs),
(195,434,l),
(197,510,l),
(187,516,l),
(1,461,l),
(1,445,l),
(123,431,l),
(105,451,l),
(105,50,ls),
(105,-59,o),
(72,-159,o),
(26,-192,c),
(35,-215,l)
);
}
);
width = 267;
},
{
associatedMasterId = m01;
layerId = "1DE9B65E-76D8-4CA9-B06C-536EB58BF2F2";
name = "1. Jan. 24, 11:43";
shapes = (
{
closed = 1;
nodes = (
(215,50,l),
(215,434,l),
(217,510,l),
(207,516,l),
(21,461,l),
(21,445,l),
(125,433,l),
(125,50,l)
);
},
{
closed = 1;
nodes = (
(56,-215,l),
(56,-215,o),
(69,-213,o),
(94,-197,cs),
(165,-155,o),
(215,-52,o),
(215,50,c),
(125,50,l),
(125,-59,o),
(92,-159,o),
(46,-192,c),
(46,-194,o),
(50,-204,o),
(55,-215,c)
);
}
);
width = 315;
},
{
anchors = (
{
name = top;
pos = (160,500);
}
);
layerId = "E0989092-07D5-4BE4-A82B-4E03160A36DB";
shapes = (
{
closed = 1;
nodes = (
(44,-218,o),
(99,-201,o),
(125,-185,cs),
(201,-138,o),
(256,-40,o),
(256,53,cs),
(256,428,l),
(258,493,l),
(250,516,l),
(7,465,l),
(7,435,l),
(82,414,l),
(80,417,l),
(80,55,ls),
(80,-83,o),
(45,-182,o),
(-3,-184,c),
(1,-218,l)
);
}
);
width = 311;
}
);
metricLeft = j;
metricRight = j;
unicode = 567;
},
{
glyphname = k;
kernLeft = k;
kernRight = k;
layers = (
{
layerId = m01;
shapes = (
{
closed = 1;
nodes = (
(298,0,l),
(298,20,l),
(187,55,l),
(204,32,l),
(204,227,l),
(191,197,l),
(285,284,l),
(261,285,l),
(437,0,l),
(587,0,l),
(587,20,l),
(496,58,l),
(523,36,l),
(326,348,l),
(321,319,l),
(486,474,l),
(456,458,l),
(547,480,l),
(548,500,l),
(344,500,l),
(344,480,l),
(417,456,l),
(412,475,l),
(192,242,l),
(204,237,l),
(204,718,l),
(206,794,l),
(196,800,l),
(10,745,l),
(10,729,l),
(135,714,l),
(115,734,l),
(115,32,l),
(134,55,l),
(23,20,l),
(23,0,l)
);
}
);
width = 565;
},
{
associatedMasterId = m01;
layerId = "9B6F67A2-0059-402E-AE8F-5FD6A9989018";
name = "1. Jan. 24, 11:45";
shapes = (
{
closed = 1;
nodes = (
(204,50,l),
(204,718,l),
(206,794,l),
(196,800,l),
(10,745,l),
(10,729,l),
(117,716,l),
(117,50,l)
);
},
{
closed = 1;
nodes = (
(298,0,l),
(298,20,l),
(204,50,l),
(114,50,l),
(23,20,l),
(23,0,l)
);
},
{
closed = 1;
nodes = (
(587,0,l),
(587,20,l),
(513,51,l),
(320,353,l),
(261,290,l),
(437,0,l)
);
},
{
closed = 1;
nodes = (
(473,462,l),
(547,480,l),
(548,500,l),
(344,500,l),
(344,480,l),
(400,462,l),
(177,227,l),
(162,169,l)
);
}
);
width = 580;
},
{
hints = (
{
horizontal = 1;
place = (-3,16);
type = Stem;
},
{
horizontal = 1;
place = (487,16);
type = Stem;
},
{
place = (75,171);
type = Stem;
}
);
layerId = "E0989092-07D5-4BE4-A82B-4E03160A36DB";
shapes = (
{
closed = 1;
nodes = (
(317,0,l),
(317,20,l),
(252,51,l),
(254,48,l),
(254,220,l),
(252,217,l),
(273,234,l),
(270,235,l),
(408,0,l),
(649,0,l),
(649,15,l),
(583,48,l),
(586,45,l),
(401,359,l),
(400,355,l),
(518,464,l),
(514,461,l),
(599,482,l),
(599,500,l),
(365,500,l),
(365,484,l),
(437,462,l),
(437,465,l),
(252,291,l),
(254,291,l),
(254,718,l),
(256,787,l),
(248,810,l),
(5,759,l),
(5,729,l),
(80,708,l),
(78,711,l),
(78,48,l),
(80,51,l),
(5,20,l),
(5,0,l)
);
}
);
width = 634;
}
);
metricLeft = n;
metricRight = v;
unicode = 107;
},
{
glyphname = l;
kernLeft = l;
kernRight = l;
layers = (
{
anchors = (
{
name = com;
pos = (160,-1);
},
{
name = top;
pos = (153,768);
}
);
layerId = m01;
name = Regular;
shapes = (
{
closed = 1;
nodes = (
(298,0,l),
(298,19,l),
(187,56,l),
(203,32,l),
(203,718,l),
(206,794,l),
(196,800,l),
(10,745,l),
(10,729,l),
(132,715,l),
(114,735,l),
(114,32,l),
(131,56,l),
(23,20,l),
(23,0,l)
);
}
);
width = 308;
},
{
associatedMasterId = m01;
layerId = "A15B75CE-A110-42FD-8751-B3CA27D4E7C0";
name = "1. Jan. 24, 11:47";
shapes = (
{
closed = 1;
nodes = (
(209,50,l),
(209,718,l),
(211,794,l),
(201,800,l),
(15,745,l),
(15,729,l),
(119,717,l),
(119,50,l)
);
},
{
closed = 1;
nodes = (
(303,0,l),
(303,19,l),
(209,50,l),
(119,50,l),
(28,20,l),
(28,0,l)
);
}
);
width = 318;
},
{
anchors = (
{
name = com;
pos = (153,0);
},
{
name = top;
pos = (150,768);
}
);
background = {
shapes = (
{
closed = 1;
nodes = (
(5,294,l),
(327,294,l),
(327,314,l),
(254,344,l),
(254,721,l),
(256,787,l),
(248,810,l),
(5,759,l),
(5,729,l),
(78,709,l),
(78,344,l),
(5,314,l)
);
}
);
};
hints = (
{
horizontal = 1;
place = (-3,15);
type = Stem;
},
{
place = (52,178);
type = Stem;
}
);
layerId = "E0989092-07D5-4BE4-A82B-4E03160A36DB";
shapes = (
{
closed = 1;
nodes = (
(327,0,l),
(327,20,l),
(252,51,l),
(254,48,l),
(254,718,l),
(256,787,l),
(248,810,l),
(5,759,l),
(5,729,l),
(80,708,l),
(78,711,l),
(78,48,l),
(80,51,l),
(5,20,l),
(5,0,l)
);
}
);
width = 312;
}
);
metricLeft = n;
metricRight = n;
unicode = 108;
},
{
glyphname = lslash;
kernLeft = l;
kernRight = l;
layers = (
{
layerId = m01;
shapes = (
{
closed = 1;
nodes = (
(319,464,l),
(299,503,l),
(17,350,l),
(37,311,l)
);
},
{
ref = l;
}
);
width = 329;
},
{
hints = (
{
horizontal = 1;
place = (-3,15);
type = Stem;
},
{
place = (76,176);
type = Stem;
}
);
layerId = "E0989092-07D5-4BE4-A82B-4E03160A36DB";
shapes = (
{
closed = 1;
nodes = (
(335,450,l),
(307,503,l),
(5,350,l),
(33,297,l)
);
},
{
pos = (8,0);
ref = l;
}
);
width = 320;
}
);
metricLeft = n;
metricRight = n;
unicode = 322;
},
{
glyphname = m;
layers = (
{
layerId = m01;
shapes = (
{
closed = 1;
nodes = (
(280,0,l),
(280,30,l),
(187,55,l),
(204,32,l),
(204,425,l),
(197,401,l),
(221,439,o),
(257,470,o),
(294,470,cs),
(356,470,o),
(400,424,o),
(400,358,cs),
(400,32,l),
(417,55,l),
(326,30,l),
(326,0,l),
(561,0,l),
(561,30,l),
(473,54,l),
(490,31,l),
(490,386,ls),
(490,398,o),
(488,408,o),
(487,420,c),
(478,396,l),
(513,441,o),
(552,470,o),
(580,470,cs),
(642,470,o),
(686,424,o),
(686,358,cs),
(686,32,l),
(703,55,l),
(612,30,l),
(612,0,l),
(867,0,l),
(867,20,l),
(759,56,l),
(776,32,l),
(776,386,ls),
(776,462,o),
(708,515,o),
(611,515,cs),
(565,515,o),
(507,483,o),
(466,433,c),
(480,434,l),
(458,483,o),
(400,515,o),
(325,515,cs),
(274,515,o),
(227,483,o),
(194,443,c),
(204,434,l),
(197,510,l),
(187,516,l),
(10,461,l),
(10,445,l),
(132,431,l),
(114,451,l),
(114,32,l),
(131,55,l),
(20,20,l),
(20,0,l)
);
}
);
width = 877;
},
{
associatedMasterId = m01;
layerId = "FAD1F498-5E4E-41A1-99D8-AD97216B36F5";
name = "1. Jan. 24, 11:48";
shapes = (
{
closed = 1;
nodes = (
(867,0,l),
(867,20,l),
(776,50,l),
(776,386,ls),
(776,462,o),
(708,515,o),
(611,515,cs),
(559,515,o),
(493,474,o),
(453,415,c),
(456,364,l),
(494,426,o),
(546,470,o),
(580,470,cs),
(642,470,o),
(686,424,o),
(686,358,cs),
(686,50,l),
(612,30,l),
(612,0,l)
);
},
{
closed = 1;
nodes = (
(280,0,l),
(280,30,l),
(204,50,l),
(204,434,l),
(197,510,l),
(187,516,l),
(10,461,l),
(10,445,l),
(114,433,l),
(114,50,l),
(20,20,l),
(20,0,l)
);
},
{
closed = 1;
nodes = (
(561,0,l),
(561,30,l),
(490,49,l),
(490,386,ls),
(490,462,o),
(422,515,o),
(325,515,cs),
(255,515,o),
(190,454,o),
(167,395,c),
(170,344,l),
(189,406,o),
(240,470,o),
(294,470,cs),
(356,470,o),
(400,424,o),
(400,358,cs),
(400,50,l),
(326,30,l),
(326,0,l)
);
}
);
width = 877;
},
{
background = {
shapes = (
{
closed = 0;
nodes = (
(931,0,l),
(931,20,l),
(853,52,l),
(858,40,l)
);
}
);
};
hints = (
{
horizontal = 1;
place = (-3,16);
type = Stem;
},
{
horizontal = 1;
place = (467,51);
type = Stem;
},
{
place = (54,177);
type = Stem;
},
{
place = (357,176);
type = Stem;
},
{
place = (659,177);
type = Stem;
},
{
horizontal = 1;
place = (-3,28);
type = Stem;
}
);
layerId = "E0989092-07D5-4BE4-A82B-4E03160A36DB";
shapes = (
{
closed = 1;
nodes = (
(297,0,l),
(297,20,l),
(252,50,l),
(254,47,l),
(254,435,l),
(252,432,l),
(278,452,o),
(303,462,o),
(317,462,cs),
(354,462,o),
(380,426,o),
(380,368,cs),
(380,44,l),
(382,47,l),
(342,20,l),
(342,0,l),
(602,0,l),
(602,20,l),
(554,45,l),
(556,42,l),
(556,396,ls),
(556,407,o),
(554,419,o),
(549,430,c),
(548,428,l),
(576,451,o),
(604,462,o),
(619,462,cs),
(656,462,o),
(682,426,o),
(682,368,cs),
(682,44,l),
(684,47,l),
(644,20,l),
(644,0,l),
(931,0,l),
(931,20,l),
(856,51,l),
(858,48,l),
(858,396,ls),
(858,467,o),
(779,516,o),
(667,516,cs),
(617,516,o),
(558,494,o),
(526,462,c),
(529,462,l),
(496,496,o),
(438,516,o),
(365,516,cs),
(326,516,o),
(279,504,o),
(253,483,c),
(254,482,l),
(254,500,l),
(248,516,l),
(5,465,l),
(5,435,l),
(80,414,l),
(78,417,l),
(78,48,l),
(80,51,l),
(5,20,l),
(5,0,l)
);
}
);
width = 916;
}
);
metricLeft = n;
metricRight = n;
unicode = 109;
},
{
glyphname = n;
layers = (
{
anchors = (
{
name = top;
pos = (334,500);
}
);
layerId = m01;
shapes = (
{
closed = 1;
nodes = (
(280,0,l),
(280,20,l),
(187,57,l),
(204,32,l),
(204,401,l),
(195,374,l),
(235,418,o),
(291,464,o),
(334,464,cs),
(396,464,o),
(440,415,o),
(440,338,cs),
(440,32,l),
(457,57,l),
(366,20,l),
(366,0,l),
(621,0,l),
(621,20,l),
(513,56,l),
(530,32,l),
(530,366,ls),
(530,453,o),
(462,515,o),
(365,515,cs),
(311,515,o),
(242,469,o),
(195,423,c),
(204,413,l),
(206,510,l),
(196,516,l),
(10,461,l),
(10,445,l),
(132,431,l),
(114,451,l),
(114,32,l),
(131,55,l),
(20,20,l),
(20,0,l)
);
}
);
width = 631;
},
{
associatedMasterId = m01;
layerId = "C9AB8D55-AC24-43D7-9F96-D292913457A9";
name = "1. Jan. 24, 11:49";
shapes = (
{
closed = 1;
nodes = (
(621,0,l),
(621,20,l),
(530,50,l),
(530,366,ls),
(530,453,o),
(462,515,o),
(365,515,cs),
(307,515,o),
(233,462,o),
(187,415,c),
(190,368,l),
(230,413,o),
(289,464,o),
(334,464,cs),
(396,464,o),
(440,415,o),
(440,338,cs),
(440,50,l),
(366,20,l),
(366,0,l)
);
},
{
closed = 1;
nodes = (
(280,0,l),
(280,20,l),
(204,50,l),
(204,434,l),
(197,510,l),
(187,516,l),
(10,461,l),
(10,445,l),
(114,433,l),
(114,50,l),
(20,20,l),
(20,0,l)
);
}
);
width = 631;
},
{
anchors = (
{
name = top;
pos = (346,500);
}
);
background = {
shapes = (
{
closed = 1;
nodes = (
(280,0,l),
(280,20,l),
(187,57,l),
(204,32,l),
(204,401,l),
(195,374,l),
(235,418,o),
(291,464,o),
(334,464,cs),
(396,464,o),
(440,415,o),
(440,338,cs),
(440,32,l),
(457,57,l),
(366,20,l),
(366,0,l),
(621,0,l),
(621,20,l),
(513,56,l),
(530,32,l),
(530,366,ls),
(530,453,o),
(462,515,o),
(365,515,cs),
(311,515,o),
(242,469,o),
(195,423,c),
(204,413,l),
(206,510,l),
(196,516,l),
(10,461,l),
(10,445,l),
(132,431,l),
(114,451,l),
(114,32,l),
(131,55,l),
(20,20,l),
(20,0,l)
);
}
);
};
hints = (
{
horizontal = 1;
place = (-3,15);
type = Stem;
},
{
horizontal = 1;
place = (500,-20);
target = down;
type = TopGhost;
},
{
place = (86,176);
type = Stem;
},
{
place = (412,176);
type = Stem;
},
{
horizontal = 1;
place = (461,57);
type = Stem;
}
);
layerId = "E0989092-07D5-4BE4-A82B-4E03160A36DB";
shapes = (
{
closed = 1;
nodes = (
(317,0,l),
(317,20,l),
(244,55,l),
(254,37,l),
(254,437,l),
(242,409,l),
(272,439,o),
(313,461,o),
(341,461,cs),
(378,461,o),
(404,410,o),
(404,338,cs),
(404,37,l),
(417,56,l),
(341,20,l),
(341,0,l),
(653,0,l),
(653,20,l),
(575,52,l),
(580,40,l),
(580,366,ls),
(580,455,o),
(494,517,o),
(372,517,cs),
(332,517,o),
(277,497,o),
(239,467,c),
(254,467,l),
(254,500,l),
(248,516,l),
(5,465,l),
(5,435,l),
(97,410,l),
(78,423,l),
(78,41,l),
(88,54,l),
(5,20,l),
(5,0,l)
);
}
);
width = 638;
}
);
unicode = 110;
},
{
glyphname = eng;
layers = (
{
layerId = m01;
shapes = (
{
closed = 1;
nodes = (
(460,-193,o),
(530,-125,o),
(530,-28,cs),
(530,366,ls),
(530,453,o),
(462,515,o),
(365,515,cs),
(311,515,o),
(243,470,o),
(195,424,c),
(206,414,l),
(197,510,l),
(187,516,l),
(10,461,l),
(10,445,l),
(132,431,l),
(114,451,l),
(114,32,l),
(131,55,l),
(20,20,l),
(20,0,l),
(280,0,l),
(280,20,l),
(187,57,l),
(204,32,l),
(204,402,l),
(195,375,l),
(235,418,o),
(291,464,o),
(334,464,cs),
(396,464,o),
(440,415,o),
(440,338,cs),
(440,-64,ls),
(440,-125,o),
(415,-168,o),
(379,-168,cs),
(354,-168,o),
(330,-147,o),
(312,-97,c),
(238,-138,l),
(272,-178,o),
(319,-193,o),
(361,-193,cs)
);
}
);
width = 591;
},
{
anchors = (
{
name = top;
pos = (334,500);
}
);
associatedMasterId = m01;
layerId = "158879E4-AD77-4CEC-A014-8A6182E6557D";
name = "1. Jan. 24, 21:44";
shapes = (
{
closed = 1;
nodes = (
(280,0,l),
(280,20,l),
(187,57,l),
(204,32,l),
(204,401,l),
(195,374,l),
(235,418,o),
(291,464,o),
(334,464,cs),
(396,464,o),
(440,415,o),
(440,338,cs),
(440,32,l),
(530,32,l),
(530,366,ls),
(530,453,o),
(462,515,o),
(365,515,cs),
(311,515,o),
(242,469,o),
(195,423,c),
(204,413,l),
(204,434,l),
(197,510,l),
(187,516,l),
(10,461,l),
(10,445,l),
(114,433,l),
(114,32,l),
(131,55,l),
(20,20,l),
(20,0,l)
);
},
{
closed = 1;
nodes = (
(440,32,l),
(440,-64,l),
(440,-125,o),
(415,-168,o),
(379,-168,cs),
(358,-168,o),
(330,-147,o),
(312,-117,c),
(248,-158,l),
(272,-178,o),
(319,-193,o),
(361,-193,cs),
(460,-193,o),
(530,-125,o),
(530,-28,cs),
(530,32,l)
);
}
);
width = 631;
},
{
hints = (
{
horizontal = 1;
place = (-196,31);
type = Stem;
},
{
horizontal = 1;
place = (-3,15);
type = Stem;
},
{
horizontal = 1;
place = (461,57);
type = Stem;
},
{
place = (121,176);
type = Stem;
},
{
place = (447,176);
type = Stem;
},
{
place = (280,11);
type = Stem;
}
);
layerId = "E0989092-07D5-4BE4-A82B-4E03160A36DB";
shapes = (
{
closed = 1;
nodes = (
(513,-196,o),
(601,-127,o),
(601,-28,cs),
(601,366,ls),
(601,456,o),
(510,518,o),
(393,518,cs),
(347,518,o),
(285,489,o),
(269,463,c),
(270,462,l),
(268,517,l),
(258,526,l),
(28,454,l),
(28,430,l),
(101,418,l),
(99,420,l),
(99,41,l),
(101,44,l),
(5,13,l),
(5,-3,l),
(335,-3,l),
(335,12,l),
(273,43,l),
(275,40,l),
(275,396,l),
(274,392,l),
(302,436,o),
(340,461,o),
(362,461,cs),
(392,461,o),
(425,425,o),
(425,338,cs),
(425,-64,ls),
(425,-123,o),
(410,-165,o),
(390,-165,cs),
(369,-165,o),
(346,-119,o),
(343,-65,c),
(219,-140,l),
(258,-168,o),
(330,-196,o),
(389,-196,cs)
);
}
);
width = 681;
}
);
metricLeft = n;
unicode = 331;
},
{
glyphname = o;
kernLeft = o;
kernRight = o;
layers = (
{
anchors = (
{
name = top;
pos = (291,500);
}
);
layerId = m01;
shapes = (
{
closed = 1;
nodes = (
(425,-15,o),
(523,102,o),
(523,267,cs),
(523,413,o),
(425,517,o),
(287,517,cs),
(146,517,o),
(47,409,o),
(47,257,cs),
(47,98,o),
(146,-15,o),
(287,-15,cs)
);
},
{
closed = 1;
nodes = (
(207,20,o),
(149,121,o),
(149,285,cs),
(149,407,o),
(197,482,o),
(274,482,cs),
(364,482,o),
(421,388,o),
(421,236,cs),
(421,102,o),
(374,20,o),
(300,20,cs)
);
}
);
width = 570;
},
{
anchors = (
{
name = top;
pos = (313,500);
}
);
hints = (
{
horizontal = 1;
place = (-18,41);
type = Stem;
},
{
horizontal = 1;
place = (479,41);
type = Stem;
},
{
place = (2,189);
type = Stem;
},
{
place = (376,189);
type = Stem;
}
);
layerId = "E0989092-07D5-4BE4-A82B-4E03160A36DB";
shapes = (
{
closed = 1;
nodes = (
(477,-16,o),
(593,101,o),
(593,267,cs),
(593,413,o),
(477,516,o),
(313,516,cs),
(147,516,o),
(30,409,o),
(30,257,cs),
(30,97,o),
(147,-16,o),
(313,-16,cs)
);
},
{
closed = 1;
nodes = (
(261,25,o),
(219,118,o),
(219,285,cs),
(219,407,o),
(245,475,o),
(291,475,cs),
(364,475,o),
(404,390,o),
(404,236,cs),
(404,100,o),
(380,25,o),
(336,25,cs)
);
}
);
width = 623;
}
);
unicode = 111;
},
{
glyphname = oslash;
kernLeft = o;
kernRight = o;
layers = (
{
layerId = m01;
shapes = (
{
closed = 1;
nodes = (
(504,540,l),
(467,566,l),
(70,-39,l),
(107,-64,l)
);
},
{
ref = o;
}
);
width = 570;
},
{
hints = (
{
horizontal = 1;
place = (-18,41);
type = Stem;
},
{
horizontal = 1;
place = (479,20);
type = Stem;
},
{
place = (2,188);
type = Stem;
},
{
place = (376,188);
type = Stem;
},
{
horizontal = 1;
place = (479,41);
type = Stem;
}
);
layerId = "E0989092-07D5-4BE4-A82B-4E03160A36DB";
shapes = (
{
closed = 1;
nodes = (
(515,529,l),
(467,566,l),
(70,-39,l),
(118,-75,l)
);
},
{
ref = o;
}
);
width = 623;
}
);
metricLeft = o;
metricRight = o;
unicode = 248;
},
{
glyphname = oe;
kernLeft = o;
kernRight = e;
layers = (
{
layerId = m01;
shapes = (
{
closed = 1;
nodes = (
(368,-15,o),
(435,25,o),
(477,92,c),
(463,92,l),
(503,27,o),
(569,-13,o),
(650,-13,cs),
(723,-13,o),
(801,26,o),
(840,80,c),
(818,108,l),
(780,72,o),
(723,47,o),
(680,47,cs),
(584,47,o),
(518,147,o),
(523,288,c),
(505,272,l),
(847,272,l),
(848,282,o),
(848,291,o),
(848,301,cs),
(848,428,o),
(773,517,o),
(658,517,cs),
(579,517,o),
(513,476,o),
(472,408,c),
(486,409,l),
(444,476,o),
(373,517,o),
(287,517,cs),
(146,517,o),
(47,409,o),
(47,257,cs),
(47,98,o),
(146,-15,o),
(287,-15,cs)
);
},
{
closed = 1;
nodes = (
(149,407,o),
(197,482,o),
(274,482,cs),
(364,482,o),
(421,388,o),
(421,236,cs),
(421,102,o),
(374,20,o),
(300,20,cs),
(207,20,o),
(149,121,o),
(149,285,cs)
);
},
{
closed = 1;
nodes = (
(503,308,l),
(521,291,l),
(516,404,o),
(562,478,o),
(626,478,cs),
(697,478,o),
(748,406,o),
(751,297,c),
(768,313,l)
);
}
);
width = 895;
},
{
associatedMasterId = m01;
layerId = "8891401E-2A78-49C5-9FDC-8FEE2301BEB5";
name = "1. Jan. 24, 12:13";
shapes = (
{
closed = 1;
nodes = (
(423,-15,o),
(521,102,o),
(521,267,cs),
(521,413,o),
(423,517,o),
(285,517,cs),
(144,517,o),
(45,409,o),
(45,257,cs),
(45,98,o),
(144,-15,o),
(285,-15,cs)
);
},
{
closed = 1;
nodes = (
(205,20,o),
(147,121,o),
(147,285,cs),
(147,407,o),
(195,482,o),
(272,482,cs),
(362,482,o),
(419,388,o),
(419,236,cs),
(419,102,o),
(372,20,o),
(298,20,cs)
);
},
{
closed = 1;
nodes = (
(721,-13,o),
(799,26,o),
(838,80,c),
(816,108,l),
(778,72,o),
(721,47,o),
(678,47,cs),
(586,47,o),
(521,140,o),
(521,272,c),
(845,272,l),
(857,415,o),
(779,517,o),
(656,517,cs),
(522,517,o),
(427,401,o),
(426,237,cs),
(425,91,o),
(517,-13,o),
(648,-13,cs)
);
},
{
closed = 1;
nodes = (
(519,411,o),
(563,478,o),
(624,478,cs),
(692,478,o),
(743,411,o),
(748,308,c),
(752,312,ls),
(754,314,o),
(702,314,o),
(644,312,cs),
(519,308,l)
);
}
);
width = 891;
},
{
hints = (
{
horizontal = 1;
place = (-17,42);
type = Stem;
},
{
horizontal = 1;
place = (269,45.5);
type = Stem;
},
{
horizontal = 1;
place = (474,41);
type = Stem;
},
{
place = (2,188);
type = Stem;
},
{
place = (376,188);
type = Stem;
},
{
place = (704,185);
type = Stem;
},
{
horizontal = 1;
place = (-18,67);
type = Stem;
},
{
horizontal = 1;
place = (470,45);
type = Stem;
},
{
place = (376,186);
type = Stem;
}
);
layerId = "E0989092-07D5-4BE4-A82B-4E03160A36DB";
shapes = (
{
closed = 1;
nodes = (
(386,-17,o),
(448,3,o),
(497,41,c),
(495,41,l),
(544,3,o),
(607,-18,o),
(676,-18,cs),
(769,-18,o),
(865,38,o),
(896,82,c),
(869,116,l),
(811,47,o),
(741,49,o),
(706,49,cs),
(648,49,o),
(593,131,o),
(592,271,c),
(590,269,l),
(916,269,l),
(917,279,o),
(917,289,o),
(917,298,cs),
(917,451,o),
(806,515,o),
(684,515,cs),
(610,515,o),
(550,498,o),
(502,461,c),
(504,461,l),
(454,500,o),
(388,515,o),
(313,515,cs),
(152,515,o),
(30,417,o),
(30,257,cs),
(30,90,o),
(150,-17,o),
(313,-17,cs)
);
},
{
closed = 1;
nodes = (
(218,415,o),
(258,474,o),
(300,474,cs),
(353,474,o),
(404,396,o),
(404,236,cs),
(404,94,o),
(363,25,o),
(326,25,cs),
(270,25,o),
(218,113,o),
(218,285,cs)
);
},
{
closed = 1;
nodes = (
(588,312,l),
(590,309,l),
(590,419,o),
(625,470,o),
(652,470,cs),
(682,470,o),
(721,461,o),
(732,314,c),
(734,317,l)
);
}
);
width = 947;
}
);
metricLeft = o;
metricRight = e;
unicode = 339;
},
{
glyphname = p;
kernLeft = p;
kernRight = p;
layers = (
{
layerId = m01;
name = Regular;
shapes = (
{
closed = 1;
nodes = (
(433,-15,o),
(535,102,o),
(535,268,cs),
(535,414,o),
(454,517,o),
(340,517,cs),
(295,517,o),
(231,485,o),
(177,438,c),
(190,429,l),
(182,502,l),
(172,508,l),
(-5,463,l),
(-5,447,l),
(117,433,l),
(99,453,l),
(99,-168,l),
(116,-144,l),
(8,-180,l),
(8,-200,l),
(283,-200,l),
(283,-180,l),
(172,-145,l),
(188,-168,l),
(188,36,l),
(175,27,l),
(221,-4,o),
(266,-15,o),
(290,-15,cs)
);
},
{
closed = 1;
nodes = (
(188,417,l),
(180,388,l),
(215,431,o),
(264,461,o),
(300,461,cs),
(379,461,o),
(435,372,o),
(435,245,cs),
(435,113,o),
(381,20,o),
(305,20,cs),
(277,20,o),
(225,34,o),
(176,78,c),
(188,49,l)
);
}
);
width = 582;
},
{
associatedMasterId = m01;
layerId = "E53A7676-CD7F-45B4-B6FE-B577B2D90D84";
name = "1. Jan. 24, 11:51";
shapes = (
{
closed = 1;
nodes = (
(443,-15,o),
(545,102,o),
(545,268,cs),
(545,414,o),
(464,517,o),
(350,517,cs),
(297,517,o),
(219,474,o),
(161,413,c),
(153,399,l),
(181,378,l),
(185,380,o),
(188,386,o),
(188,386,c),
(223,430,o),
(273,461,o),
(310,461,cs),
(389,461,o),
(445,372,o),
(445,245,cs),
(445,113,o),
(391,20,o),
(315,20,cs),
(284,20,o),
(224,38,o),
(170,92,cs),
(167,95,l),
(138,60,l),
(147,56,l),
(205,3,o),
(269,-15,o),
(300,-15,cs)
);
},
{
closed = 1;
nodes = (
(293,-200,l),
(293,-180,l),
(199,-150,l),
(109,-150,l),
(18,-180,l),
(18,-200,l)
);
},
{
closed = 1;
nodes = (
(199,-150,l),
(199,436,l),
(192,502,l),
(182,508,l),
(5,463,l),
(5,447,l),
(109,435,l),
(109,-150,l)
);
}
);
width = 600;
},
{
background = {
shapes = (
{
closed = 1;
nodes = (
(314,-203,l),
(314,-183,l),
(241,-148,l),
(251,-166,l),
(251,234,l),
(239,206,l),
(269,236,o),
(310,258,o),
(338,258,cs),
(375,258,o),
(401,207,o),
(401,135,cs),
(401,-166,l),
(414,-147,l),
(338,-183,l),
(338,-202,l),
(650,-203,l),
(650,-183,l),
(572,-151,l),
(577,-163,l),
(577,163,ls),
(577,252,o),
(491,314,o),
(369,314,cs),
(329,314,o),
(274,294,o),
(236,264,c),
(251,264,l),
(251,297,l),
(235,313,l),
(2,262,l),
(2,232,l),
(94,207,l),
(75,220,l),
(75,-162,l),
(85,-149,l),
(2,-183,l),
(2,-203,l)
);
}
);
};
hints = (
{
horizontal = 1;
place = (-203,16);
type = Stem;
},
{
horizontal = 1;
place = (-18,41);
type = Stem;
},
{
horizontal = 1;
place = (516,-20);
target = down;
type = TopGhost;
},
{
place = (66,177);
type = Stem;
},
{
place = (402,186);
type = Stem;
},
{
horizontal = 1;
place = (458,62);
type = Stem;
}
);
layerId = "E0989092-07D5-4BE4-A82B-4E03160A36DB";
shapes = (
{
closed = 1;
nodes = (
(481,-16,o),
(596,102,o),
(596,268,cs),
(596,413,o),
(497,516,o),
(358,516,cs),
(319,516,o),
(274,497,o),
(250,471,c),
(251,470,l),
(251,500,l),
(245,516,l),
(2,465,l),
(2,435,l),
(77,414,l),
(75,417,l),
(75,-155,l),
(77,-152,l),
(2,-183,l),
(2,-203,l),
(314,-203,l),
(314,-183,l),
(249,-152,l),
(251,-155,l),
(251,5,l),
(250,4,l),
(265,-8,o),
(293,-16,o),
(318,-16,cs)
);
},
{
closed = 1;
nodes = (
(251,430,l),
(250,427,l),
(266,447,o),
(294,461,o),
(318,461,cs),
(372,461,o),
(410,372,o),
(410,245,cs),
(410,121,o),
(374,34,o),
(323,34,cs),
(298,34,o),
(268,45,o),
(250,61,c),
(251,58,l)
);
}
);
width = 626;
}
);
metricRight = o;
unicode = 112;
},
{
glyphname = thorn;
kernLeft = p;
kernRight = p;
layers = (
{
layerId = m01;
shapes = (
{
closed = 1;
nodes = (
(298,-200,l),
(298,-180,l),
(187,-145,l),
(202,-168,l),
(202,16,l),
(193,2,l),
(215,-6,o),
(242,-12,o),
(265,-12,cs),
(429,-12,o),
(547,111,o),
(547,286,cs),
(547,420,o),
(458,515,o),
(335,515,cs),
(292,515,o),
(238,493,o),
(194,458,c),
(202,448,l),
(202,718,l),
(206,794,l),
(196,800,l),
(10,745,l),
(10,729,l),
(132,715,l),
(114,735,l),
(114,-168,l),
(131,-144,l),
(23,-180,l),
(23,-200,l)
);
},
{
closed = 1;
nodes = (
(270,28,o),
(229,54,o),
(194,86,c),
(202,59,l),
(202,438,l),
(193,410,l),
(228,443,o),
(266,469,o),
(294,469,cs),
(388,469,o),
(455,382,o),
(455,258,cs),
(455,126,o),
(393,28,o),
(306,28,cs)
);
}
);
width = 594;
},
{
associatedMasterId = m01;
layerId = "687E002A-BF2C-46A0-BB2A-B75EDC1D587C";
name = "1. Jan. 24, 12:12";
shapes = (
{
closed = 1;
nodes = (
(199,-150,l),
(199,718,l),
(201,794,l),
(191,800,l),
(5,745,l),
(5,729,l),
(109,717,l),
(109,-150,l)
);
},
{
closed = 1;
nodes = (
(293,-200,l),
(293,-180,l),
(199,-150,l),
(109,-150,l),
(18,-180,l),
(18,-200,l)
);
},
{
closed = 1;
nodes = (
(424,-12,o),
(542,111,o),
(542,286,c),
(450,258,l),
(450,126,o),
(388,28,o),
(301,28,cs),
(258,28,o),
(208,65,o),
(169,104,cs),
(168,105,l),
(110,44,l),
(157,18,l),
(182,0,o),
(225,-12,o),
(260,-12,cs)
);
},
{
closed = 1;
nodes = (
(542,286,l),
(542,420,o),
(453,515,o),
(330,515,cs),
(277,515,o),
(208,482,o),
(162,435,c),
(165,385,l),
(204,430,o),
(255,469,o),
(289,469,cs),
(383,469,o),
(450,382,o),
(450,258,c)
);
}
);
width = 600;
},
{
hints = (
{
horizontal = 1;
place = (-203,16);
type = Stem;
},
{
horizontal = 1;
place = (-15,46);
type = Stem;
},
{
horizontal = 1;
place = (506,-20);
target = down;
type = TopGhost;
},
{
place = (66,178);
type = Stem;
},
{
place = (407,178);
type = Stem;
},
{
horizontal = 1;
place = (-9,21);
target = up;
type = BottomGhost;
},
{
horizontal = 1;
place = (466,52);
type = Stem;
},
{
place = (223,21);
type = Stem;
}
);
layerId = "E0989092-07D5-4BE4-A82B-4E03160A36DB";
shapes = (
{
closed = 1;
nodes = (
(363,-203,l),
(363,-187,l),
(269,-153,l),
(271,-156,l),
(271,-7,l),
(269,-8,l),
(276,-12,o),
(287,-15,o),
(297,-15,cs),
(481,-15,o),
(612,110,o),
(612,286,cs),
(612,422,o),
(506,518,o),
(357,518,cs),
(325,518,o),
(289,513,o),
(270,506,c),
(271,504,l),
(271,705,l),
(273,784,l),
(228,810,l),
(22,738,l),
(22,714,l),
(95,702,l),
(93,704,l),
(93,-156,l),
(95,-153,l),
(5,-187,l),
(5,-203,l)
);
},
{
closed = 1;
nodes = (
(309,31,o),
(285,34,o),
(270,38,c),
(271,36,l),
(271,452,l),
(269,448,l),
(282,459,o),
(301,466,o),
(316,466,cs),
(385,466,o),
(434,381,o),
(434,261,cs),
(434,126,o),
(390,31,o),
(328,31,cs)
);
}
);
width = 642;
}
);
metricLeft = n;
metricRight = o;
unicode = 254;
},
{
glyphname = q;
layers = (
{
layerId = m01;
shapes = (
{
closed = 1;
nodes = (
(567,-200,l),
(567,-180,l),
(466,-145,l),
(483,-168,l),
(483,460,l),
(435,486,l),
(412,504,o),
(369,516,o),
(332,516,cs),
(165,516,o),
(47,409,o),
(47,258,cs),
(47,100,o),
(136,-11,o),
(262,-11,cs),
(305,-11,o),
(359,11,o),
(403,46,c),
(393,56,l),
(393,-168,l),
(410,-144,l),
(302,-180,l),
(302,-200,l)
);
},
{
closed = 1;
nodes = (
(209,34,o),
(142,138,o),
(142,286,cs),
(142,394,o),
(204,471,o),
(291,471,cs),
(326,471,o),
(369,451,o),
(403,420,c),
(393,447,l),
(393,59,l),
(404,87,l),
(369,54,o),
(331,34,o),
(303,34,cs)
);
}
);
width = 577;
},
{
associatedMasterId = m01;
layerId = "26E9DDFE-E1DA-49A8-A371-9EAED660B458";
name = "1. Jan. 24, 11:52";
shapes = (
{
closed = 1;
nodes = (
(323,-11,o),
(392,22,o),
(438,69,c),
(435,110,l),
(396,65,o),
(345,34,o),
(311,34,cs),
(217,34,o),
(150,138,o),
(150,286,c),
(55,258,l),
(55,100,o),
(144,-11,o),
(270,-11,cs)
);
},
{
closed = 1;
nodes = (
(585,-200,l),
(585,-180,l),
(491,-150,l),
(401,-150,l),
(310,-180,l),
(310,-200,l)
);
},
{
closed = 1;
nodes = (
(491,-150,l),
(491,460,l),
(401,460,l),
(401,-150,l)
);
},
{
closed = 1;
nodes = (
(150,286,l),
(150,394,o),
(212,471,o),
(299,471,cs),
(342,471,o),
(396,442,o),
(431,400,cs),
(432,399,l),
(490,460,l),
(443,486,l),
(420,504,o),
(377,516,o),
(340,516,cs),
(173,516,o),
(55,409,o),
(55,258,c)
);
}
);
width = 585;
},
{
hints = (
{
horizontal = 1;
place = (-203,16);
type = Stem;
},
{
horizontal = 1;
place = (-14,47);
type = Stem;
},
{
horizontal = 1;
place = (468,51);
type = Stem;
},
{
place = (12,181);
type = Stem;
},
{
place = (358,176);
type = Stem;
},
{
horizontal = 1;
place = (-14,51);
type = Stem;
}
);
layerId = "E0989092-07D5-4BE4-A82B-4E03160A36DB";
shapes = (
{
closed = 1;
nodes = (
(626,-203,l),
(626,-183,l),
(551,-152,l),
(553,-155,l),
(553,464,l),
(502,483,l),
(450,504,o),
(391,519,o),
(359,519,cs),
(155,519,o),
(19,403,o),
(31,238,cs),
(37,90,o),
(144,-14,o),
(289,-14,cs),
(312,-14,o),
(350,-9,o),
(378,-2,c),
(377,0,l),
(377,-154,l),
(379,-151,l),
(274,-183,l),
(274,-203,l)
);
},
{
closed = 1;
nodes = (
(260,37,o),
(211,143,o),
(212,293,cs),
(214,391,o),
(258,461,o),
(318,461,cs),
(334,461,o),
(360,449,o),
(378,433,c),
(377,436,l),
(377,49,l),
(378,52,l),
(363,43,o),
(342,37,o),
(330,37,cs)
);
}
);
width = 611;
}
);
metricLeft = o;
metricRight = n;
unicode = 113;
},
{
glyphname = r;
kernLeft = r;
kernRight = r;
layers = (
{
anchors = (
{
name = com;
pos = (160,0);
},
{
name = top;
pos = (198,500);
}
);
background = {
shapes = (
{
closed = 1;
nodes = (
(187,516,l),
(192,513,ls),
(195,511,o),
(199,496,o),
(202,460,cs),
(204,434,l),
(204,108,ls),
(204,69,o),
(223,45,o),
(261,35,cs),
(274,32,o),
(280,25,o),
(280,15,cs),
(280,6,o),
(257,0,o),
(214,0,cs),
(20,0,l),
(20,10,ls),
(20,16,o),
(35,25,o),
(67,35,cs),
(99,45,o),
(114,69,o),
(114,107,cs),
(114,370,ls),
(114,411,o),
(92,435,o),
(52,440,cs),
(10,445,l),
(10,453,ls),
(10,458,o),
(28,466,o),
(65,478,cs)
);
},
{
closed = 1;
nodes = (
(244,464,o),
(270,517,o),
(302,517,cs),
(316,517,o),
(335,515,o),
(353,512,cs),
(386,506,o),
(398,481,o),
(390,447,cs),
(382,415,o),
(371,398,o),
(363,403,cs),
(336,416,o),
(307,419,o),
(283,419,cs),
(257,419,o),
(240,404,o),
(221,378,cs),
(192,338,o),
(173,316,o),
(168,323,cs),
(162,332,o),
(170,350,o),
(191,384,cs)
);
}
);
};
layerId = m01;
shapes = (
{
closed = 1;
nodes = (
(308,0,l),
(308,20,l),
(185,55,l),
(202,32,l),
(202,355,l),
(191,319,l),
(196,328,o),
(201,336,o),
(205,344,cs),
(239,401,o),
(256,429,o),
(283,429,cs),
(307,429,o),
(336,420,o),
(363,403,c),
(404,485,l),
(370,507,o),
(325,520,o),
(273,517,c),
(193,385,l),
(202,382,l),
(208,509,l),
(187,516,l),
(10,461,l),
(10,445,l),
(132,431,l),
(114,451,l),
(114,32,l),
(131,55,l),
(30,20,l),
(30,0,l)
);
}
);
width = 414;
},
{
associatedMasterId = m01;
background = {
shapes = (
{
closed = 1;
nodes = (
(187,516,l),
(192,513,ls),
(195,511,o),
(199,496,o),
(202,460,cs),
(204,434,l),
(204,108,ls),
(204,69,o),
(223,45,o),
(261,35,cs),
(274,32,o),
(280,25,o),
(280,15,cs),
(280,6,o),
(257,0,o),
(214,0,cs),
(20,0,l),
(20,10,ls),
(20,16,o),
(35,25,o),
(67,35,cs),
(99,45,o),
(114,69,o),
(114,107,cs),
(114,370,ls),
(114,411,o),
(92,435,o),
(52,440,cs),
(10,445,l),
(10,453,ls),
(10,458,o),
(28,466,o),
(65,478,cs)
);
},
{
closed = 1;
nodes = (
(244,464,o),
(270,517,o),
(302,517,cs),
(316,517,o),
(335,515,o),
(353,512,cs),
(386,506,o),
(398,481,o),
(390,447,cs),
(382,415,o),
(371,398,o),
(363,403,cs),
(336,416,o),
(307,419,o),
(283,419,cs),
(257,419,o),
(240,404,o),
(221,378,cs),
(192,338,o),
(173,316,o),
(168,323,cs),
(162,332,o),
(170,350,o),
(191,384,cs)
);
}
);
};
layerId = "66529081-EDE8-422A-B9FF-C7E6FD61FFB3";
name = "1. Jan. 24, 11:55";
shapes = (
{
closed = 1;
nodes = (
(202,50,l),
(202,434,l),
(198,509,l),
(187,516,l),
(10,461,l),
(10,445,l),
(114,433,l),
(114,50,l)
);
},
{
closed = 1;
nodes = (
(308,0,l),
(308,20,l),
(202,50,l),
(114,50,l),
(20,20,l),
(20,0,l)
);
},
{
closed = 1;
nodes = (
(223,361,o),
(241,429,o),
(283,429,cs),
(307,429,o),
(336,420,o),
(363,403,c),
(404,485,l),
(370,507,o),
(325,520,o),
(273,517,c),
(157,326,l),
(174,294,l)
);
}
);
width = 424;
},
{
anchors = (
{
name = com;
pos = (152,0);
},
{
name = top;
pos = (240,500);
}
);
background = {
shapes = (
{
closed = 1;
nodes = (
(5,0,l),
(327,0,l),
(327,20,l),
(252,51,l),
(254,48,l),
(254,427,l),
(256,493,l),
(248,516,l),
(5,465,l),
(5,435,l),
(80,414,l),
(78,417,l),
(78,48,l),
(80,51,l),
(5,20,l)
);
}
);
};
hints = (
{
horizontal = 1;
place = (-3,16);
type = Stem;
},
{
horizontal = 1;
place = (499,-20);
target = down;
type = TopGhost;
},
{
place = (71,174);
type = Stem;
},
{
horizontal = 1;
place = (402,120);
type = Stem;
},
{
place = (71,163.5);
type = Stem;
}
);
layerId = "E0989092-07D5-4BE4-A82B-4E03160A36DB";
shapes = (
{
closed = 1;
nodes = (
(327,0,l),
(327,20,l),
(252,51,l),
(254,48,l),
(254,384,l),
(239,361,l),
(243,366,o),
(255,378,o),
(260,381,cs),
(276,392,o),
(292,397,o),
(302,397,cs),
(334,397,o),
(381,373,o),
(414,338,c),
(469,473,l),
(411,525,o),
(336,528,o),
(304,517,c),
(251,443,l),
(253,443,l),
(256,493,l),
(248,516,l),
(5,465,l),
(5,435,l),
(80,414,l),
(78,417,l),
(78,48,l),
(80,51,l),
(5,21,l),
(5,0,l)
);
}
);
width = 454;
}
);
metricLeft = n;
metricRight = n;
unicode = 114;
},
{
glyphname = s;
kernLeft = s;
kernRight = s;
layers = (
{
anchors = (
{
name = ced;
pos = (216,-1);
},
{
name = com;
pos = (216,0);
},
{
name = top;
pos = (216,500);
}
);
background = {
shapes = (
{
closed = 1;
nodes = (
(117,516,o),
(47,460,o),
(47,380,cs),
(47,180,o),
(328,210,o),
(328,110,cs),
(328,54,o),
(282,14,o),
(216,14,cs),
(171,14,o),
(131,45,o),
(108,94,cs),
(70,182,o),
(59,165,o),
(54,34,c),
(90,4,o),
(158,-16,o),
(216,-16,cs),
(317,-16,o),
(388,44,o),
(388,130,cs),
(388,330,o),
(117,300,o),
(117,400,cs),
(117,450,o),
(158,486,o),
(216,486,cs),
(256,486,o),
(291,459,o),
(312,416,cs),
(329,379,o),
(334,360,o),
(344,360,cs),
(357,360,o),
(363,403,o),
(359,481,c),
(329,499,o),
(272,516,o),
(216,516,cs)
);
}
);
};
layerId = m01;
shapes = (
{
closed = 1;
nodes = (
(317,-16,o),
(388,44,o),
(388,130,cs),
(388,244,o),
(296,283,o),
(219,315,cs),
(164,338,o),
(117,358,o),
(117,400,cs),
(117,450,o),
(158,486,o),
(216,486,cs),
(256,486,o),
(292,460,o),
(312,416,cs),
(337,360,l),
(360,360,l),
(360,481,l),
(328,499,o),
(272,516,o),
(216,516,cs),
(117,516,o),
(47,460,o),
(47,380,cs),
(47,266,o),
(142,227,o),
(222,195,cs),
(279,172,o),
(328,152,o),
(328,110,cs),
(328,54,o),
(282,14,o),
(216,14,cs),
(171,14,o),
(130,44,o),
(108,94,cs),
(84,149,l),
(62,149,l),
(54,34,l),
(90,4,o),
(158,-16,o),
(216,-16,cs)
);
}
);
width = 435;
},
{
associatedMasterId = m01;
background = {
shapes = (
{
closed = 1;
nodes = (
(125,516,o),
(55,460,o),
(55,380,cs),
(55,180,o),
(336,210,o),
(336,110,cs),
(336,54,o),
(290,14,o),
(224,14,cs),
(179,14,o),
(139,45,o),
(116,94,cs),
(78,182,o),
(67,165,o),
(62,34,c),
(98,4,o),
(166,-16,o),
(224,-16,cs),
(325,-16,o),
(396,44,o),
(396,130,cs),
(396,330,o),
(125,300,o),
(125,400,cs),
(125,450,o),
(166,486,o),
(224,486,cs),
(264,486,o),
(299,459,o),
(320,416,cs),
(337,379,o),
(342,360,o),
(352,360,cs),
(365,360,o),
(371,403,o),
(367,481,c),
(337,499,o),
(280,516,o),
(224,516,cs)
);
}
);
};
layerId = "DBBBEA9A-309E-401A-8CD2-D99DFACDCE64";
name = "1. Jan. 24, 11:59";
shapes = (
{
closed = 1;
nodes = (
(325,-16,o),
(396,44,o),
(396,130,cs),
(396,325,o),
(125,300,o),
(125,400,cs),
(125,450,o),
(166,486,o),
(224,486,cs),
(264,486,o),
(299,459,o),
(320,416,cs),
(345,360,l),
(368,360,l),
(368,481,l),
(336,499,o),
(280,516,o),
(224,516,cs),
(125,516,o),
(55,460,o),
(55,380,cs),
(55,185,o),
(336,210,o),
(336,110,cs),
(336,54,o),
(290,14,o),
(224,14,cs),
(179,14,o),
(139,45,o),
(116,94,cs),
(92,149,l),
(70,149,l),
(62,34,l),
(98,4,o),
(166,-16,o),
(224,-16,cs)
);
}
);
width = 441;
},
{
anchors = (
{
name = ced;
pos = (242,-1);
},
{
name = com;
pos = (242,0);
},
{
name = top;
pos = (242,500);
}
);
hints = (
{
horizontal = 1;
place = (-19,36);
type = Stem;
},
{
horizontal = 1;
place = (483,36);
type = Stem;
},
{
place = (40,78.5);
type = Stem;
},
{
place = (293,146);
type = Stem;
},
{
place = (12,156);
type = Stem;
},
{
place = (323,72);
type = Stem;
}
);
layerId = "E0989092-07D5-4BE4-A82B-4E03160A36DB";
shapes = (
{
closed = 1;
nodes = (
(358,-19,o),
(457,43,o),
(457,130,cs),
(457,251,o),
(370,301,o),
(293,333,cs),
(240,355,o),
(186,363,o),
(186,410,cs),
(186,449,o),
(219,483,o),
(262,483,cs),
(314,483,o),
(356,454,o),
(363,414,cs),
(373,357,l),
(423,357,l),
(423,471,l),
(373,499,o),
(302,519,o),
(252,519,cs),
(128,519,o),
(30,461,o),
(30,380,cs),
(30,259,o),
(120,209,o),
(201,177,cs),
(255,155,o),
(311,147,o),
(311,100,cs),
(311,56,o),
(272,17,o),
(222,17,cs),
(163,17,o),
(117,50,o),
(110,96,cs),
(101,152,l),
(51,152,l),
(45,47,l),
(59,8,o),
(136,-19,o),
(232,-19,cs)
);
}
);
width = 487;
}
);
metricLeft = o;
metricRight = o;
unicode = 115;
},
{
glyphname = germandbls;
layers = (
{
layerId = m01;
shapes = (
{
closed = 1;
nodes = (
(517,-16,o),
(575,44,o),
(575,130,cs),
(575,246,o),
(496,288,o),
(433,321,cs),
(389,344,o),
(353,364,o),
(353,400,cs),
(353,443,o),
(388,476,o),
(424,510,cs),
(462,546,o),
(503,583,o),
(503,634,cs),
(503,750,o),
(443,814,o),
(338,814,cs),
(213,814,o),
(119,711,o),
(119,566,cs),
(119,484,l),
(137,502,l),
(12,502,l),
(10,462,l),
(137,462,l),
(119,480,l),
(119,32,l),
(136,56,l),
(28,20,l),
(28,0,l),
(209,0,l),
(209,598,ls),
(209,709,o),
(254,787,o),
(309,787,cs),
(393,787,o),
(429,687,o),
(429,611,cs),
(429,576,o),
(400,545,o),
(369,512,cs),
(333,474,o),
(295,433,o),
(295,380,cs),
(295,264,o),
(377,222,o),
(443,189,cs),
(488,166,o),
(526,146,o),
(526,110,cs),
(526,54,o),
(488,19,o),
(434,19,cs),
(397,19,o),
(360,45,o),
(342,94,cs),
(325,139,l),
(307,139,l),
(301,34,l),
(330,4,o),
(386,-16,o),
(434,-16,cs)
);
}
);
width = 622;
},
{
associatedMasterId = m01;
layerId = "F985E475-2F89-4C60-B7AF-543DFCCDA5B4";
name = "1. Jan. 24, 12:14";
shapes = (
{
closed = 1;
nodes = (
(507,-16,o),
(565,44,o),
(565,130,cs),
(565,325,o),
(343,310,o),
(343,400,cs),
(343,489,o),
(491,534,o),
(491,634,cs),
(491,750,o),
(433,814,o),
(328,814,cs),
(203,814,o),
(109,711,o),
(109,566,c),
(199,598,l),
(199,709,o),
(244,787,o),
(299,787,cs),
(343,787,o),
(419,687,o),
(419,611,cs),
(419,536,o),
(285,479,o),
(285,380,cs),
(285,185,o),
(516,200,o),
(516,110,cs),
(516,54,o),
(478,19,o),
(424,19,cs),
(387,19,o),
(350,45,o),
(332,94,cs),
(315,139,l),
(297,139,l),
(291,34,l),
(320,4,o),
(376,-16,o),
(424,-16,cs)
);
},
{
closed = 1;
nodes = (
(199,0,l),
(199,50,l),
(109,50,l),
(18,20,l),
(18,0,l)
);
},
{
closed = 1;
nodes = (
(199,50,l),
(199,598,l),
(109,566,l),
(109,50,l)
);
},
{
closed = 1;
nodes = (
(161,462,l),
(161,502,l),
(2,502,l),
(0,462,l)
);
}
);
width = 590;
},
{
hints = (
{
horizontal = 1;
place = (-19,41);
type = Stem;
},
{
horizontal = 1;
place = (452,47);
type = Stem;
},
{
horizontal = 1;
place = (784,33);
type = Stem;
},
{
place = (66,176);
type = Stem;
},
{
place = (284,44.5);
type = Stem;
},
{
place = (473,135);
type = Stem;
},
{
horizontal = 1;
place = (0,17);
type = Stem;
},
{
place = (283,120);
type = Stem;
},
{
place = (376,157);
type = Stem;
}
);
layerId = "E0989092-07D5-4BE4-A82B-4E03160A36DB";
shapes = (
{
closed = 1;
nodes = (
(542,-19,o),
(625,36,o),
(625,130,cs),
(625,254,o),
(550,288,o),
(487,318,cs),
(443,339,o),
(420,356,o),
(420,400,cs),
(420,433,o),
(448,482,o),
(488,518,cs),
(524,551,o),
(550,599,o),
(550,634,cs),
(550,741,o),
(465,817,o),
(345,817,cs),
(192,817,o),
(83,703,o),
(83,543,cs),
(83,497,l),
(85,499,l),
(16,499,l),
(17,452,l),
(85,452,l),
(83,454,l),
(83,44,l),
(85,47,l),
(5,17,l),
(5,0,l),
(259,0,l),
(259,605,ls),
(259,710,o),
(283,784,o),
(316,784,cs),
(367,784,o),
(403,712,o),
(403,611,cs),
(403,569,o),
(393,530,o),
(379,517,cs),
(333,469,o),
(300,413,o),
(300,380,cs),
(300,306,o),
(337,222,o),
(403,192,cs),
(450,171,o),
(490,154,o),
(490,110,cs),
(490,44,o),
(467,22,o),
(441,22,cs),
(427,22,o),
(387,31,o),
(366,96,cs),
(351,142,l),
(301,142,l),
(301,47,l),
(301,21,o),
(368,-19,o),
(441,-19,cs)
);
}
);
width = 655;
}
);
metricLeft = n;
metricRight = o;
unicode = 223;
},
{
glyphname = t;
kernLeft = t;
kernRight = t;
layers = (
{
anchors = (
{
name = cara;
pos = (143,701);
},
{
name = ced;
pos = (212,3);
},
{
name = com;
pos = (212,0);
}
);
layerId = m01;
shapes = (
{
closed = 1;
nodes = (
(256,-15,o),
(331,13,o),
(374,53,c),
(355,81,l),
(322,53,o),
(283,34,o),
(247,34,cs),
(216,34,o),
(186,70,o),
(186,134,cs),
(186,480,l),
(168,462,l),
(330,462,l),
(330,502,l),
(168,502,l),
(186,484,l),
(186,660,l),
(98,597,l),
(98,484,l),
(117,502,l),
(10,502,l),
(10,462,l),
(117,462,l),
(98,480,l),
(98,99,ls),
(98,32,o),
(138,-15,o),
(192,-15,cs)
);
}
);
width = 384;
},
{
associatedMasterId = m01;
layerId = "40F5704F-EE71-40ED-A15A-121B75F7EAE7";
name = "1. Jan. 24, 12:01";
shapes = (
{
closed = 1;
nodes = (
(268,-15,o),
(343,13,o),
(386,53,c),
(367,81,l),
(334,53,o),
(295,34,o),
(259,34,cs),
(228,34,o),
(198,70,o),
(198,134,cs),
(198,660,l),
(111,597,l),
(111,99,ls),
(111,32,o),
(150,-15,o),
(204,-15,cs)
);
},
{
closed = 1;
nodes = (
(342,462,l),
(342,502,l),
(23,502,l),
(21,462,l)
);
}
);
width = 392;
},
{
anchors = (
{
name = cara;
pos = (191,701);
},
{
name = ced;
pos = (260,3);
},
{
name = com;
pos = (260,0);
}
);
hints = (
{
horizontal = 1;
place = (-18,74);
type = Stem;
},
{
horizontal = 1;
place = (459,46);
type = Stem;
},
{
place = (60,173);
type = Stem;
}
);
layerId = "E0989092-07D5-4BE4-A82B-4E03160A36DB";
shapes = (
{
closed = 1;
nodes = (
(295,-18,o),
(367,17,o),
(432,80,c),
(413,104,l),
(374,70,o),
(345,56,o),
(317,56,cs),
(304,56,o),
(269,60,o),
(269,134,cs),
(269,461,l),
(267,459,l),
(413,459,l),
(413,505,l),
(267,505,l),
(269,503,l),
(269,678,l),
(96,620,l),
(96,503,l),
(98,505,l),
(8,505,l),
(5,459,l),
(98,459,l),
(96,461,l),
(96,99,ls),
(96,24,o),
(154,-18,o),
(232,-18,cs)
);
}
);
width = 417;
}
);
metricLeft = n;
metricRight = n;
unicode = 116;
},
{
glyphname = u;
kernLeft = u;
kernRight = u;
layers = (
{
anchors = (
{
name = ogo;
pos = (408,1);
},
{
name = top;
pos = (293,500);
}
);
layerId = m01;
shapes = (
{
closed = 1;
nodes = (
(301,-15,o),
(366,33,o),
(412,78,c),
(402,88,l),
(409,-10,l),
(419,-16,l),
(596,19,l),
(596,35,l),
(474,49,l),
(492,29,l),
(492,500,l),
(326,500,l),
(326,470,l),
(419,445,l),
(402,468,l),
(402,100,l),
(411,128,l),
(371,84,o),
(320,37,o),
(277,37,cs),
(215,37,o),
(176,85,o),
(176,162,cs),
(176,500,l),
(-5,500,l),
(-5,480,l),
(103,444,l),
(86,468,l),
(86,134,ls),
(86,47,o),
(154,-15,o),
(246,-15,cs)
);
}
);
width = 591;
},
{
associatedMasterId = m01;
layerId = "9564286C-1ECF-49B7-A1AE-8460CA4B2C0C";
name = "1. Jan. 24, 12:01";
shapes = (
{
closed = 1;
nodes = (
(304,-15,o),
(373,38,o),
(419,85,c),
(416,133,l),
(376,88,o),
(322,37,o),
(277,37,cs),
(215,37,o),
(176,85,o),
(176,162,cs),
(176,500,l),
(-5,500,l),
(-5,480,l),
(86,450,l),
(86,134,ls),
(86,47,o),
(154,-15,o),
(246,-15,cs)
);
},
{
closed = 1;
nodes = (
(596,19,l),
(596,35,l),
(492,47,l),
(492,500,l),
(326,500,l),
(326,470,l),
(402,450,l),
(402,86,l),
(409,-10,l),
(419,-16,l)
);
}
);
width = 591;
},
{
anchors = (
{
name = ogo;
pos = (394,1);
},
{
name = top;
pos = (279,500);
}
);
background = {
shapes = (
{
closed = 1;
nodes = (
(320,500,l),
(320,480,l),
(393,445,l),
(383,463,l),
(383,63,l),
(395,91,l),
(365,61,o),
(324,39,o),
(296,39,cs),
(259,39,o),
(233,90,o),
(233,162,cs),
(233,463,l),
(233,470,l),
(233,480,l),
(233,500,l),
(-16,501,l),
(-16,480,l),
(62,448,l),
(57,460,l),
(57,134,ls),
(57,45,o),
(143,-17,o),
(265,-17,cs),
(305,-17,o),
(360,3,o),
(398,33,c),
(383,33,l),
(383,0,l),
(389,-16,l),
(632,35,l),
(632,65,l),
(540,90,l),
(559,77,l),
(559,459,l),
(559,471,l),
(559,480,l),
(559,500,l)
);
}
);
};
hints = (
{
horizontal = 1;
place = (-18,58);
type = Stem;
},
{
horizontal = 1;
place = (470,33);
type = Stem;
},
{
place = (43,176);
type = Stem;
},
{
place = (359,176);
type = Stem;
},
{
horizontal = 1;
place = (460,43);
type = Stem;
}
);
layerId = "E0989092-07D5-4BE4-A82B-4E03160A36DB";
shapes = (
{
closed = 1;
nodes = (
(306,-18,o),
(359,9,o),
(388,46,c),
(387,47,l),
(390,0,l),
(400,-16,l),
(612,32,l),
(612,70,l),
(557,81,l),
(559,79,l),
(559,500,l),
(320,500,l),
(320,480,l),
(385,449,l),
(383,452,l),
(383,95,l),
(384,98,l),
(358,65,o),
(323,40,o),
(301,40,cs),
(261,40,o),
(233,91,o),
(233,162,cs),
(233,501,l),
(-16,501,l),
(-16,480,l),
(59,449,l),
(57,452,l),
(57,134,ls),
(57,45,o),
(141,-18,o),
(260,-18,cs)
);
}
);
width = 618;
}
);
unicode = 117;
},
{
glyphname = v;
layers = (
{
layerId = m01;
shapes = (
{
closed = 1;
nodes = (
(232,1,l),
(431,463,l),
(407,439,l),
(502,480,l),
(502,500,l),
(298,500,l),
(298,480,l),
(383,440,l),
(373,465,l),
(245,127,l),
(257,127,l),
(118,500,l),
(-38,500,l),
(-38,480,l),
(55,442,l),
(32,466,l),
(216,-16,l)
);
}
);
width = 480;
},
{
associatedMasterId = m01;
layerId = "1F750C69-5B90-4595-AD0D-BA127445C31E";
name = "1. Jan. 24, 12:02";
shapes = (
{
closed = 1;
nodes = (
(282,115,l),
(137,500,l),
(-18,500,l),
(-18,480,l),
(58,449,l),
(240,-26,l)
);
},
{
closed = 1;
nodes = (
(444,446,l),
(522,480,l),
(522,500,l),
(318,500,l),
(318,480,l),
(387,448,l),
(240,62,l),
(240,-26,l)
);
}
);
width = 500;
},
{
background = {
shapes = (
{
closed = 1;
nodes = (
(238,-200,l),
(484,452,l),
(481,449,l),
(576,480,l),
(576,500,l),
(319,500,l),
(319,480,l),
(430,443,l),
(429,446,l),
(260,1,l),
(388,1,l),
(221,452,l),
(220,449,l),
(315,480,l),
(315,500,l),
(-55,500,l),
(-55,480,l),
(27,453,l),
(24,456,l),
(271,-215,l)
);
}
);
};
hints = (
{
horizontal = 1;
place = (488,15);
type = Stem;
},
{
place = (-78,627);
type = Stem;
},
{
horizontal = 1;
place = (482,21);
type = Stem;
}
);
layerId = "E0989092-07D5-4BE4-A82B-4E03160A36DB";
shapes = (
{
closed = 1;
nodes = (
(314,2,l),
(485,452,l),
(482,449,l),
(576,480,l),
(576,500,l),
(319,500,l),
(319,480,l),
(430,443,l),
(429,446,l),
(324,169,l),
(326,169,l),
(204,500,l),
(-55,500,l),
(-55,480,l),
(27,453,l),
(24,456,l),
(198,-16,l)
);
}
);
width = 561;
}
);
unicode = 118;
},
{
glyphname = w;
kernLeft = w;
kernRight = w;
layers = (
{
anchors = (
{
name = top;
pos = (342,501);
}
);
layerId = m01;
shapes = (
{
closed = 1;
nodes = (
(200,2,l),
(342,417,l),
(331,417,l),
(463,-16,l),
(476,2,l),
(636,465,l),
(617,441,l),
(708,480,l),
(708,500,l),
(504,500,l),
(504,480,l),
(601,442,l),
(596,463,l),
(493,158,l),
(498,161,l),
(385,500,l),
(258,500,l),
(258,480,l),
(333,459,l),
(322,481,l),
(210,145,l),
(219,145,l),
(111,500,l),
(-38,500,l),
(-38,480,l),
(56,441,l),
(34,465,l),
(187,-16,l)
);
}
);
width = 686;
},
{
associatedMasterId = m01;
layerId = "CCC204F1-CDC0-4B95-B559-48905217D45F";
name = "1. Jan. 24, 12:03";
shapes = (
{
closed = 1;
nodes = (
(259,129,l),
(143,500,l),
(-8,500,l),
(-8,480,l),
(69,448,l),
(220,-26,l)
);
},
{
closed = 1;
nodes = (
(370,413,l),
(398,500,l),
(288,500,l),
(288,480,l),
(351,480,l),
(220,72,l),
(220,-26,l)
);
},
{
closed = 1;
nodes = (
(535,151,l),
(418,500,l),
(288,500,l),
(288,480,l),
(346,464,l),
(496,-26,l)
);
},
{
closed = 1;
nodes = (
(664,448,l),
(738,480,l),
(738,500,l),
(534,500,l),
(534,480,l),
(614,449,l),
(496,72,l),
(496,-26,l)
);
}
);
width = 726;
},
{
anchors = (
{
name = top;
pos = (373,501);
}
);
background = {
shapes = (
{
closed = 1;
nodes = (
(247,2,l),
(418,452,l),
(415,449,l),
(509,480,l),
(509,500,l),
(252,500,l),
(252,480,l),
(363,443,l),
(362,446,l),
(257,169,l),
(306,169,l),
(184,500,l),
(-55,500,l),
(-55,480,l),
(27,453,l),
(24,456,l),
(198,-16,l)
);
},
{
closed = 1;
nodes = (
(247,2,l),
(418,452,l),
(415,449,l),
(509,480,l),
(509,500,l),
(252,500,l),
(252,480,l),
(363,443,l),
(362,446,l),
(257,169,l),
(306,169,l),
(184,500,l),
(-55,500,l),
(-55,480,l),
(27,453,l),
(24,456,l),
(198,-16,l)
);
},
{
closed = 1;
nodes = (
(537,2,l),
(708,452,l),
(705,449,l),
(799,480,l),
(799,500,l),
(542,500,l),
(542,480,l),
(653,443,l),
(652,446,l),
(547,169,l),
(596,169,l),
(474,500,l),
(235,500,l),
(235,480,l),
(317,453,l),
(314,456,l),
(488,-16,l)
);
}
);
};
hints = (
{
horizontal = 1;
place = (488,15);
type = Stem;
},
{
place = (-76,832);
type = Stem;
},
{
horizontal = 1;
place = (477,26);
type = Stem;
},
{
horizontal = 1;
place = (482,21);
type = Stem;
}
);
layerId = "E0989092-07D5-4BE4-A82B-4E03160A36DB";
shapes = (
{
closed = 1;
nodes = (
(247,1,l),
(367,317,l),
(365,317,l),
(488,-16,l),
(536,0,l),
(708,452,l),
(705,449,l),
(799,480,l),
(799,500,l),
(542,500,l),
(542,480,l),
(653,443,l),
(652,446,l),
(571,233,l),
(573,233,l),
(474,500,l),
(235,500,l),
(235,480,l),
(361,437,l),
(360,440,l),
(281,232,l),
(283,232,l),
(184,500,l),
(-55,500,l),
(-55,480,l),
(27,453,l),
(24,456,l),
(198,-16,l)
);
}
);
width = 784;
}
);
metricLeft = v;
metricRight = v;
unicode = 119;
},
{
glyphname = x;
layers = (
{
layerId = m01;
shapes = (
{
closed = 1;
nodes = (
(192,0,l),
(192,22,l),
(116,54,l),
(123,32,l),
(266,215,l),
(247,215,l),
(384,0,l),
(539,0,l),
(539,17,l),
(449,49,l),
(474,28,l),
(289,304,l),
(289,275,l),
(474,472,l),
(445,452,l),
(518,478,l),
(518,500,l),
(335,500,l),
(335,478,l),
(416,453,l),
(410,472,l),
(268,308,l),
(287,307,l),
(163,500,l),
(10,500,l),
(10,483,l),
(106,443,l),
(80,465,l),
(244,219,l),
(244,248,l),
(59,33,l),
(87,54,l),
(10,22,l),
(10,0,l)
);
}
);
width = 549;
},
{
associatedMasterId = m01;
layerId = "95ED4FDC-FAA1-4815-8E04-9314630187CE";
name = "1. Jan. 24, 12:04";
shapes = (
{
closed = 1;
nodes = (
(554,0,l),
(554,17,l),
(481,43,l),
(180,500,l),
(25,500,l),
(25,483,l),
(104,450,l),
(398,0,l)
);
},
{
closed = 1;
nodes = (
(207,0,l),
(207,22,l),
(148,47,l),
(297,262,l),
(274,290,l),
(85,47,l),
(25,22,l),
(25,0,l)
);
},
{
closed = 1;
nodes = (
(477,458,l),
(533,478,l),
(533,500,l),
(350,500,l),
(350,478,l),
(414,458,l),
(274,272,l),
(296,243,l)
);
}
);
width = 563;
},
{
background = {
shapes = (
{
closed = 1;
nodes = (
(276,500,l),
(25,500,l),
(25,480,l),
(107,453,l),
(104,456,l),
(353,0,l),
(555,0,l)
);
},
{
closed = 1;
nodes = (
(143,0,l),
(529,452,l),
(526,449,l),
(620,480,l),
(620,500,l),
(363,500,l),
(363,480,l),
(474,443,l),
(457,460,l),
(64,0,l)
);
}
);
};
hints = (
{
horizontal = 1;
place = (-3,10);
type = Stem;
},
{
horizontal = 1;
place = (485,18);
type = Stem;
},
{
place = (-35,616);
type = Stem;
},
{
horizontal = 1;
place = (475,28);
type = Stem;
}
);
layerId = "E0989092-07D5-4BE4-A82B-4E03160A36DB";
shapes = (
{
closed = 1;
nodes = (
(234,0,l),
(234,20,l),
(146,53,l),
(157,28,l),
(282,195,l),
(245,203,l),
(373,0,l),
(630,0,l),
(630,20,l),
(538,49,l),
(580,23,l),
(396,309,l),
(368,250,l),
(545,479,l),
(482,438,l),
(603,482,l),
(603,500,l),
(353,500,l),
(353,480,l),
(459,444,l),
(458,471,l),
(340,308,l),
(389,323,l),
(278,500,l),
(8,500,l),
(8,480,l),
(104,447,l),
(76,471,l),
(241,210,l),
(265,269,l),
(78,28,l),
(111,53,l),
(5,20,l),
(5,0,l)
);
}
);
width = 615;
}
);
metricLeft = n;
metricRight = n;
unicode = 120;
},
{
glyphname = y;
kernLeft = y;
kernRight = y;
layers = (
{
anchors = (
{
name = top;
pos = (264,500);
}
);
layerId = m01;
shapes = (
{
closed = 1;
nodes = (
(160,-216,l),
(251,0,l),
(449,467,l),
(425,444,l),
(522,480,l),
(522,500,l),
(313,500,l),
(313,481,l),
(403,444,l),
(393,468,l),
(260,128,l),
(270,128,l),
(114,500,l),
(-38,500,l),
(-38,479,l),
(53,443,l),
(31,467,l),
(223,6,l),
(223,39,l),
(95,-183,l),
(121,-162,l),
(17,-194,l),
(17,-216,l)
);
}
);
width = 500;
},
{
associatedMasterId = m01;
background = {
shapes = (
{
closed = 1;
nodes = (
(496,462,l),
(571,480,l),
(571,500,l),
(362,500,l),
(362,481,l),
(443,463,l),
(316,145,l),
(165,500,l),
(11,500,l),
(11,479,l),
(85,450,l),
(263,23,l),
(230,-59,o),
(208,-125,o),
(183,-160,cs),
(161,-189,o),
(142,-193,o),
(145,-205,cs),
(148,-217,o),
(181,-223,o),
(208,-189,cs),
(238,-150,o),
(265,-83,o),
(300,0,cs)
);
},
{
closed = 1;
nodes = (
(141,-192,o),
(121,-190,o),
(102,-164,cs),
(93,-152,o),
(85,-136,o),
(79,-117,cs),
(67,-77,o),
(61,-57,o),
(51,-57,cs),
(42,-57,o),
(36,-80,o),
(36,-122,cs),
(36,-157,o),
(48,-183,o),
(79,-201,cs),
(82,-203,o),
(86,-205,o),
(90,-207,cs),
(121,-222,o),
(148,-215,o),
(145,-205,cs)
);
}
);
};
layerId = "5DA92128-E1CB-424F-BC18-F79CDDA4066B";
name = "1. Jan. 24, 12:05";
shapes = (
{
closed = 1;
nodes = (
(491,450,l),
(571,480,l),
(571,500,l),
(362,500,l),
(362,481,l),
(435,451,l),
(316,145,l),
(165,500,l),
(11,500,l),
(11,479,l),
(85,450,l),
(263,23,l),
(300,0,l)
);
},
{
closed = 1;
nodes = (
(209,-216,l),
(300,0,l),
(263,23,l),
(153,-167,l),
(66,-194,l),
(66,-216,l)
);
}
);
width = 580;
},
{
anchors = (
{
name = top;
pos = (284,511);
}
);
background = {
shapes = (
{
closed = 1;
nodes = (
(199,-216,l),
(290,0,l),
(488,467,l),
(464,444,l),
(561,480,l),
(561,500,l),
(352,500,l),
(352,481,l),
(442,444,l),
(432,468,l),
(299,128,l),
(309,128,l),
(153,500,l),
(1,500,l),
(1,479,l),
(92,443,l),
(70,467,l),
(262,6,l),
(262,39,l),
(134,-183,l),
(160,-162,l),
(56,-194,l),
(56,-216,l)
);
}
);
};
hints = (
{
horizontal = 1;
place = (-219,18);
type = Stem;
},
{
horizontal = 1;
place = (489,14);
type = Stem;
},
{
place = (-66,647);
type = Stem;
},
{
horizontal = 1;
place = (482,21);
type = Stem;
}
);
layerId = "E0989092-07D5-4BE4-A82B-4E03160A36DB";
shapes = (
{
closed = 1;
nodes = (
(222,-186,l),
(290,0,l),
(502,438,l),
(499,435,l),
(594,474,l),
(594,500,l),
(344,500,l),
(344,471,l),
(446,435,l),
(445,438,l),
(336,223,l),
(338,223,l),
(215,500,l),
(-55,500,l),
(-55,471,l),
(27,431,l),
(24,434,l),
(222,-2,l),
(222,2,l),
(134,-183,l),
(170,-159,l),
(26,-204,l),
(26,-236,l)
);
}
);
width = 579;
}
);
metricLeft = v;
metricRight = v;
unicode = 121;
},
{
glyphname = z;
kernLeft = z;
kernRight = z;
layers = (
{
anchors = (
{
name = top;
pos = (258,499);
}
);
layerId = m01;
shapes = (
{
closed = 1;
nodes = (
(462,1,l),
(462,169,l),
(437,169,l),
(398,24,l),
(421,41,l),
(135,41,l),
(143,26,l),
(458,470,l),
(449,500,l),
(69,500,l),
(69,322,l),
(94,322,l),
(138,477,l),
(115,460,l),
(363,460,l),
(355,475,l),
(47,40,l),
(47,1,l)
);
}
);
width = 509;
},
{
anchors = (
{
name = top;
pos = (284,499);
}
);
hints = (
{
horizontal = 1;
place = (-1,47);
type = Stem;
},
{
horizontal = 1;
place = (455,47);
type = Stem;
},
{
place = (19,60);
type = Stem;
},
{
place = (422,60);
type = Stem;
},
{
horizontal = 1;
place = (-1,175);
type = Stem;
},
{
horizontal = 1;
place = (473,29);
type = Stem;
},
{
horizontal = 1;
place = (317,185);
type = Stem;
}
);
layerId = "E0989092-07D5-4BE4-A82B-4E03160A36DB";
shapes = (
{
closed = 1;
nodes = (
(515,0,l),
(515,174,l),
(465,174,l),
(430,43,l),
(433,45,l),
(244,45,l),
(245,43,l),
(524,473,l),
(515,500,l),
(52,500,l),
(52,317,l),
(102,317,l),
(141,457,l),
(138,455,l),
(304,455,l),
(303,457,l),
(30,32,l),
(30,0,l)
);
}
);
width = 554;
}
);
metricLeft = o;
metricRight = o;
unicode = 122;
},
{
glyphname = saltillo;
layers = (
{
layerId = m01;
shapes = (
{
closed = 1;
nodes = (
(86,515,l),
(106,700,l),
(34,700,l),
(44,515,l)
);
}
);
width = 210;
},
{
layerId = "E0989092-07D5-4BE4-A82B-4E03160A36DB";
shapes = (
{
closed = 1;
nodes = (
(96,495,l),
(116,700,l),
(24,700,l),
(34,495,l)
);
}
);
width = 140;
}
);
unicode = 42892;
},
{
color = 4;
glyphname = f_i;
layers = (
{
anchors = (
{
name = bottom_1;
pos = (154,0);
},
{
name = bottom_2;
pos = (461,0);
},
{
name = caret_1;
pos = (307,0);
},
{
name = top_1;
pos = (154,1065);
},
{
name = top_2;
pos = (461,1065);
}
);
layerId = m01;
shapes = (
{
closed = 1;
nodes = (
(282,0,l),
(282,19,l),
(191,56,l),
(208,31,l),
(208,480,l),
(190,462,l),
(438,462,l),
(420,480,l),
(420,30,l),
(437,54,l),
(346,20,l),
(346,0,l),
(604,0,l),
(604,20,l),
(493,57,l),
(510,33,l),
(510,434,l),
(512,510,l),
(502,516,l),
(330,502,l),
(190,502,l),
(208,484,l),
(208,598,ls),
(208,709,o),
(233,787,o),
(288,787,cs),
(338,787,o),
(393,739,o),
(420,672,c),
(521,679,l),
(521,758,o),
(436,814,o),
(317,814,cs),
(192,814,o),
(118,711,o),
(118,566,cs),
(118,484,l),
(136,502,l),
(10,502,l),
(10,462,l),
(136,462,l),
(118,480,l),
(118,32,l),
(135,56,l),
(27,20,l),
(27,0,l)
);
}
);
width = 614;
},
{
anchors = (
{
name = ogo;
pos = (507,0);
},
{
name = top;
pos = (536,500);
}
);
associatedMasterId = m01;
layerId = "35488390-39C4-4D7C-8419-1BCD967720D1";
name = "3. Jan. 24, 12:11";
shapes = (
{
closed = 1;
nodes = (
(283,0,l),
(283,19,l),
(192,56,l),
(209,31,l),
(209,480,l),
(191,462,l),
(331,462,l),
(331,502,l),
(191,502,l),
(209,484,l),
(209,598,ls),
(209,709,o),
(234,787,o),
(289,787,cs),
(339,787,o),
(394,739,o),
(421,672,c),
(522,679,l),
(522,758,o),
(437,814,o),
(318,814,cs),
(193,814,o),
(119,711,o),
(119,566,cs),
(119,484,l),
(137,502,l),
(11,502,l),
(11,462,l),
(137,462,l),
(119,480,l),
(119,32,l),
(136,56,l),
(28,20,l),
(28,0,l)
);
},
{
closed = 1;
nodes = (
(605,0,l),
(605,20,l),
(494,57,l),
(511,33,l),
(511,434,l),
(513,510,l),
(503,516,l),
(331,502,l),
(331,462,l),
(439,462,l),
(421,482,l),
(421,30,l),
(438,54,l),
(347,20,l),
(347,0,l)
);
}
);
width = 630;
},
{
anchors = (
{
name = bottom_1;
pos = (167,0);
},
{
name = bottom_2;
pos = (501,0);
},
{
name = caret_1;
pos = (334,0);
},
{
name = top_1;
pos = (167,1065);
},
{
name = top_2;
pos = (501,1065);
}
);
hints = (
{
horizontal = 1;
place = (0,17);
type = Stem;
},
{
horizontal = 1;
place = (459,46);
type = Stem;
},
{
horizontal = 1;
place = (784,33);
type = Stem;
},
{
place = (126,176);
type = Stem;
},
{
place = (428,176);
type = Stem;
},
{
horizontal = 1;
place = (505,-20);
target = down;
type = TopGhost;
},
{
horizontal = 1;
place = (0,13);
type = Stem;
}
);
layerId = "E0989092-07D5-4BE4-A82B-4E03160A36DB";
shapes = (
{
closed = 1;
nodes = (
(328,0,l),
(328,19,l),
(285,43,l),
(287,40,l),
(287,456,l),
(285,454,l),
(415,454,l),
(413,456,l),
(413,41,l),
(415,44,l),
(372,17,l),
(372,0,l),
(683,0,l),
(683,17,l),
(587,49,l),
(589,46,l),
(589,436,l),
(594,500,l),
(585,509,l),
(389,500,l),
(285,500,l),
(287,498,l),
(287,605,ls),
(287,710,o),
(302,784,o),
(324,784,cs),
(388,784,o),
(433,721,o),
(433,632,c),
(584,649,l),
(584,747,o),
(488,817,o),
(353,817,cs),
(211,817,o),
(111,703,o),
(111,543,cs),
(111,498,l),
(113,500,l),
(5,500,l),
(5,454,l),
(113,454,l),
(111,456,l),
(111,45,l),
(113,48,l),
(20,13,l),
(20,0,l)
);
}
);
width = 668;
}
);
metricLeft = f;
metricRight = i;
},
{
color = 4;
glyphname = f_l;
layers = (
{
anchors = (
{
name = bottom_1;
pos = (154,0);
},
{
name = bottom_2;
pos = (461,0);
},
{
name = caret_1;
pos = (307,0);
},
{
name = top_1;
pos = (154,1065);
},
{
name = top_2;
pos = (461,1065);
}
);
layerId = m01;
shapes = (
{
closed = 1;
nodes = (
(272,0,l),
(272,19,l),
(192,55,l),
(208,30,l),
(208,480,l),
(190,462,l),
(330,462,l),
(330,502,l),
(190,502,l),
(208,484,l),
(208,598,ls),
(208,709,o),
(233,787,o),
(288,787,cs),
(342,787,o),
(356,779,o),
(376,729,c),
(438,715,l),
(420,737,l),
(420,31,l),
(437,56,l),
(349,20,l),
(349,0,l),
(604,0,l),
(604,19,l),
(493,56,l),
(510,32,l),
(510,718,l),
(512,794,l),
(502,800,l),
(469,790,o),
(443,788,o),
(431,792,c),
(406,805,o),
(351,814,o),
(317,814,cs),
(192,814,o),
(118,711,o),
(118,566,cs),
(118,484,l),
(136,502,l),
(10,502,l),
(10,462,l),
(136,462,l),
(118,480,l),
(118,32,l),
(135,56,l),
(27,20,l),
(27,0,l)
);
}
);
width = 614;
},
{
anchors = (
{
name = bottom_1;
pos = (164,0);
},
{
name = bottom_2;
pos = (491,0);
},
{
name = caret_1;
pos = (327,0);
},
{
name = top_1;
pos = (164,1065);
},
{
name = top_2;
pos = (491,1065);
}
);
hints = (
{
horizontal = 1;
place = (0,13);
type = Stem;
},
{
horizontal = 1;
place = (459,46);
type = Stem;
},
{
horizontal = 1;
place = (784,33);
type = Stem;
},
{
place = (92,177);
type = Stem;
},
{
place = (394,177);
type = Stem;
},
{
horizontal = 1;
place = (784,8);
type = Stem;
}
);
layerId = "E0989092-07D5-4BE4-A82B-4E03160A36DB";
shapes = (
{
closed = 1;
nodes = (
(304,0,l),
(304,12,l),
(271,37,l),
(273,34,l),
(273,456,l),
(271,454,l),
(398,454,l),
(398,500,l),
(271,500,l),
(273,498,l),
(273,605,ls),
(273,717,o),
(296,784,o),
(310,784,cs),
(362,784,o),
(398,754,o),
(398,711,c),
(400,708,l),
(398,711,l),
(398,40,l),
(400,43,l),
(344,13,l),
(344,0,l),
(669,0,l),
(669,12,l),
(573,46,l),
(575,43,l),
(575,718,l),
(577,784,l),
(557,810,l),
(496,792,o),
(436,786,o),
(419,799,c),
(398,810,o),
(369,817,o),
(339,817,cs),
(172,817,o),
(96,698,o),
(96,543,cs),
(96,498,l),
(98,500,l),
(5,500,l),
(5,454,l),
(98,454,l),
(96,456,l),
(96,43,l),
(98,46,l),
(5,13,l),
(5,0,l)
);
}
);
width = 654;
}
);
metricLeft = f;
metricRight = l;
},
{
color = 5;
glyphname = pi;
layers = (
{
layerId = m01;
shapes = (
{
closed = 1;
nodes = (
(206,0,l),
(206,440,l),
(374,440,l),
(374,91,ls),
(374,32,o),
(421,-5,o),
(495,-5,cs),
(522,-5,o),
(517,-5,o),
(557,-5,c),
(557,55,l),
(495,55,ls),
(470,55,o),
(454,69,o),
(454,91,cs),
(454,112,o),
(454,332,o),
(454,440,c),
(557,440,l),
(557,500,l),
(25,500,l),
(25,440,l),
(126,440,l),
(126,0,l)
);
}
);
width = 600;
},
{
hints = (
{
horizontal = 1;
place = (500,-20);
target = down;
type = TopGhost;
},
{
place = (216,168);
type = Stem;
}
);
layerId = "E0989092-07D5-4BE4-A82B-4E03160A36DB";
shapes = (
{
closed = 1;
nodes = (
(246,0,l),
(246,440,l),
(334,440,l),
(334,88,ls),
(334,29,o),
(401,-8,o),
(475,-8,cs),
(502,-8,o),
(507,-8,o),
(547,-8,c),
(547,52,l),
(529,52,ls),
(505,52,o),
(504,66,o),
(504,88,cs),
(504,109,o),
(504,332,o),
(504,440,c),
(547,440,l),
(547,500,l),
(15,500,l),
(15,440,l),
(75,440,l),
(75,0,l)
);
}
);
width = 582;
}
);
unicode = 960;
},
{
color = 4;
glyphname = zero;
layers = (
{
layerId = m01;
shapes = (
{
closed = 1;
nodes = (
(448,-15,o),
(523,132,o),
(523,367,cs),
(523,582,o),
(448,717,o),
(297,717,cs),
(143,717,o),
(57,578,o),
(57,357,cs),
(57,128,o),
(143,-15,o),
(297,-15,cs)
);
},
{
closed = 1;
nodes = (
(203,18,o),
(161,139,o),
(161,385,cs),
(161,585,o),
(195,683,o),
(284,683,cs),
(388,683,o),
(419,569,o),
(419,336,cs),
(419,122,o),
(397,18,o),
(310,18,cs)
);
}
);
width = 580;
},
{
hints = (
{
horizontal = 1;
place = (-18,39);
type = Stem;
},
{
horizontal = 1;
place = (680,40);
type = Stem;
},
{
place = (14,190);
type = Stem;
},
{
place = (376,190);
type = Stem;
}
);
layerId = "E0989092-07D5-4BE4-A82B-4E03160A36DB";
shapes = (
{
closed = 1;
nodes = (
(498,-16,o),
(576,132,o),
(576,367,cs),
(576,579,o),
(500,716,o),
(307,716,cs),
(116,716,o),
(24,578,o),
(24,357,cs),
(24,128,o),
(115,-16,o),
(307,-16,cs)
);
},
{
closed = 1;
nodes = (
(253,24,o),
(214,134,o),
(214,385,cs),
(214,590,o),
(245,676,o),
(294,676,cs),
(356,676,o),
(386,574,o),
(386,336,cs),
(386,119,o),
(365,24,o),
(320,24,cs)
);
}
);
width = 600;
}
);
unicode = 48;
},
{
color = 4;
glyphname = one;
layers = (
{
layerId = m01;
shapes = (
{
closed = 1;
nodes = (
(472,0,l),
(472,50,l),
(334,50,l),
(352,32,l),
(352,700,l),
(334,716,l),
(103,571,l),
(128,528,l),
(277,622,l),
(262,630,l),
(262,32,l),
(280,50,l),
(141,50,l),
(141,0,l)
);
}
);
width = 580;
},
{
associatedMasterId = m01;
layerId = "360EFFB6-4E8B-4C79-A491-3A1B2B1C2A03";
name = "1. Jan. 24, 17:20";
shapes = (
{
closed = 1;
nodes = (
(352,0,l),
(352,700,l),
(334,716,l),
(103,571,l),
(128,528,l),
(262,612,l),
(262,0,l)
);
},
{
closed = 1;
nodes = (
(472,0,l),
(472,50,l),
(141,50,l),
(141,0,l)
);
}
);
width = 580;
},
{
hints = (
{
horizontal = 1;
place = (-3,56);
type = Stem;
},
{
place = (202,177);
type = Stem;
}
);
layerId = "E0989092-07D5-4BE4-A82B-4E03160A36DB";
shapes = (
{
closed = 1;
nodes = (
(466,0,l),
(466,24,l),
(348,50,l),
(350,48,l),
(350,700,l),
(334,716,l),
(18,566,l),
(51,532,l),
(168,573,l),
(166,554,l),
(166,48,l),
(168,50,l),
(48,24,l),
(48,0,l)
);
}
);
width = 480;
}
);
unicode = 49;
},
{
color = 4;
glyphname = two;
layers = (
{
layerId = m01;
shapes = (
{
closed = 1;
nodes = (
(511,0,l),
(536,167,l),
(507,174,l),
(437,65,l),
(465,80,l),
(149,80,l),
(169,70,l),
(295,237,o),
(504,310,o),
(504,539,cs),
(504,641,o),
(407,714,o),
(269,715,cs),
(211,715,o),
(133,679,o),
(79,627,c),
(79,456,l),
(131,456,l),
(131,579,o),
(188,666,o),
(269,666,cs),
(346,666,o),
(400,603,o),
(400,515,cs),
(400,337,o),
(206,200,o),
(70,40,c),
(70,0,l)
);
}
);
width = 580;
},
{
associatedMasterId = m01;
layerId = "0DE6C439-2438-4EA0-86E4-AE4E41974AE0";
name = "1. Jan. 24, 17:21";
shapes = (
{
closed = 1;
nodes = (
(511,0,l),
(536,167,l),
(507,174,l),
(447,80,l),
(167,80,l),
(303,240,o),
(504,315,o),
(504,539,cs),
(504,641,o),
(407,714,o),
(269,715,c),
(269,666,l),
(346,666,o),
(400,603,o),
(400,515,cs),
(400,337,o),
(206,200,o),
(70,40,c),
(70,0,l)
);
},
{
closed = 1;
nodes = (
(131,456,l),
(131,579,o),
(188,666,o),
(269,666,c),
(269,715,l),
(211,715,o),
(133,679,o),
(79,627,c),
(79,456,l)
);
}
);
width = 580;
},
{
background = {
shapes = (
{
closed = 0;
nodes = (
(531,0,l),
(566,194,l),
(519,213,l),
(432,48,l),
(435,50,l)
);
}
);
};
hints = (
{
horizontal = 1;
place = (-3,86);
type = Stem;
},
{
horizontal = 1;
place = (661,56);
type = Stem;
},
{
place = (340,191);
type = Stem;
}
);
layerId = "E0989092-07D5-4BE4-A82B-4E03160A36DB";
shapes = (
{
closed = 1;
nodes = (
(532,0,l),
(566,194,l),
(529,213,l),
(458,78,l),
(451,80,l),
(176,80,l),
(178,79,l),
(241,147,o),
(527,348,o),
(527,539,cs),
(527,663,o),
(427,717,o),
(285,717,cs),
(197,717,o),
(100,675,o),
(50,615,c),
(50,453,l),
(100,453,l),
(124,577,o),
(199,665,o),
(252,665,cs),
(301,665,o),
(336,603,o),
(336,515,cs),
(336,317,o),
(45,83,o),
(6,30,c),
(6,0,l)
);
}
);
width = 600;
}
);
unicode = 50;
},
{
color = 4;
glyphname = three;
layers = (
{
layerId = m01;
shapes = (
{
closed = 1;
nodes = (
(413,-14,o),
(527,89,o),
(527,234,cs),
(527,360,o),
(463,427,o),
(363,419,c),
(363,411,l),
(434,462,o),
(479,522,o),
(479,572,cs),
(479,657,o),
(398,717,o),
(283,717,cs),
(214,717,o),
(127,680,o),
(72,627,c),
(99,580,l),
(139,630,o),
(207,666,o),
(263,666,cs),
(332,666,o),
(380,615,o),
(380,544,cs),
(380,475,o),
(312,406,o),
(216,377,c),
(229,338,l),
(242,344,ls),
(266,354,o),
(289,358,o),
(310,358,cs),
(382,358,o),
(428,302,o),
(428,202,cs),
(428,99,o),
(364,26,o),
(273,26,cs),
(180,26,o),
(115,100,o),
(115,205,c),
(73,205,l),
(73,54,l),
(112,14,o),
(186,-14,o),
(253,-14,cs)
);
}
);
width = 580;
},
{
associatedMasterId = m01;
layerId = "8F331F5D-2938-46F6-989C-2C6BBF10FD3A";
name = "1. Jan. 24, 17:22";
shapes = (
{
closed = 1;
nodes = (
(413,-14,o),
(527,89,o),
(527,234,cs),
(527,408,o),
(405,468,o),
(233,380,c),
(229,338,l),
(346,391,o),
(428,335,o),
(428,202,cs),
(428,99,o),
(364,26,o),
(273,26,cs),
(180,26,o),
(115,100,o),
(115,205,c),
(73,205,l),
(73,54,l),
(112,14,o),
(186,-14,o),
(253,-14,cs)
);
},
{
closed = 1;
nodes = (
(375,398,o),
(479,495,o),
(479,572,cs),
(479,657,o),
(398,717,o),
(283,717,cs),
(214,717,o),
(127,680,o),
(72,627,c),
(99,580,l),
(139,630,o),
(207,666,o),
(263,666,cs),
(332,666,o),
(380,615,o),
(380,544,cs),
(380,475,o),
(312,406,o),
(216,377,c),
(229,338,l)
);
}
);
width = 580;
},
{
hints = (
{
horizontal = 1;
place = (-17,46);
type = Stem;
},
{
horizontal = 1;
place = (663,57);
type = Stem;
},
{
place = (46,79);
type = Stem;
},
{
place = (385,185);
type = Stem;
},
{
place = (337,185);
type = Stem;
}
);
layerId = "E0989092-07D5-4BE4-A82B-4E03160A36DB";
shapes = (
{
closed = 1;
nodes = (
(421,-17,o),
(560,86,o),
(560,234,cs),
(560,337,o),
(494,407,o),
(398,423,c),
(398,422,l),
(471,474,o),
(512,528,o),
(512,572,cs),
(512,654,o),
(410,715,o),
(273,715,cs),
(184,715,o),
(70,670,o),
(25,624,c),
(84,522,l),
(139,620,o),
(204,664,o),
(253,664,cs),
(292,664,o),
(327,625,o),
(327,544,cs),
(327,457,o),
(250,388,o),
(166,374,c),
(186,315,l),
(237,334,ls),
(263,344,o),
(286,348,o),
(305,348,cs),
(355,348,o),
(375,312,o),
(375,202,cs),
(375,103,o),
(329,33,o),
(263,33,cs),
(171,33,o),
(86,106,o),
(86,208,c),
(36,208,l),
(36,66,l),
(61,17,o),
(147,-17,o),
(243,-17,cs)
);
}
);
width = 590;
}
);
unicode = 51;
},
{
color = 4;
glyphname = four;
layers = (
{
layerId = m01;
shapes = (
{
closed = 1;
nodes = (
(434,0,l),
(434,203,l),
(416,185,l),
(537,185,l),
(537,256,l),
(416,256,l),
(434,238,l),
(434,698,l),
(405,722,l),
(37,230,l),
(37,185,l),
(362,185,l),
(344,203,l),
(344,0,l)
);
},
{
closed = 1;
nodes = (
(355,576,l),
(344,579,l),
(344,238,l),
(362,256,l),
(102,256,l),
(109,241,l)
);
}
);
width = 580;
},
{
associatedMasterId = m01;
layerId = "8D90DA5D-419B-4F96-B085-6315BED35AA5";
name = "2. Jan. 24, 19:58";
shapes = (
{
closed = 1;
nodes = (
(434,0,l),
(434,698,l),
(405,722,l),
(37,230,l),
(37,185,l),
(537,185,l),
(537,256,l),
(120,256,l),
(344,561,l),
(344,0,l)
);
}
);
width = 580;
},
{
hints = (
{
horizontal = 1;
place = (0,259);
type = Stem;
},
{
place = (334,148);
type = Stem;
},
{
horizontal = 1;
place = (155,104);
type = Stem;
}
);
layerId = "E0989092-07D5-4BE4-A82B-4E03160A36DB";
shapes = (
{
closed = 1;
nodes = (
(477,0,l),
(477,157,l),
(475,155,l),
(574,155,l),
(574,245,l),
(450,245,l),
(477,238,l),
(477,698,l),
(416,751,l),
(5,220,l),
(5,155,l),
(354,155,l),
(329,168,l),
(329,0,l)
);
},
{
closed = 1;
nodes = (
(363,562,l),
(329,559,l),
(329,202,l),
(402,245,l),
(103,245,l),
(102,226,l)
);
}
);
width = 600;
}
);
unicode = 52;
},
{
color = 4;
glyphname = five;
layers = (
{
layerId = m01;
shapes = (
{
closed = 1;
nodes = (
(410,-14,o),
(512,96,o),
(512,251,cs),
(512,375,o),
(418,462,o),
(286,462,cs),
(228,462,o),
(171,449,o),
(156,430,c),
(159,417,l),
(183,638,l),
(163,620,l),
(462,620,l),
(472,748,l),
(434,748,l),
(410,683,l),
(434,700,l),
(135,700,l),
(99,349,l),
(109,341,l),
(151,374,o),
(208,397,o),
(246,397,cs),
(344,397,o),
(413,323,o),
(413,219,cs),
(413,103,o),
(360,21,o),
(286,21,cs),
(212,21,o),
(136,106,o),
(126,184,c),
(104,184,l),
(80,74,l),
(130,22,o),
(207,-14,o),
(266,-14,cs)
);
}
);
width = 580;
},
{
associatedMasterId = m01;
layerId = "1A4747A4-C5D2-483C-AC0C-E6C9B6BD64D5";
name = "1. Jan. 24, 17:28";
shapes = (
{
closed = 1;
nodes = (
(410,-14,o),
(512,96,o),
(512,251,cs),
(512,375,o),
(418,462,o),
(286,462,cs),
(233,462,o),
(181,451,o),
(161,435,c),
(181,620,l),
(416,620,l),
(444,542,l),
(482,542,l),
(462,700,l),
(135,700,l),
(99,349,l),
(109,341,l),
(151,374,o),
(208,397,o),
(246,397,cs),
(344,397,o),
(413,323,o),
(413,219,cs),
(413,103,o),
(360,21,o),
(286,21,cs),
(212,21,o),
(136,106,o),
(126,184,c),
(104,184,l),
(80,74,l),
(130,22,o),
(207,-14,o),
(266,-14,cs)
);
}
);
width = 580;
},
{
associatedMasterId = m01;
layerId = "7709C619-CB0A-473C-9407-E9C3975A9468";
name = "3. Jan. 24, 18:56";
shapes = (
{
closed = 1;
nodes = (
(410,-14,o),
(512,96,o),
(512,251,cs),
(512,375,o),
(418,462,o),
(286,462,cs),
(228,462,o),
(171,449,o),
(156,430,c),
(159,417,l),
(183,638,l),
(163,620,l),
(434,620,l),
(410,637,l),
(434,572,l),
(472,572,l),
(462,700,l),
(135,700,l),
(99,349,l),
(109,341,l),
(151,374,o),
(208,397,o),
(246,397,cs),
(344,397,o),
(413,323,o),
(413,219,cs),
(413,103,o),
(360,21,o),
(286,21,cs),
(212,21,o),
(136,106,o),
(126,184,c),
(104,184,l),
(80,74,l),
(130,22,o),
(207,-14,o),
(266,-14,cs)
);
}
);
width = 580;
},
{
hints = (
{
horizontal = 1;
place = (-17,41);
type = Stem;
},
{
horizontal = 1;
place = (394,71);
type = Stem;
},
{
horizontal = 1;
place = (617,86);
type = Stem;
},
{
place = (370,185);
type = Stem;
}
);
layerId = "E0989092-07D5-4BE4-A82B-4E03160A36DB";
shapes = (
{
closed = 1;
nodes = (
(417,-17,o),
(541,94,o),
(541,251,cs),
(541,376,o),
(430,465,o),
(272,465,cs),
(203,465,o),
(137,441,o),
(112,407,c),
(120,400,l),
(143,619,l),
(127,593,l),
(475,593,l),
(485,751,l),
(428,751,l),
(409,701,l),
(412,703,l),
(78,703,l),
(43,359,l),
(95,316,l),
(126,362,o),
(202,394,o),
(232,394,cs),
(305,394,o),
(366,321,o),
(366,219,cs),
(366,111,o),
(317,34,o),
(262,34,cs),
(177,34,o),
(117,96,o),
(117,184,c),
(48,187,l),
(26,82,l),
(72,24,o),
(161,-17,o),
(242,-17,cs)
);
}
);
width = 576;
}
);
unicode = 53;
},
{
color = 4;
glyphname = six;
layers = (
{
layerId = m01;
shapes = (
{
closed = 1;
nodes = (
(434,-13,o),
(526,87,o),
(526,228,cs),
(526,342,o),
(439,422,o),
(315,422,cs),
(258,422,o),
(200,392,o),
(160,345,c),
(167,343,l),
(178,483,o),
(298,620,o),
(461,673,c),
(455,715,l),
(230,661,o),
(70,485,o),
(70,290,cs),
(70,113,o),
(167,-13,o),
(305,-13,cs)
);
},
{
closed = 1;
nodes = (
(230,18,o),
(166,149,o),
(166,333,c),
(159,307,l),
(189,346,o),
(241,372,o),
(295,372,cs),
(378,372,o),
(437,297,o),
(437,190,cs),
(437,89,o),
(390,18,o),
(324,18,cs)
);
}
);
width = 580;
},
{
associatedMasterId = m01;
layerId = "3277B660-BE81-4AB4-86EE-2677D2A8F419";
name = "1. Jan. 24, 17:29";
shapes = (
{
closed = 1;
nodes = (
(434,-13,o),
(526,87,o),
(526,228,cs),
(526,342,o),
(439,422,o),
(315,422,cs),
(237,422,o),
(156,364,o),
(119,282,c),
(139,268,l),
(159,329,o),
(224,372,o),
(295,372,cs),
(378,372,o),
(437,297,o),
(437,190,cs),
(437,89,o),
(390,18,o),
(324,18,cs),
(231,18,o),
(166,148,o),
(166,332,c),
(172,477,o),
(294,618,o),
(461,673,c),
(455,715,l),
(230,661,o),
(70,485,o),
(70,290,cs),
(70,113,o),
(167,-13,o),
(305,-13,cs)
);
}
);
width = 580;
},
{
hints = (
{
horizontal = 1;
place = (-16,37);
type = Stem;
},
{
horizontal = 1;
place = (369,56);
type = Stem;
},
{
place = (27,182);
type = Stem;
},
{
place = (394,175);
type = Stem;
}
);
layerId = "E0989092-07D5-4BE4-A82B-4E03160A36DB";
shapes = (
{
closed = 1;
nodes = (
(455,-16,o),
(564,85,o),
(564,228,cs),
(564,343,o),
(459,425,o),
(310,425,cs),
(280,425,o),
(237,414,o),
(205,394,c),
(207,393,l),
(207,531,o),
(376,649,o),
(498,678,c),
(492,730,l),
(217,683,o),
(22,500,o),
(22,290,cs),
(22,111,o),
(137,-16,o),
(300,-16,cs)
);
},
{
closed = 1;
nodes = (
(253,34,o),
(205,158,o),
(204,329,c),
(200,320,l),
(221,350,o),
(257,369,o),
(290,369,cs),
(348,369,o),
(389,295,o),
(389,190,cs),
(389,99,o),
(360,34,o),
(319,34,cs)
);
}
);
width = 603;
}
);
unicode = 54;
},
{
color = 4;
glyphname = seven;
layers = (
{
layerId = m01;
shapes = (
{
closed = 1;
nodes = (
(234,0,l),
(545,683,l),
(528,700,l),
(98,700,l),
(78,507,l),
(126,507,l),
(159,627,l),
(136,610,l),
(467,610,l),
(457,626,l),
(125,0,l)
);
}
);
width = 580;
},
{
hints = (
{
horizontal = 1;
place = (-3,21);
target = up;
type = BottomGhost;
},
{
horizontal = 1;
place = (607,96);
type = Stem;
},
{
place = (35,548);
type = Stem;
},
{
horizontal = 1;
place = (678,25);
type = Stem;
},
{
horizontal = 1;
place = (504,199);
type = Stem;
}
);
layerId = "E0989092-07D5-4BE4-A82B-4E03160A36DB";
shapes = (
{
closed = 1;
nodes = (
(256,-3,l),
(567,678,l),
(542,701,l),
(39,701,l),
(19,516,l),
(82,516,l),
(116,627,l),
(97,611,l),
(454,611,l),
(445,632,l),
(67,-3,l)
);
}
);
width = 583;
}
);
unicode = 55;
},
{
color = 4;
glyphname = eight;
layers = (
{
layerId = m01;
shapes = (
{
closed = 1;
nodes = (
(428,-15,o),
(522,70,o),
(522,190,cs),
(522,259,o),
(447,317,o),
(351,387,c),
(352,371,l),
(431,416,o),
(486,471,o),
(486,544,cs),
(486,644,o),
(405,715,o),
(291,715,cs),
(176,715,o),
(94,642,o),
(94,538,cs),
(94,473,o),
(158,411,o),
(250,347,c),
(251,364,l),
(146,303,o),
(74,241,o),
(74,172,cs),
(74,62,o),
(165,-15,o),
(294,-15,cs)
);
},
{
closed = 1;
nodes = (
(222,20,o),
(171,90,o),
(171,188,cs),
(171,252,o),
(218,298,o),
(288,337,c),
(261,339,l),
(356,276,o),
(425,228,o),
(425,169,cs),
(425,82,o),
(370,20,o),
(294,20,cs)
);
},
{
closed = 1;
nodes = (
(245,464,o),
(179,500,o),
(179,556,cs),
(179,629,o),
(225,680,o),
(291,680,cs),
(356,680,o),
(402,620,o),
(402,534,cs),
(402,475,o),
(366,435,o),
(312,400,c),
(338,398,l)
);
}
);
width = 580;
},
{
associatedMasterId = m01;
layerId = "9B65EE20-D1C2-4796-B855-3DB27BAA9017";
name = "1. Jan. 24, 17:32";
shapes = (
{
closed = 1;
nodes = (
(428,-15,o),
(522,70,o),
(522,190,cs),
(522,191,l),
(425,169,l),
(424,82,o),
(370,20,o),
(294,20,cs),
(222,20,o),
(171,90,o),
(171,188,cs),
(171,373,o),
(486,341,o),
(486,544,cs),
(486,644,o),
(405,715,o),
(291,715,cs),
(176,715,o),
(94,642,o),
(94,538,c),
(179,556,l),
(179,629,o),
(225,680,o),
(291,680,cs),
(356,680,o),
(402,620,o),
(402,534,cs),
(402,352,o),
(74,372,o),
(74,172,cs),
(74,62,o),
(165,-15,o),
(294,-15,cs)
);
},
{
closed = 1;
nodes = (
(522,190,l),
(522,363,o),
(179,427,o),
(179,556,c),
(94,538,l),
(94,373,o),
(425,299,o),
(425,169,c)
);
}
);
width = 580;
},
{
hints = (
{
horizontal = 1;
place = (-18,41);
type = Stem;
},
{
horizontal = 1;
place = (677,41);
type = Stem;
},
{
place = (31,183);
type = Stem;
},
{
place = (359,170);
type = Stem;
},
{
place = (382,183);
type = Stem;
},
{
place = (51,171);
type = Stem;
}
);
layerId = "E0989092-07D5-4BE4-A82B-4E03160A36DB";
shapes = (
{
closed = 1;
nodes = (
(449,-18,o),
(561,70,o),
(561,200,cs),
(561,320,o),
(465,350,o),
(386,386,c),
(386,384,l),
(454,416,o),
(525,435,o),
(525,544,cs),
(525,646,o),
(426,718,o),
(287,718,cs),
(145,718,o),
(47,639,o),
(47,528,cs),
(47,427,o),
(126,394,o),
(197,352,c),
(197,354,l),
(123,322,o),
(27,308,o),
(27,172,cs),
(27,60,o),
(136,-18,o),
(290,-18,cs)
);
},
{
closed = 1;
nodes = (
(243,23,o),
(210,92,o),
(210,188,cs),
(210,266,o),
(234,284,o),
(262,311,c),
(260,311,l),
(321,271,o),
(378,240,o),
(378,159,cs),
(378,79,o),
(339,23,o),
(290,23,cs)
);
},
{
closed = 1;
nodes = (
(263,447,o),
(218,479,o),
(218,564,cs),
(218,631,o),
(249,677,o),
(287,677,cs),
(327,677,o),
(355,617,o),
(355,534,cs),
(355,468,o),
(337,451,o),
(306,419,c),
(317,421,l)
);
}
);
width = 590;
}
);
unicode = 56;
},
{
color = 4;
glyphname = nine;
layers = (
{
layerId = m01;
shapes = (
{
closed = 1;
nodes = (
(352,42,o),
(512,218,o),
(512,413,cs),
(512,590,o),
(415,716,o),
(277,716,cs),
(148,716,o),
(56,616,o),
(56,475,cs),
(56,361,o),
(143,281,o),
(267,281,cs),
(324,281,o),
(381,311,o),
(423,358,c),
(415,360,l),
(404,219,o),
(284,83,o),
(121,30,c),
(127,-12,l)
);
},
{
closed = 1;
nodes = (
(204,331,o),
(145,406,o),
(145,513,cs),
(145,614,o),
(192,685,o),
(258,685,cs),
(351,685,o),
(416,555,o),
(416,371,c),
(423,397,l),
(393,357,o),
(342,331,o),
(287,331,cs)
);
}
);
width = 580;
},
{
associatedMasterId = m01;
layerId = "652BC857-12F2-4634-8D43-BFE88CBAD296";
name = "1. Jan. 24, 17:38";
shapes = (
{
closed = 1;
nodes = (
(352,42,o),
(512,218,o),
(512,413,cs),
(512,590,o),
(415,716,o),
(277,716,cs),
(148,716,o),
(56,616,o),
(56,475,cs),
(56,361,o),
(143,281,o),
(267,281,cs),
(345,281,o),
(426,339,o),
(463,421,c),
(443,435,l),
(423,374,o),
(358,331,o),
(287,331,cs),
(204,331,o),
(145,406,o),
(145,513,cs),
(145,614,o),
(192,685,o),
(258,685,cs),
(351,685,o),
(416,555,o),
(416,371,c),
(410,226,o),
(288,85,o),
(121,30,c),
(127,-12,l)
);
}
);
width = 580;
},
{
background = {
shapes = (
{
closed = 1;
nodes = (
(85,-27,l),
(370,22,o),
(555,213,o),
(555,413,cs),
(555,585,o),
(452,719,o),
(277,719,cs),
(128,719,o),
(13,624,o),
(13,475,cs),
(13,356,o),
(125,278,o),
(267,278,cs),
(299,278,o),
(331,282,o),
(361,287,c),
(320,157,o),
(205,55,o),
(79,25,c)
);
},
{
closed = 1;
nodes = (
(188,622,o),
(227,682,o),
(258,682,cs),
(313,682,o),
(372,567,o),
(373,378,c),
(351,346,o),
(319,334,o),
(287,334,cs),
(237,334,o),
(188,396,o),
(188,513,cs)
);
}
);
};
hints = (
{
horizontal = 1;
place = (278,56);
type = Stem;
},
{
horizontal = 1;
place = (682,37);
type = Stem;
},
{
place = (13,175);
type = Stem;
},
{
place = (373,182);
type = Stem;
}
);
layerId = "E0989092-07D5-4BE4-A82B-4E03160A36DB";
shapes = (
{
closed = 1;
nodes = (
(359,17,o),
(554,200,o),
(554,410,cs),
(554,589,o),
(439,716,o),
(276,716,cs),
(121,716,o),
(12,615,o),
(12,472,cs),
(12,357,o),
(117,275,o),
(266,275,cs),
(296,275,o),
(339,286,o),
(371,306,c),
(369,307,l),
(369,169,o),
(200,51,o),
(78,22,c),
(84,-30,l)
);
},
{
closed = 1;
nodes = (
(228,331,o),
(187,405,o),
(187,510,cs),
(187,601,o),
(216,666,o),
(257,666,cs),
(323,666,o),
(371,542,o),
(372,371,c),
(376,380,l),
(355,350,o),
(319,331,o),
(286,331,cs)
);
}
);
width = 600;
}
);
unicode = 57;
},
